  0
SECTION
  2
HEADER
  9
$ACADVER
  1
AC1021
  9
$ACADMAINTVER
 70
    25
  9
$DWGCODEPAGE
  3
ANSI_1252
  9
$INSBASE
 10
0.0
 20
0.0
 30
0.0
  9
$EXTMIN
 10
-11.59053
 20
-2.52646
 30
0.0
  9
$EXTMAX
 10
12.72646
 20
14.14961
 30
0.0
  9
$LIMMIN
 10
0.0
 20
0.0
  9
$LIMMAX
 10
12.0
 20
9.0
  9
$ORTHOMODE
 70
     0
  9
$REGENMODE
 70
     1
  9
$FILLMODE
 70
     1
  9
$QTEXTMODE
 70
     0
  9
$MIRRTEXT
 70
     1
  9
$LTSCALE
 40
1.0
  9
$ATTMODE
 70
     1
  9
$TEXTSIZE
 40
0.2
  9
$TRACEWID
 40
0.05
  9
$TEXTSTYLE
  7
Standard
  9
$CLAYER
  8
0
  9
$CELTYPE
  6
ByLayer
  9
$CECOLOR
 62
   256
  9
$CELTSCALE
 40
1.0
  9
$DISPSILH
 70
     0
  9
$DIMSCALE
 40
1.0
  9
$DIMASZ
 40
0.18
  9
$DIMEXO
 40
0.0625
  9
$DIMDLI
 40
0.38
  9
$DIMRND
 40
0.0
  9
$DIMDLE
 40
0.0
  9
$DIMEXE
 40
0.18
  9
$DIMTP
 40
0.0
  9
$DIMTM
 40
0.0
  9
$DIMTXT
 40
0.18
  9
$DIMCEN
 40
0.09
  9
$DIMTSZ
 40
0.0
  9
$DIMTOL
 70
     0
  9
$DIMLIM
 70
     0
  9
$DIMTIH
 70
     1
  9
$DIMTOH
 70
     1
  9
$DIMSE1
 70
     0
  9
$DIMSE2
 70
     0
  9
$DIMTAD
 70
     0
  9
$DIMZIN
 70
     0
  9
$DIMBLK
  1

  9
$DIMASO
 70
     1
  9
$DIMSHO
 70
     1
  9
$DIMPOST
  1

  9
$DIMAPOST
  1

  9
$DIMALT
 70
     0
  9
$DIMALTD
 70
     2
  9
$DIMALTF
 40
25.4
  9
$DIMLFAC
 40
1.0
  9
$DIMTOFL
 70
     0
  9
$DIMTVP
 40
0.0
  9
$DIMTIX
 70
     0
  9
$DIMSOXD
 70
     0
  9
$DIMSAH
 70
     0
  9
$DIMBLK1
  1

  9
$DIMBLK2
  1

  9
$DIMSTYLE
  2
Standard
  9
$DIMCLRD
 70
     0
  9
$DIMCLRE
 70
     0
  9
$DIMCLRT
 70
     0
  9
$DIMTFAC
 40
1.0
  9
$DIMGAP
 40
0.09
  9
$DIMJUST
 70
     0
  9
$DIMSD1
 70
     0
  9
$DIMSD2
 70
     0
  9
$DIMTOLJ
 70
     1
  9
$DIMTZIN
 70
     0
  9
$DIMALTZ
 70
     0
  9
$DIMALTTZ
 70
     0
  9
$DIMUPT
 70
     0
  9
$DIMDEC
 70
     4
  9
$DIMTDEC
 70
     4
  9
$DIMALTU
 70
     2
  9
$DIMALTTD
 70
     2
  9
$DIMTXSTY
  7
Standard
  9
$DIMAUNIT
 70
     0
  9
$DIMADEC
 70
     0
  9
$DIMALTRND
 40
0.0
  9
$DIMAZIN
 70
     0
  9
$DIMDSEP
 70
    46
  9
$DIMATFIT
 70
     3
  9
$DIMFRAC
 70
     0
  9
$DIMLDRBLK
  1

  9
$DIMLUNIT
 70
     2
  9
$DIMLWD
 70
    -2
  9
$DIMLWE
 70
    -2
  9
$DIMTMOVE
 70
     0
  9
$DIMFXL
 40
1.0
  9
$DIMFXLON
 70
     0
  9
$DIMJOGANG
 40
0.7853981633974483
  9
$DIMTFILL
 70
     0
  9
$DIMTFILLCLR
 70
     0
  9
$DIMARCSYM
 70
     0
  9
$DIMLTYPE
  6

  9
$DIMLTEX1
  6

  9
$DIMLTEX2
  6

  9
$LUNITS
 70
     2
  9
$LUPREC
 70
     4
  9
$SKETCHINC
 40
0.1
  9
$FILLETRAD
 40
0.5
  9
$AUNITS
 70
     0
  9
$AUPREC
 70
     0
  9
$MENU
  1
.
  9
$ELEVATION
 40
0.0
  9
$PELEVATION
 40
0.0
  9
$THICKNESS
 40
0.0
  9
$LIMCHECK
 70
     0
  9
$CHAMFERA
 40
0.5
  9
$CHAMFERB
 40
0.5
  9
$CHAMFERC
 40
1.0
  9
$CHAMFERD
 40
0.0
  9
$SKPOLY
 70
     0
  9
$TDCREATE
 40
2460590.640493472
  9
$TDUCREATE
 40
2460590.598826806
  9
$TDUPDATE
 40
2460590.640493669
  9
$TDUUPDATE
 40
2460590.598827002
  9
$TDINDWG
 40
0.0000000116
  9
$TDUSRTIMER
 40
0.0000000116
  9
$USRTIMER
 70
     1
  9
$ANGBASE
 50
0.0
  9
$ANGDIR
 70
     0
  9
$PDMODE
 70
     0
  9
$PDSIZE
 40
0.0
  9
$PLINEWID
 40
0.0
  9
$SPLFRAME
 70
     0
  9
$SPLINETYPE
 70
     6
  9
$SPLINESEGS
 70
     8
  9
$HANDSEED
  5
B2
  9
$SURFTAB1
 70
     6
  9
$SURFTAB2
 70
     6
  9
$SURFTYPE
 70
     6
  9
$SURFU
 70
     6
  9
$SURFV
 70
     6
  9
$UCSBASE
  2

  9
$UCSNAME
  2

  9
$UCSORG
 10
0.0
 20
0.0
 30
0.0
  9
$UCSXDIR
 10
1.0
 20
0.0
 30
0.0
  9
$UCSYDIR
 10
0.0
 20
1.0
 30
0.0
  9
$UCSORTHOREF
  2

  9
$UCSORTHOVIEW
 70
     0
  9
$UCSORGTOP
 10
0.0
 20
0.0
 30
0.0
  9
$UCSORGBOTTOM
 10
0.0
 20
0.0
 30
0.0
  9
$UCSORGLEFT
 10
0.0
 20
0.0
 30
0.0
  9
$UCSORGRIGHT
 10
0.0
 20
0.0
 30
0.0
  9
$UCSORGFRONT
 10
0.0
 20
0.0
 30
0.0
  9
$UCSORGBACK
 10
0.0
 20
0.0
 30
0.0
  9
$PUCSBASE
  2

  9
$PUCSNAME
  2

  9
$PUCSORG
 10
0.0
 20
0.0
 30
0.0
  9
$PUCSXDIR
 10
1.0
 20
0.0
 30
0.0
  9
$PUCSYDIR
 10
0.0
 20
1.0
 30
0.0
  9
$PUCSORTHOREF
  2

  9
$PUCSORTHOVIEW
 70
     0
  9
$PUCSORGTOP
 10
0.0
 20
0.0
 30
0.0
  9
$PUCSORGBOTTOM
 10
0.0
 20
0.0
 30
0.0
  9
$PUCSORGLEFT
 10
0.0
 20
0.0
 30
0.0
  9
$PUCSORGRIGHT
 10
0.0
 20
0.0
 30
0.0
  9
$PUCSORGFRONT
 10
0.0
 20
0.0
 30
0.0
  9
$PUCSORGBACK
 10
0.0
 20
0.0
 30
0.0
  9
$USERI1
 70
     0
  9
$USERI2
 70
     0
  9
$USERI3
 70
     0
  9
$USERI4
 70
     0
  9
$USERI5
 70
     0
  9
$USERR1
 40
0.0
  9
$USERR2
 40
0.0
  9
$USERR3
 40
0.0
  9
$USERR4
 40
0.0
  9
$USERR5
 40
0.0
  9
$WORLDVIEW
 70
     1
  9
$SHADEDGE
 70
     3
  9
$SHADEDIF
 70
    70
  9
$TILEMODE
 70
     1
  9
$MAXACTVP
 70
    64
  9
$PINSBASE
 10
0.0
 20
0.0
 30
0.0
  9
$PLIMCHECK
 70
     0
  9
$PEXTMIN
 10
1.000000000000000E+20
 20
1.000000000000000E+20
 30
1.000000000000000E+20
  9
$PEXTMAX
 10
-1.000000000000000E+20
 20
-1.000000000000000E+20
 30
-1.000000000000000E+20
  9
$PLIMMIN
 10
0.0
 20
0.0
  9
$PLIMMAX
 10
12.0
 20
9.0
  9
$UNITMODE
 70
     0
  9
$VISRETAIN
 70
     1
  9
$PLINEGEN
 70
     0
  9
$PSLTSCALE
 70
     1
  9
$TREEDEPTH
 70
  3020
  9
$CMLSTYLE
  2
Standard
  9
$CMLJUST
 70
     0
  9
$CMLSCALE
 40
1.0
  9
$PROXYGRAPHICS
 70
     1
  9
$MEASUREMENT
 70
     0
  9
$CELWEIGHT
370
    -1
  9
$ENDCAPS
280
     0
  9
$JOINSTYLE
280
     0
  9
$LWDISPLAY
290
     0
  9
$INSUNITS
 70
     5
  9
$HYPERLINKBASE
  1

  9
$STYLESHEET
  1

  9
$XEDIT
290
     1
  9
$CEPSNTYPE
380
     0
  9
$PSTYLEMODE
290
     1
  9
$FINGERPRINTGUID
  2
{E482BC49-2AE4-4C43-AAA8-EB3924759DF4}
  9
$VERSIONGUID
  2
{FAEB1C32-E019-11D5-929B-00C0DF256EC4}
  9
$EXTNAMES
290
     1
  9
$PSVPSCALE
 40
0.0
  9
$OLESTARTUP
290
     0
  9
$SORTENTS
280
   127
  9
$INDEXCTL
280
     0
  9
$HIDETEXT
280
     1
  9
$XCLIPFRAME
290
     0
  9
$HALOGAP
280
     0
  9
$OBSCOLOR
 70
   257
  9
$OBSLTYPE
280
     0
  9
$INTERSECTIONDISPLAY
280
     0
  9
$INTERSECTIONCOLOR
 70
   257
  9
$DIMASSOC
280
     2
  9
$PROJECTNAME
  1

  9
$CAMERADISPLAY
290
     0
  9
$LENSLENGTH
 40
50.0
  9
$CAMERAHEIGHT
 40
0.0
  9
$STEPSPERSEC
 40
2.0
  9
$STEPSIZE
 40
6.0
  9
$3DDWFPREC
 40
2.0
  9
$PSOLWIDTH
 40
0.25
  9
$PSOLHEIGHT
 40
4.0
  9
$LOFTANG1
 40
1.570796326794897
  9
$LOFTANG2
 40
1.570796326794897
  9
$LOFTMAG1
 40
0.0
  9
$LOFTMAG2
 40
0.0
  9
$LOFTPARAM
 70
     7
  9
$LOFTNORMALS
280
     1
  9
$LATITUDE
 40
37.795
  9
$LONGITUDE
 40
-122.394
  9
$NORTHDIRECTION
 40
0.0
  9
$TIMEZONE
 70
 -8000
  9
$LIGHTGLYPHDISPLAY
280
     1
  9
$TILEMODELIGHTSYNCH
280
     1
  9
$SOLIDHIST
280
     1
  9
$SHOWHIST
280
     1
  9
$DWFFRAME
280
     2
  9
$DGNFRAME
280
     2
  9
$REALWORLDSCALE
290
     1
  9
$INTERFERECOLOR
 62
   256
  9
$CSHADOW
280
     0
  9
$SHADOWPLANELOCATION
 40
0.0
  0
ENDSEC
  0
SECTION
  2
CLASSES
  0
CLASS
  1
ACDBDICTIONARYWDFLT
  2
AcDbDictionaryWithDefault
  3
ObjectDBX Classes
 90
        0
 91
        4
280
     0
281
     0
  0
CLASS
  1
VISUALSTYLE
  2
AcDbVisualStyle
  3
ObjectDBX Classes
 90
     4095
 91
        4
280
     0
281
     0
  0
CLASS
  1
MATERIAL
  2
AcDbMaterial
  3
ObjectDBX Classes
 90
     1153
 91
        4
280
     0
281
     0
  0
ENDSEC
  0
SECTION
  2
TABLES
  0
TABLE
  2
VPORT
  5
8
330
0
100
AcDbSymbolTable
 70
     1
  0
VPORT
  5
29
330
8
100
AcDbSymbolTableRecord
100
AcDbViewportTableRecord
  2
*Active
 70
     0
 10
0.0
 20
0.0
 11
1.0
 21
1.0
 12
10.42990654205607
 22
4.5
 13
0.0
 23
0.0
 14
0.5
 24
0.5
 15
0.5
 25
0.5
 16
0.0
 26
0.0
 36
1.0
 17
0.0
 27
0.0
 37
0.0
 40
9.0
 41
1.972972972850329
 42
50.0
 43
0.0
 44
0.0
 50
0.0
 51
0.0
 71
     0
 72
   100
 73
     1
 74
     3
 75
     0
 76
     0
 77
     0
 78
     0
281
     0
 65
     1
110
0.0
120
0.0
130
0.0
111
1.0
121
0.0
131
0.0
112
0.0
122
1.0
132
0.0
 79
     0
146
0.0
 60
     3
 61
     5
292
     1
282
     1
141
0.0
142
0.0
 63
   250
  0
ENDTAB
  0
TABLE
  2
LTYPE
  5
5
330
0
100
AcDbSymbolTable
 70
     1
  0
LTYPE
  5
14
330
5
100
AcDbSymbolTableRecord
100
AcDbLinetypeTableRecord
  2
ByBlock
 70
     0
  3

 72
    65
 73
     0
 40
0.0
  0
LTYPE
  5
15
330
5
100
AcDbSymbolTableRecord
100
AcDbLinetypeTableRecord
  2
ByLayer
 70
     0
  3

 72
    65
 73
     0
 40
0.0
  0
LTYPE
  5
16
330
5
100
AcDbSymbolTableRecord
100
AcDbLinetypeTableRecord
  2
Continuous
 70
     0
  3
Solid line
 72
    65
 73
     0
 40
0.0
  0
ENDTAB
  0
TABLE
  2
LAYER
  5
2
330
0
100
AcDbSymbolTable
 70
     2
  0
LAYER
  5
10
330
2
100
AcDbSymbolTableRecord
100
AcDbLayerTableRecord
  2
0
 70
     0
 62
     7
  6
Continuous
370
    -3
390
F
347
3E
  0
LAYER
  5
40
330
2
100
AcDbSymbolTableRecord
100
AcDbLayerTableRecord
  2
Layer 1
 70
     0
 62
     7
  6
Continuous
370
    -3
390
F
347
3E
  0
ENDTAB
  0
TABLE
  2
STYLE
  5
3
330
0
100
AcDbSymbolTable
 70
     1
  0
STYLE
  5
11
330
3
100
AcDbSymbolTableRecord
100
AcDbTextStyleTableRecord
  2
Standard
 70
     0
 40
0.0
 41
1.0
 50
0.0
 71
     0
 42
0.2
  3
txt
  4

  0
ENDTAB
  0
TABLE
  2
VIEW
  5
6
330
0
100
AcDbSymbolTable
 70
     0
  0
ENDTAB
  0
TABLE
  2
UCS
  5
7
330
0
100
AcDbSymbolTable
 70
     0
  0
ENDTAB
  0
TABLE
  2
APPID
  5
9
330
0
100
AcDbSymbolTable
 70
     2
  0
APPID
  5
12
330
9
100
AcDbSymbolTableRecord
100
AcDbRegAppTableRecord
  2
ACAD
 70
     0
  0
APPID
  5
3F
330
9
100
AcDbSymbolTableRecord
100
AcDbRegAppTableRecord
  2
ODA
 70
     0
  0
ENDTAB
  0
TABLE
  2
DIMSTYLE
  5
A
330
0
100
AcDbSymbolTable
 70
     1
100
AcDbDimStyleTable
  0
DIMSTYLE
105
27
330
A
100
AcDbSymbolTableRecord
100
AcDbDimStyleTableRecord
  2
Standard
 70
     0
178
     0
340
11
  0
ENDTAB
  0
TABLE
  2
BLOCK_RECORD
  5
1
330
0
100
AcDbSymbolTable
 70
     1
  0
BLOCK_RECORD
  5
1F
330
1
100
AcDbSymbolTableRecord
100
AcDbBlockTableRecord
  2
*Model_Space
340
22
 70
     0
280
     1
281
     0
  0
BLOCK_RECORD
  5
1B
330
1
100
AcDbSymbolTableRecord
100
AcDbBlockTableRecord
  2
*Paper_Space
340
1E
 70
     0
280
     1
281
     0
  0
BLOCK_RECORD
  5
23
330
1
100
AcDbSymbolTableRecord
100
AcDbBlockTableRecord
  2
*Paper_Space0
340
26
 70
     0
280
     1
281
     0
  0
ENDTAB
  0
ENDSEC
  0
SECTION
  2
BLOCKS
  0
BLOCK
  5
20
330
1F
100
AcDbEntity
  8
0
100
AcDbBlockBegin
  2
*Model_Space
 70
     0
 10
0.0
 20
0.0
 30
0.0
  3
*Model_Space
  1

  0
ENDBLK
  5
21
330
1F
100
AcDbEntity
  8
0
100
AcDbBlockEnd
  0
BLOCK
  5
1C
330
1B
100
AcDbEntity
 67
     1
  8
0
100
AcDbBlockBegin
  2
*Paper_Space
 70
     0
 10
0.0
 20
0.0
 30
0.0
  3
*Paper_Space
  1

  0
ENDBLK
  5
1D
330
1B
100
AcDbEntity
 67
     1
  8
0
100
AcDbBlockEnd
  0
BLOCK
  5
24
330
23
100
AcDbEntity
  8
0
100
AcDbBlockBegin
  2
*Paper_Space0
 70
     0
 10
0.0
 20
0.0
 30
0.0
  3
*Paper_Space0
  1

  0
ENDBLK
  5
25
330
23
100
AcDbEntity
  8
0
100
AcDbBlockEnd
  0
ENDSEC
  0
SECTION
  2
ENTITIES
  0
SPLINE
  5
41
330
1F
100
AcDbEntity
  8
Layer 1
100
AcDbSpline
210
0.0
220
0.0
230
1.0
 70
    11
 71
     3
 72
    48
 73
    44
 74
     0
 42
0.0000000001
 43
0.0000000001
 12
1.0
 22
0.0
 32
0.0
 13
1.0
 23
0.0
 33
0.0
 40
0.0
 40
0.0
 40
0.0
 40
0.0
 40
0.0833333333333333
 40
0.0833333333333333
 40
0.0833333333333333
 40
0.0833333333333333
 40
0.1666666666666667
 40
0.1666666666666667
 40
0.1666666666666667
 40
0.1666666666666667
 40
0.25
 40
0.25
 40
0.25
 40
0.25
 40
0.3333333333333333
 40
0.3333333333333333
 40
0.3333333333333333
 40
0.3333333333333333
 40
0.4166666666666667
 40
0.4166666666666667
 40
0.4166666666666667
 40
0.4166666666666667
 40
0.5
 40
0.5
 40
0.5
 40
0.5
 40
0.5833333333333334
 40
0.5833333333333334
 40
0.5833333333333334
 40
0.5833333333333334
 40
0.6666666666666666
 40
0.6666666666666666
 40
0.6666666666666666
 40
0.6666666666666666
 40
0.75
 40
0.75
 40
0.75
 40
0.75
 40
0.8333333333333334
 40
0.8333333333333334
 40
0.8333333333333334
 40
0.8333333333333334
 40
1.0
 40
1.0
 40
1.0
 40
1.0
 10
-11.59053
 20
12.92533
 30
0.0
 10
-11.59053
 20
12.92533
 30
0.0
 10
-11.59053
 20
13.84354
 30
0.0
 10
-11.59053
 20
13.84354
 30
0.0
 10
-11.59053
 20
13.84354
 30
0.0
 10
-11.59053
 20
13.84354
 30
0.0
 10
-11.46861
 20
13.84354
 30
0.0
 10
-11.46861
 20
13.84354
 30
0.0
 10
-11.46861
 20
13.84354
 30
0.0
 10
-11.46861
 20
13.84354
 30
0.0
 10
-11.46861
 20
13.71633
 30
0.0
 10
-11.46861
 20
13.71633
 30
0.0
 10
-11.46861
 20
13.71633
 30
0.0
 10
-11.41866
 20
13.81052
 30
0.0
 10
-11.34351
 20
13.85751
 30
0.0
 10
-11.2434
 20
13.85751
 30
0.0
 10
-11.2434
 20
13.85751
 30
0.0
 10
-11.16233
 20
13.85751
 30
0.0
 10
-11.09862
 20
13.82809
 30
0.0
 10
-11.05205
 20
13.76903
 30
0.0
 10
-11.05205
 20
13.76903
 30
0.0
 10
-11.00548
 20
13.70998
 30
0.0
 10
-10.9822
 20
13.62933
 30
0.0
 10
-10.9822
 20
13.5271
 30
0.0
 10
-10.9822
 20
13.5271
 30
0.0
 10
-10.9822
 20
13.41576
 30
0.0
 10
-11.00866
 20
13.3258
 30
0.0
 10
-11.06136
 20
13.25765
 30
0.0
 10
-11.06136
 20
13.25765
 30
0.0
 10
-11.11407
 20
13.18928
 30
0.0
 10
-11.18349
 20
13.1552
 30
0.0
 10
-11.26943
 20
13.1552
 30
0.0
 10
-11.26943
 20
13.1552
 30
0.0
 10
-11.34923
 20
13.1552
 30
0.0
 10
-11.41569
 20
13.18568
 30
0.0
 10
-11.46861
 20
13.24685
 30
0.0
 10
-11.46861
 20
13.24685
 30
0.0
 10
-11.46861
 20
13.24685
 30
0.0
 10
-11.46861
 20
12.92533
 30
0.0
 10
-11.46861
 20
12.92533
 30
0.0
 10
-11.46861
 20
12.92533
 30
0.0
 10
-11.46861
 20
12.92533
 30
0.0
 10
-11.59053
 20
12.92533
 30
0.0
 10
-11.59053
 20
12.92533
 30
0.0
  0
SPLINE
  5
42
330
1F
100
AcDbEntity
  8
Layer 1
100
AcDbSpline
210
0.0
220
0.0
230
1.0
 70
    11
 71
     3
 72
    28
 73
    24
 74
     0
 42
0.0000000001
 43
0.0000000001
 12
1.0
 22
0.0
 32
0.0
 13
1.0
 23
0.0
 33
0.0
 40
0.0
 40
0.0
 40
0.0
 40
0.0
 40
0.1428571428571428
 40
0.1428571428571428
 40
0.1428571428571428
 40
0.1428571428571428
 40
0.2857142857142857
 40
0.2857142857142857
 40
0.2857142857142857
 40
0.2857142857142857
 40
0.4285714285714285
 40
0.4285714285714285
 40
0.4285714285714285
 40
0.4285714285714285
 40
0.5714285714285714
 40
0.5714285714285714
 40
0.5714285714285714
 40
0.5714285714285714
 40
0.7142857142857143
 40
0.7142857142857143
 40
0.7142857142857143
 40
0.7142857142857143
 40
1.0
 40
1.0
 40
1.0
 40
1.0
 10
-11.46861
 20
13.33088
 30
0.0
 10
-11.40574
 20
13.27479
 30
0.0
 10
-11.34584
 20
13.24664
 30
0.0
 10
-11.2889
 20
13.24664
 30
0.0
 10
-11.2889
 20
13.24664
 30
0.0
 10
-11.23281
 20
13.24664
 30
0.0
 10
-11.18942
 20
13.27014
 30
0.0
 10
-11.15894
 20
13.31691
 30
0.0
 10
-11.15894
 20
13.31691
 30
0.0
 10
-11.12825
 20
13.36369
 30
0.0
 10
-11.11301
 20
13.42952
 30
0.0
 10
-11.11301
 20
13.51461
 30
0.0
 10
-11.11301
 20
13.51461
 30
0.0
 10
-11.11301
 20
13.67209
 30
0.0
 10
-11.16508
 20
13.75083
 30
0.0
 10
-11.26922
 20
13.75083
 30
0.0
 10
-11.26922
 20
13.75083
 30
0.0
 10
-11.33738
 20
13.75083
 30
0.0
 10
-11.40384
 20
13.714
 30
0.0
 10
-11.46861
 20
13.64013
 30
0.0
 10
-11.46861
 20
13.64013
 30
0.0
 10
-11.46861
 20
13.64013
 30
0.0
 10
-11.46861
 20
13.33088
 30
0.0
 10
-11.46861
 20
13.33088
 30
0.0
  0
SPLINE
  5
43
330
1F
100
AcDbEntity
  8
Layer 1
100
AcDbSpline
210
0.0
220
0.0
230
1.0
 70
    11
 71
     3
 72
    52
 73
    48
 74
     0
 42
0.0000000001
 43
0.0000000001
 12
1.0
 22
0.0
 32
0.0
 13
1.0
 23
0.0
 33
0.0
 40
0.0
 40
0.0
 40
0.0
 40
0.0
 40
0.0769230769230769
 40
0.0769230769230769
 40
0.0769230769230769
 40
0.0769230769230769
 40
0.1538461538461539
 40
0.1538461538461539
 40
0.1538461538461539
 40
0.1538461538461539
 40
0.2307692307692308
 40
0.2307692307692308
 40
0.2307692307692308
 40
0.2307692307692308
 40
0.3076923076923077
 40
0.3076923076923077
 40
0.3076923076923077
 40
0.3076923076923077
 40
0.3846153846153846
 40
0.3846153846153846
 40
0.3846153846153846
 40
0.3846153846153846
 40
0.4615384615384616
 40
0.4615384615384616
 40
0.4615384615384616
 40
0.4615384615384616
 40
0.5384615384615384
 40
0.5384615384615384
 40
0.5384615384615384
 40
0.5384615384615384
 40
0.6153846153846154
 40
0.6153846153846154
 40
0.6153846153846154
 40
0.6153846153846154
 40
0.6923076923076923
 40
0.6923076923076923
 40
0.6923076923076923
 40
0.6923076923076923
 40
0.7692307692307693
 40
0.7692307692307693
 40
0.7692307692307693
 40
0.7692307692307693
 40
0.8461538461538461
 40
0.8461538461538461
 40
0.8461538461538461
 40
0.8461538461538461
 40
1.0
 40
1.0
 40
1.0
 40
1.0
 10
-10.29725
 20
13.19203
 30
0.0
 10
-10.37916
 20
13.16748
 30
0.0
 10
-10.44923
 20
13.1552
 30
0.0
 10
-10.50765
 20
13.1552
 30
0.0
 10
-10.50765
 20
13.1552
 30
0.0
 10
-10.60734
 20
13.1552
 30
0.0
 10
-10.68841
 20
13.18822
 30
0.0
 10
-10.75085
 20
13.25405
 30
0.0
 10
-10.75085
 20
13.25405
 30
0.0
 10
-10.81329
 20
13.31988
 30
0.0
 10
-10.84462
 20
13.40518
 30
0.0
 10
-10.84462
 20
13.51017
 30
0.0
 10
-10.84462
 20
13.51017
 30
0.0
 10
-10.84462
 20
13.61198
 30
0.0
 10
-10.8171
 20
13.69559
 30
0.0
 10
-10.76186
 20
13.76099
 30
0.0
 10
-10.76186
 20
13.76099
 30
0.0
 10
-10.70661
 20
13.82618
 30
0.0
 10
-10.63592
 20
13.85878
 30
0.0
 10
-10.54977
 20
13.85878
 30
0.0
 10
-10.54977
 20
13.85878
 30
0.0
 10
-10.46828
 20
13.85878
 30
0.0
 10
-10.4052
 20
13.82978
 30
0.0
 10
-10.36075
 20
13.77179
 30
0.0
 10
-10.36075
 20
13.77179
 30
0.0
 10
-10.3163
 20
13.71379
 30
0.0
 10
-10.29407
 20
13.63166
 30
0.0
 10
-10.29407
 20
13.52519
 30
0.0
 10
-10.29407
 20
13.52519
 30
0.0
 10
-10.29407
 20
13.52519
 30
0.0
 10
-10.29471
 20
13.48794
 30
0.0
 10
-10.29471
 20
13.48794
 30
0.0
 10
-10.29471
 20
13.48794
 30
0.0
 10
-10.29471
 20
13.48794
 30
0.0
 10
-10.72016
 20
13.48794
 30
0.0
 10
-10.72016
 20
13.48794
 30
0.0
 10
-10.72016
 20
13.48794
 30
0.0
 10
-10.70238
 20
13.32707
 30
0.0
 10
-10.62385
 20
13.24664
 30
0.0
 10
-10.48479
 20
13.24664
 30
0.0
 10
-10.48479
 20
13.24664
 30
0.0
 10
-10.43377
 20
13.24664
 30
0.0
 10
-10.37133
 20
13.26103
 30
0.0
 10
-10.29725
 20
13.28982
 30
0.0
 10
-10.29725
 20
13.28982
 30
0.0
 10
-10.29725
 20
13.28982
 30
0.0
 10
-10.29725
 20
13.19203
 30
0.0
 10
-10.29725
 20
13.19203
 30
0.0
  0
SPLINE
  5
44
330
1F
100
AcDbEntity
  8
Layer 1
100
AcDbSpline
210
0.0
220
0.0
230
1.0
 70
    11
 71
     3
 72
    16
 73
    12
 74
     0
 42
0.0000000001
 43
0.0000000001
 12
1.0
 22
0.0
 32
0.0
 13
1.0
 23
0.0
 33
0.0
 40
0.0
 40
0.0
 40
0.0
 40
0.0
 40
0.25
 40
0.25
 40
0.25
 40
0.25
 40
0.5
 40
0.5
 40
0.5
 40
0.5
 40
1.0
 40
1.0
 40
1.0
 40
1.0
 10
-10.71381
 20
13.57938
 30
0.0
 10
-10.71381
 20
13.57938
 30
0.0
 10
-10.41663
 20
13.57938
 30
0.0
 10
-10.41663
 20
13.57938
 30
0.0
 10
-10.41663
 20
13.57938
 30
0.0
 10
-10.41663
 20
13.70469
 30
0.0
 10
-10.46341
 20
13.76734
 30
0.0
 10
-10.55675
 20
13.76734
 30
0.0
 10
-10.55675
 20
13.76734
 30
0.0
 10
-10.65073
 20
13.76734
 30
0.0
 10
-10.70301
 20
13.70469
 30
0.0
 10
-10.71381
 20
13.57938
 30
0.0
  0
SPLINE
  5
45
330
1F
100
AcDbEntity
  8
Layer 1
100
AcDbSpline
210
0.0
220
0.0
230
1.0
 70
    11
 71
     3
 72
    44
 73
    40
 74
     0
 42
0.0000000001
 43
0.0000000001
 12
1.0
 22
0.0
 32
0.0
 13
1.0
 23
0.0
 33
0.0
 40
0.0
 40
0.0
 40
0.0
 40
0.0
 40
0.0909090909090909
 40
0.0909090909090909
 40
0.0909090909090909
 40
0.0909090909090909
 40
0.1818181818181818
 40
0.1818181818181818
 40
0.1818181818181818
 40
0.1818181818181818
 40
0.2727272727272727
 40
0.2727272727272727
 40
0.2727272727272727
 40
0.2727272727272727
 40
0.3636363636363636
 40
0.3636363636363636
 40
0.3636363636363636
 40
0.3636363636363636
 40
0.4545454545454545
 40
0.4545454545454545
 40
0.4545454545454545
 40
0.4545454545454545
 40
0.5454545454545454
 40
0.5454545454545454
 40
0.5454545454545454
 40
0.5454545454545454
 40
0.6363636363636364
 40
0.6363636363636364
 40
0.6363636363636364
 40
0.6363636363636364
 40
0.7272727272727273
 40
0.7272727272727273
 40
0.7272727272727273
 40
0.7272727272727273
 40
0.8181818181818182
 40
0.8181818181818182
 40
0.8181818181818182
 40
0.8181818181818182
 40
1.0
 40
1.0
 40
1.0
 40
1.0
 10
-10.08368
 20
13.17044
 30
0.0
 10
-10.08368
 20
13.17044
 30
0.0
 10
-10.08368
 20
13.84354
 30
0.0
 10
-10.08368
 20
13.84354
 30
0.0
 10
-10.08368
 20
13.84354
 30
0.0
 10
-10.08368
 20
13.84354
 30
0.0
 10
-9.96176
 20
13.84354
 30
0.0
 10
-9.96176
 20
13.84354
 30
0.0
 10
-9.96176
 20
13.84354
 30
0.0
 10
-9.96176
 20
13.84354
 30
0.0
 10
-9.96176
 20
13.71633
 30
0.0
 10
-9.96176
 20
13.71633
 30
0.0
 10
-9.96176
 20
13.71633
 30
0.0
 10
-9.91329
 20
13.81052
 30
0.0
 10
-9.84301
 20
13.85751
 30
0.0
 10
-9.75073
 20
13.85751
 30
0.0
 10
-9.75073
 20
13.85751
 30
0.0
 10
-9.73824
 20
13.85751
 30
0.0
 10
-9.72512
 20
13.85645
 30
0.0
 10
-9.71157
 20
13.85434
 30
0.0
 10
-9.71157
 20
13.85434
 30
0.0
 10
-9.71157
 20
13.85434
 30
0.0
 10
-9.71157
 20
13.74025
 30
0.0
 10
-9.71157
 20
13.74025
 30
0.0
 10
-9.71157
 20
13.74025
 30
0.0
 10
-9.73274
 20
13.74723
 30
0.0
 10
-9.75136
 20
13.75083
 30
0.0
 10
-9.76745
 20
13.75083
 30
0.0
 10
-9.76745
 20
13.75083
 30
0.0
 10
-9.84492
 20
13.75083
 30
0.0
 10
-9.90969
 20
13.70511
 30
0.0
 10
-9.96176
 20
13.61346
 30
0.0
 10
-9.96176
 20
13.61346
 30
0.0
 10
-9.96176
 20
13.61346
 30
0.0
 10
-9.96176
 20
13.17044
 30
0.0
 10
-9.96176
 20
13.17044
 30
0.0
 10
-9.96176
 20
13.17044
 30
0.0
 10
-9.96176
 20
13.17044
 30
0.0
 10
-10.08368
 20
13.17044
 30
0.0
 10
-10.08368
 20
13.17044
 30
0.0
  0
SPLINE
  5
46
330
1F
100
AcDbEntity
  8
Layer 1
100
AcDbSpline
210
0.0
220
0.0
230
1.0
 70
    11
 71
     3
 72
    92
 73
    88
 74
     0
 42
0.0000000001
 43
0.0000000001
 12
1.0
 22
0.0
 32
0.0
 13
1.0
 23
0.0
 33
0.0
 40
0.0
 40
0.0
 40
0.0
 40
0.0
 40
0.0434782608695652
 40
0.0434782608695652
 40
0.0434782608695652
 40
0.0434782608695652
 40
0.0869565217391304
 40
0.0869565217391304
 40
0.0869565217391304
 40
0.0869565217391304
 40
0.1304347826086956
 40
0.1304347826086956
 40
0.1304347826086956
 40
0.1304347826086956
 40
0.1739130434782609
 40
0.1739130434782609
 40
0.1739130434782609
 40
0.1739130434782609
 40
0.2173913043478261
 40
0.2173913043478261
 40
0.2173913043478261
 40
0.2173913043478261
 40
0.2608695652173913
 40
0.2608695652173913
 40
0.2608695652173913
 40
0.2608695652173913
 40
0.3043478260869565
 40
0.3043478260869565
 40
0.3043478260869565
 40
0.3043478260869565
 40
0.3478260869565217
 40
0.3478260869565217
 40
0.3478260869565217
 40
0.3478260869565217
 40
0.391304347826087
 40
0.391304347826087
 40
0.391304347826087
 40
0.391304347826087
 40
0.4347826086956522
 40
0.4347826086956522
 40
0.4347826086956522
 40
0.4347826086956522
 40
0.4782608695652174
 40
0.4782608695652174
 40
0.4782608695652174
 40
0.4782608695652174
 40
0.5217391304347826
 40
0.5217391304347826
 40
0.5217391304347826
 40
0.5217391304347826
 40
0.5652173913043478
 40
0.5652173913043478
 40
0.5652173913043478
 40
0.5652173913043478
 40
0.6086956521739131
 40
0.6086956521739131
 40
0.6086956521739131
 40
0.6086956521739131
 40
0.6521739130434783
 40
0.6521739130434783
 40
0.6521739130434783
 40
0.6521739130434783
 40
0.6956521739130435
 40
0.6956521739130435
 40
0.6956521739130435
 40
0.6956521739130435
 40
0.7391304347826086
 40
0.7391304347826086
 40
0.7391304347826086
 40
0.7391304347826086
 40
0.782608695652174
 40
0.782608695652174
 40
0.782608695652174
 40
0.782608695652174
 40
0.8260869565217391
 40
0.8260869565217391
 40
0.8260869565217391
 40
0.8260869565217391
 40
0.8695652173913043
 40
0.8695652173913043
 40
0.8695652173913043
 40
0.8695652173913043
 40
0.9130434782608695
 40
0.9130434782608695
 40
0.9130434782608695
 40
0.9130434782608695
 40
1.0
 40
1.0
 40
1.0
 40
1.0
 10
-9.58817
 20
13.19457
 30
0.0
 10
-9.58817
 20
13.19457
 30
0.0
 10
-9.58817
 20
13.30633
 30
0.0
 10
-9.58817
 20
13.30633
 30
0.0
 10
-9.58817
 20
13.30633
 30
0.0
 10
-9.50837
 20
13.26654
 30
0.0
 10
-9.43916
 20
13.24664
 30
0.0
 10
-9.3801
 20
13.24664
 30
0.0
 10
-9.3801
 20
13.24664
 30
0.0
 10
-9.34496
 20
13.24664
 30
0.0
 10
-9.31575
 20
13.25617
 30
0.0
 10
-9.29268
 20
13.27522
 30
0.0
 10
-9.29268
 20
13.27522
 30
0.0
 10
-9.26961
 20
13.29405
 30
0.0
 10
-9.25797
 20
13.31776
 30
0.0
 10
-9.25797
 20
13.34634
 30
0.0
 10
-9.25797
 20
13.34634
 30
0.0
 10
-9.25797
 20
13.38803
 30
0.0
 10
-9.29035
 20
13.42254
 30
0.0
 10
-9.35512
 20
13.44984
 30
0.0
 10
-9.35512
 20
13.44984
 30
0.0
 10
-9.35512
 20
13.44984
 30
0.0
 10
-9.42646
 20
13.48011
 30
0.0
 10
-9.42646
 20
13.48011
 30
0.0
 10
-9.42646
 20
13.48011
 30
0.0
 10
-9.53165
 20
13.52371
 30
0.0
 10
-9.58436
 20
13.58679
 30
0.0
 10
-9.58436
 20
13.6687
 30
0.0
 10
-9.58436
 20
13.6687
 30
0.0
 10
-9.58436
 20
13.72734
 30
0.0
 10
-9.56362
 20
13.77348
 30
0.0
 10
-9.52213
 20
13.80713
 30
0.0
 10
-9.52213
 20
13.80713
 30
0.0
 10
-9.48064
 20
13.84079
 30
0.0
 10
-9.4237
 20
13.85751
 30
0.0
 10
-9.35153
 20
13.85751
 30
0.0
 10
-9.35153
 20
13.85751
 30
0.0
 10
-9.31406
 20
13.85751
 30
0.0
 10
-9.26749
 20
13.85243
 30
0.0
 10
-9.21225
 20
13.84206
 30
0.0
 10
-9.21225
 20
13.84206
 30
0.0
 10
-9.21225
 20
13.84206
 30
0.0
 10
-9.18685
 20
13.83719
 30
0.0
 10
-9.18685
 20
13.83719
 30
0.0
 10
-9.18685
 20
13.83719
 30
0.0
 10
-9.18685
 20
13.83719
 30
0.0
 10
-9.18685
 20
13.73559
 30
0.0
 10
-9.18685
 20
13.73559
 30
0.0
 10
-9.18685
 20
13.73559
 30
0.0
 10
-9.25479
 20
13.75591
 30
0.0
 10
-9.30898
 20
13.76607
 30
0.0
 10
-9.34941
 20
13.76607
 30
0.0
 10
-9.34941
 20
13.76607
 30
0.0
 10
-9.38497
 20
13.76607
 30
0.0
 10
-9.41312
 20
13.75824
 30
0.0
 10
-9.4345
 20
13.74279
 30
0.0
 10
-9.4345
 20
13.74279
 30
0.0
 10
-9.45567
 20
13.72734
 30
0.0
 10
-9.46625
 20
13.70659
 30
0.0
 10
-9.46625
 20
13.68056
 30
0.0
 10
-9.46625
 20
13.68056
 30
0.0
 10
-9.46625
 20
13.64394
 30
0.0
 10
-9.43662
 20
13.61282
 30
0.0
 10
-9.37714
 20
13.58764
 30
0.0
 10
-9.37714
 20
13.58764
 30
0.0
 10
-9.37714
 20
13.58764
 30
0.0
 10
-9.31851
 20
13.56287
 30
0.0
 10
-9.31851
 20
13.56287
 30
0.0
 10
-9.31851
 20
13.56287
 30
0.0
 10
-9.25204
 20
13.53493
 30
0.0
 10
-9.20505
 20
13.5053
 30
0.0
 10
-9.17754
 20
13.47418
 30
0.0
 10
-9.17754
 20
13.47418
 30
0.0
 10
-9.14981
 20
13.44307
 30
0.0
 10
-9.13605
 20
13.40412
 30
0.0
 10
-9.13605
 20
13.35755
 30
0.0
 10
-9.13605
 20
13.35755
 30
0.0
 10
-9.13605
 20
13.2985
 30
0.0
 10
-9.15933
 20
13.25003
 30
0.0
 10
-9.20611
 20
13.21214
 30
0.0
 10
-9.20611
 20
13.21214
 30
0.0
 10
-9.25268
 20
13.17425
 30
0.0
 10
-9.31237
 20
13.1552
 30
0.0
 10
-9.38497
 20
13.1552
 30
0.0
 10
-9.38497
 20
13.1552
 30
0.0
 10
-9.44085
 20
13.1552
 30
0.0
 10
-9.50837
 20
13.16832
 30
0.0
 10
-9.58817
 20
13.19457
 30
0.0
  0
SPLINE
  5
47
330
1F
100
AcDbEntity
  8
Layer 1
100
AcDbSpline
210
0.0
220
0.0
230
1.0
 70
    11
 71
     3
 72
    36
 73
    32
 74
     0
 42
0.0000000001
 43
0.0000000001
 12
1.0
 22
0.0
 32
0.0
 13
1.0
 23
0.0
 33
0.0
 40
0.0
 40
0.0
 40
0.0
 40
0.0
 40
0.1111111111111111
 40
0.1111111111111111
 40
0.1111111111111111
 40
0.1111111111111111
 40
0.2222222222222222
 40
0.2222222222222222
 40
0.2222222222222222
 40
0.2222222222222222
 40
0.3333333333333333
 40
0.3333333333333333
 40
0.3333333333333333
 40
0.3333333333333333
 40
0.4444444444444444
 40
0.4444444444444444
 40
0.4444444444444444
 40
0.4444444444444444
 40
0.5555555555555556
 40
0.5555555555555556
 40
0.5555555555555556
 40
0.5555555555555556
 40
0.6666666666666666
 40
0.6666666666666666
 40
0.6666666666666666
 40
0.6666666666666666
 40
0.7777777777777778
 40
0.7777777777777778
 40
0.7777777777777778
 40
0.7777777777777778
 40
1.0
 40
1.0
 40
1.0
 40
1.0
 10
-8.64858
 20
13.1552
 30
0.0
 10
-8.74743
 20
13.1552
 30
0.0
 10
-8.82574
 20
13.18674
 30
0.0
 10
-8.88332
 20
13.24982
 30
0.0
 10
-8.88332
 20
13.24982
 30
0.0
 10
-8.9411
 20
13.31289
 30
0.0
 10
-8.96989
 20
13.39862
 30
0.0
 10
-8.96989
 20
13.50678
 30
0.0
 10
-8.96989
 20
13.50678
 30
0.0
 10
-8.96989
 20
13.61473
 30
0.0
 10
-8.9411
 20
13.70024
 30
0.0
 10
-8.88332
 20
13.76311
 30
0.0
 10
-8.88332
 20
13.76311
 30
0.0
 10
-8.82574
 20
13.82597
 30
0.0
 10
-8.74743
 20
13.85751
 30
0.0
 10
-8.64858
 20
13.85751
 30
0.0
 10
-8.64858
 20
13.85751
 30
0.0
 10
-8.54973
 20
13.85751
 30
0.0
 10
-8.47141
 20
13.82597
 30
0.0
 10
-8.41384
 20
13.76311
 30
0.0
 10
-8.41384
 20
13.76311
 30
0.0
 10
-8.35606
 20
13.70024
 30
0.0
 10
-8.32727
 20
13.61473
 30
0.0
 10
-8.32727
 20
13.50678
 30
0.0
 10
-8.32727
 20
13.50678
 30
0.0
 10
-8.32727
 20
13.39862
 30
0.0
 10
-8.35606
 20
13.31289
 30
0.0
 10
-8.41384
 20
13.24982
 30
0.0
 10
-8.41384
 20
13.24982
 30
0.0
 10
-8.47141
 20
13.18674
 30
0.0
 10
-8.54973
 20
13.1552
 30
0.0
 10
-8.64858
 20
13.1552
 30
0.0
  0
SPLINE
  5
48
330
1F
100
AcDbEntity
  8
Layer 1
100
AcDbSpline
210
0.0
220
0.0
230
1.0
 70
    11
 71
     3
 72
    36
 73
    32
 74
     0
 42
0.0000000001
 43
0.0000000001
 12
1.0
 22
0.0
 32
0.0
 13
1.0
 23
0.0
 33
0.0
 40
0.0
 40
0.0
 40
0.0
 40
0.0
 40
0.1111111111111111
 40
0.1111111111111111
 40
0.1111111111111111
 40
0.1111111111111111
 40
0.2222222222222222
 40
0.2222222222222222
 40
0.2222222222222222
 40
0.2222222222222222
 40
0.3333333333333333
 40
0.3333333333333333
 40
0.3333333333333333
 40
0.3333333333333333
 40
0.4444444444444444
 40
0.4444444444444444
 40
0.4444444444444444
 40
0.4444444444444444
 40
0.5555555555555556
 40
0.5555555555555556
 40
0.5555555555555556
 40
0.5555555555555556
 40
0.6666666666666666
 40
0.6666666666666666
 40
0.6666666666666666
 40
0.6666666666666666
 40
0.7777777777777778
 40
0.7777777777777778
 40
0.7777777777777778
 40
0.7777777777777778
 40
1.0
 40
1.0
 40
1.0
 40
1.0
 10
-8.64879
 20
13.24664
 30
0.0
 10
-8.58847
 20
13.24664
 30
0.0
 10
-8.54148
 20
13.26929
 30
0.0
 10
-8.50803
 20
13.3148
 30
0.0
 10
-8.50803
 20
13.3148
 30
0.0
 10
-8.4748
 20
13.36009
 30
0.0
 10
-8.45808
 20
13.42423
 30
0.0
 10
-8.45808
 20
13.50678
 30
0.0
 10
-8.45808
 20
13.50678
 30
0.0
 10
-8.45808
 20
13.58912
 30
0.0
 10
-8.4748
 20
13.65304
 30
0.0
 10
-8.50803
 20
13.69834
 30
0.0
 10
-8.50803
 20
13.69834
 30
0.0
 10
-8.54148
 20
13.74342
 30
0.0
 10
-8.58847
 20
13.76607
 30
0.0
 10
-8.64879
 20
13.76607
 30
0.0
 10
-8.64879
 20
13.76607
 30
0.0
 10
-8.70933
 20
13.76607
 30
0.0
 10
-8.75632
 20
13.74342
 30
0.0
 10
-8.78934
 20
13.69834
 30
0.0
 10
-8.78934
 20
13.69834
 30
0.0
 10
-8.82257
 20
13.65304
 30
0.0
 10
-8.83908
 20
13.58912
 30
0.0
 10
-8.83908
 20
13.50678
 30
0.0
 10
-8.83908
 20
13.50678
 30
0.0
 10
-8.83908
 20
13.42423
 30
0.0
 10
-8.82257
 20
13.36009
 30
0.0
 10
-8.78934
 20
13.3148
 30
0.0
 10
-8.78934
 20
13.3148
 30
0.0
 10
-8.75632
 20
13.26929
 30
0.0
 10
-8.70933
 20
13.24664
 30
0.0
 10
-8.64879
 20
13.24664
 30
0.0
  0
SPLINE
  5
49
330
1F
100
AcDbEntity
  8
Layer 1
100
AcDbSpline
210
0.0
220
0.0
230
1.0
 70
    11
 71
     3
 72
    60
 73
    56
 74
     0
 42
0.0000000001
 43
0.0000000001
 12
1.0
 22
0.0
 32
0.0
 13
1.0
 23
0.0
 33
0.0
 40
0.0
 40
0.0
 40
0.0
 40
0.0
 40
0.0666666666666667
 40
0.0666666666666667
 40
0.0666666666666667
 40
0.0666666666666667
 40
0.1333333333333333
 40
0.1333333333333333
 40
0.1333333333333333
 40
0.1333333333333333
 40
0.2
 40
0.2
 40
0.2
 40
0.2
 40
0.2666666666666667
 40
0.2666666666666667
 40
0.2666666666666667
 40
0.2666666666666667
 40
0.3333333333333333
 40
0.3333333333333333
 40
0.3333333333333333
 40
0.3333333333333333
 40
0.4
 40
0.4
 40
0.4
 40
0.4
 40
0.4666666666666667
 40
0.4666666666666667
 40
0.4666666666666667
 40
0.4666666666666667
 40
0.5333333333333333
 40
0.5333333333333333
 40
0.5333333333333333
 40
0.5333333333333333
 40
0.6
 40
0.6
 40
0.6
 40
0.6
 40
0.6666666666666666
 40
0.6666666666666666
 40
0.6666666666666666
 40
0.6666666666666666
 40
0.7333333333333333
 40
0.7333333333333333
 40
0.7333333333333333
 40
0.7333333333333333
 40
0.8
 40
0.8
 40
0.8
 40
0.8
 40
0.8666666666666667
 40
0.8666666666666667
 40
0.8666666666666667
 40
0.8666666666666667
 40
1.0
 40
1.0
 40
1.0
 40
1.0
 10
-8.13635
 20
13.17044
 30
0.0
 10
-8.13635
 20
13.17044
 30
0.0
 10
-8.13635
 20
13.84354
 30
0.0
 10
-8.13635
 20
13.84354
 30
0.0
 10
-8.13635
 20
13.84354
 30
0.0
 10
-8.13635
 20
13.84354
 30
0.0
 10
-8.01443
 20
13.84354
 30
0.0
 10
-8.01443
 20
13.84354
 30
0.0
 10
-8.01443
 20
13.84354
 30
0.0
 10
-8.01443
 20
13.84354
 30
0.0
 10
-8.01443
 20
13.71633
 30
0.0
 10
-8.01443
 20
13.71633
 30
0.0
 10
-8.01443
 20
13.71633
 30
0.0
 10
-7.94987
 20
13.81052
 30
0.0
 10
-7.87071
 20
13.85751
 30
0.0
 10
-7.77715
 20
13.85751
 30
0.0
 10
-7.77715
 20
13.85751
 30
0.0
 10
-7.71831
 20
13.85751
 30
0.0
 10
-7.67153
 20
13.8391
 30
0.0
 10
-7.63703
 20
13.80205
 30
0.0
 10
-7.63703
 20
13.80205
 30
0.0
 10
-7.60253
 20
13.76522
 30
0.0
 10
-7.58517
 20
13.71548
 30
0.0
 10
-7.58517
 20
13.65325
 30
0.0
 10
-7.58517
 20
13.65325
 30
0.0
 10
-7.58517
 20
13.65325
 30
0.0
 10
-7.58517
 20
13.17044
 30
0.0
 10
-7.58517
 20
13.17044
 30
0.0
 10
-7.58517
 20
13.17044
 30
0.0
 10
-7.58517
 20
13.17044
 30
0.0
 10
-7.70709
 20
13.17044
 30
0.0
 10
-7.70709
 20
13.17044
 30
0.0
 10
-7.70709
 20
13.17044
 30
0.0
 10
-7.70709
 20
13.17044
 30
0.0
 10
-7.70709
 20
13.61346
 30
0.0
 10
-7.70709
 20
13.61346
 30
0.0
 10
-7.70709
 20
13.61346
 30
0.0
 10
-7.70709
 20
13.66341
 30
0.0
 10
-7.7145
 20
13.69897
 30
0.0
 10
-7.7291
 20
13.72014
 30
0.0
 10
-7.7291
 20
13.72014
 30
0.0
 10
-7.74392
 20
13.74152
 30
0.0
 10
-7.76826
 20
13.7521
 30
0.0
 10
-7.80234
 20
13.7521
 30
0.0
 10
-7.80234
 20
13.7521
 30
0.0
 10
-7.87727
 20
13.7521
 30
0.0
 10
-7.94797
 20
13.70321
 30
0.0
 10
-8.01443
 20
13.60542
 30
0.0
 10
-8.01443
 20
13.60542
 30
0.0
 10
-8.01443
 20
13.60542
 30
0.0
 10
-8.01443
 20
13.17044
 30
0.0
 10
-8.01443
 20
13.17044
 30
0.0
 10
-8.01443
 20
13.17044
 30
0.0
 10
-8.01443
 20
13.17044
 30
0.0
 10
-8.13635
 20
13.17044
 30
0.0
 10
-8.13635
 20
13.17044
 30
0.0
  0
SPLINE
  5
4A
330
1F
100
AcDbEntity
  8
Layer 1
100
AcDbSpline
210
0.0
220
0.0
230
1.0
 70
    11
 71
     3
 72
    80
 73
    76
 74
     0
 42
0.0000000001
 43
0.0000000001
 12
1.0
 22
0.0
 32
0.0
 13
1.0
 23
0.0
 33
0.0
 40
0.0
 40
0.0
 40
0.0
 40
0.0
 40
0.05
 40
0.05
 40
0.05
 40
0.05
 40
0.1
 40
0.1
 40
0.1
 40
0.1
 40
0.15
 40
0.15
 40
0.15
 40
0.15
 40
0.2
 40
0.2
 40
0.2
 40
0.2
 40
0.25
 40
0.25
 40
0.25
 40
0.25
 40
0.3
 40
0.3
 40
0.3
 40
0.3
 40
0.35
 40
0.35
 40
0.35
 40
0.35
 40
0.4
 40
0.4
 40
0.4
 40
0.4
 40
0.45
 40
0.45
 40
0.45
 40
0.45
 40
0.5
 40
0.5
 40
0.5
 40
0.5
 40
0.55
 40
0.55
 40
0.55
 40
0.55
 40
0.6
 40
0.6
 40
0.6
 40
0.6
 40
0.65
 40
0.65
 40
0.65
 40
0.65
 40
0.7
 40
0.7
 40
0.7
 40
0.7
 40
0.75
 40
0.75
 40
0.75
 40
0.75
 40
0.8
 40
0.8
 40
0.8
 40
0.8
 40
0.85
 40
0.85
 40
0.85
 40
0.85
 40
0.9
 40
0.9
 40
0.9
 40
0.9
 40
1.0
 40
1.0
 40
1.0
 40
1.0
 10
-7.00118
 20
13.25617
 30
0.0
 10
-7.07441
 20
13.18886
 30
0.0
 10
-7.1449
 20
13.1552
 30
0.0
 10
-7.21263
 20
13.1552
 30
0.0
 10
-7.21263
 20
13.1552
 30
0.0
 10
-7.2683
 20
13.1552
 30
0.0
 10
-7.31466
 20
13.17256
 30
0.0
 10
-7.35127
 20
13.20748
 30
0.0
 10
-7.35127
 20
13.20748
 30
0.0
 10
-7.3881
 20
13.24241
 30
0.0
 10
-7.40652
 20
13.28643
 30
0.0
 10
-7.40652
 20
13.33956
 30
0.0
 10
-7.40652
 20
13.33956
 30
0.0
 10
-7.40652
 20
13.41301
 30
0.0
 10
-7.37562
 20
13.46953
 30
0.0
 10
-7.31381
 20
13.5089
 30
0.0
 10
-7.31381
 20
13.5089
 30
0.0
 10
-7.252
 20
13.54827
 30
0.0
 10
-7.16331
 20
13.56795
 30
0.0
 10
-7.04774
 20
13.56795
 30
0.0
 10
-7.04774
 20
13.56795
 30
0.0
 10
-7.04774
 20
13.56795
 30
0.0
 10
-7.01917
 20
13.56795
 30
0.0
 10
-7.01917
 20
13.56795
 30
0.0
 10
-7.01917
 20
13.56795
 30
0.0
 10
-7.01917
 20
13.56795
 30
0.0
 10
-7.01917
 20
13.64902
 30
0.0
 10
-7.01917
 20
13.64902
 30
0.0
 10
-7.01917
 20
13.64902
 30
0.0
 10
-7.01917
 20
13.72712
 30
0.0
 10
-7.05981
 20
13.76607
 30
0.0
 10
-7.1413
 20
13.76607
 30
0.0
 10
-7.1413
 20
13.76607
 30
0.0
 10
-7.20438
 20
13.76607
 30
0.0
 10
-7.27338
 20
13.74617
 30
0.0
 10
-7.3481
 20
13.70638
 30
0.0
 10
-7.3481
 20
13.70638
 30
0.0
 10
-7.3481
 20
13.70638
 30
0.0
 10
-7.3481
 20
13.80671
 30
0.0
 10
-7.3481
 20
13.80671
 30
0.0
 10
-7.3481
 20
13.80671
 30
0.0
 10
-7.26597
 20
13.84058
 30
0.0
 10
-7.1885
 20
13.85751
 30
0.0
 10
-7.1159
 20
13.85751
 30
0.0
 10
-7.1159
 20
13.85751
 30
0.0
 10
-7.04118
 20
13.85751
 30
0.0
 10
-6.98594
 20
13.84058
 30
0.0
 10
-6.95059
 20
13.8065
 30
0.0
 10
-6.95059
 20
13.8065
 30
0.0
 10
-6.91503
 20
13.77242
 30
0.0
 10
-6.89725
 20
13.71993
 30
0.0
 10
-6.89725
 20
13.64902
 30
0.0
 10
-6.89725
 20
13.64902
 30
0.0
 10
-6.89725
 20
13.64902
 30
0.0
 10
-6.89725
 20
13.34485
 30
0.0
 10
-6.89725
 20
13.34485
 30
0.0
 10
-6.89725
 20
13.34485
 30
0.0
 10
-6.89725
 20
13.27522
 30
0.0
 10
-6.87587
 20
13.24029
 30
0.0
 10
-6.8329
 20
13.24029
 30
0.0
 10
-6.8329
 20
13.24029
 30
0.0
 10
-6.82761
 20
13.24029
 30
0.0
 10
-6.81978
 20
13.24114
 30
0.0
 10
-6.80941
 20
13.24283
 30
0.0
 10
-6.80941
 20
13.24283
 30
0.0
 10
-6.80941
 20
13.24283
 30
0.0
 10
-6.80073
 20
13.1751
 30
0.0
 10
-6.80073
 20
13.1751
 30
0.0
 10
-6.80073
 20
13.1751
 30
0.0
 10
-6.82846
 20
13.16176
 30
0.0
 10
-6.85894
 20
13.1552
 30
0.0
 10
-6.89238
 20
13.1552
 30
0.0
 10
-6.89238
 20
13.1552
 30
0.0
 10
-6.94932
 20
13.1552
 30
0.0
 10
-6.98551
 20
13.18886
 30
0.0
 10
-7.00118
 20
13.25617
 30
0.0
  0
SPLINE
  5
4B
330
1F
100
AcDbEntity
  8
Layer 1
100
AcDbSpline
210
0.0
220
0.0
230
1.0
 70
    11
 71
     3
 72
    32
 73
    28
 74
     0
 42
0.0000000001
 43
0.0000000001
 12
1.0
 22
0.0
 32
0.0
 13
1.0
 23
0.0
 33
0.0
 40
0.0
 40
0.0
 40
0.0
 40
0.0
 40
0.125
 40
0.125
 40
0.125
 40
0.125
 40
0.25
 40
0.25
 40
0.25
 40
0.25
 40
0.375
 40
0.375
 40
0.375
 40
0.375
 40
0.5
 40
0.5
 40
0.5
 40
0.5
 40
0.625
 40
0.625
 40
0.625
 40
0.625
 40
0.75
 40
0.75
 40
0.75
 40
0.75
 40
1.0
 40
1.0
 40
1.0
 40
1.0
 10
-7.01917
 20
13.32263
 30
0.0
 10
-7.01917
 20
13.32263
 30
0.0
 10
-7.01917
 20
13.49556
 30
0.0
 10
-7.01917
 20
13.49556
 30
0.0
 10
-7.01917
 20
13.49556
 30
0.0
 10
-7.01917
 20
13.49556
 30
0.0
 10
-7.05833
 20
13.49683
 30
0.0
 10
-7.05833
 20
13.49683
 30
0.0
 10
-7.05833
 20
13.49683
 30
0.0
 10
-7.12606
 20
13.49683
 30
0.0
 10
-7.18067
 20
13.48434
 30
0.0
 10
-7.22237
 20
13.45937
 30
0.0
 10
-7.22237
 20
13.45937
 30
0.0
 10
-7.26386
 20
13.43418
 30
0.0
 10
-7.2846
 20
13.40095
 30
0.0
 10
-7.2846
 20
13.35946
 30
0.0
 10
-7.2846
 20
13.35946
 30
0.0
 10
-7.2846
 20
13.33046
 30
0.0
 10
-7.27423
 20
13.30591
 30
0.0
 10
-7.2537
 20
13.2858
 30
0.0
 10
-7.2537
 20
13.2858
 30
0.0
 10
-7.23295
 20
13.26569
 30
0.0
 10
-7.20776
 20
13.25553
 30
0.0
 10
-7.17792
 20
13.25553
 30
0.0
 10
-7.17792
 20
13.25553
 30
0.0
 10
-7.12712
 20
13.25553
 30
0.0
 10
-7.0742
 20
13.27797
 30
0.0
 10
-7.01917
 20
13.32263
 30
0.0
  0
SPLINE
  5
4C
330
1F
100
AcDbEntity
  8
Layer 1
100
AcDbSpline
210
0.0
220
0.0
230
1.0
 70
    11
 71
     3
 72
    20
 73
    16
 74
     0
 42
0.0000000001
 43
0.0000000001
 12
1.0
 22
0.0
 32
0.0
 13
1.0
 23
0.0
 33
0.0
 40
0.0
 40
0.0
 40
0.0
 40
0.0
 40
0.2
 40
0.2
 40
0.2
 40
0.2
 40
0.4
 40
0.4
 40
0.4
 40
0.4
 40
0.6
 40
0.6
 40
0.6
 40
0.6
 40
1.0
 40
1.0
 40
1.0
 40
1.0
 10
-6.64685
 20
13.17044
 30
0.0
 10
-6.64685
 20
13.17044
 30
0.0
 10
-6.64685
 20
14.14961
 30
0.0
 10
-6.64685
 20
14.14961
 30
0.0
 10
-6.64685
 20
14.14961
 30
0.0
 10
-6.64685
 20
14.14961
 30
0.0
 10
-6.52493
 20
14.14961
 30
0.0
 10
-6.52493
 20
14.14961
 30
0.0
 10
-6.52493
 20
14.14961
 30
0.0
 10
-6.52493
 20
14.14961
 30
0.0
 10
-6.52493
 20
13.17044
 30
0.0
 10
-6.52493
 20
13.17044
 30
0.0
 10
-6.52493
 20
13.17044
 30
0.0
 10
-6.52493
 20
13.17044
 30
0.0
 10
-6.64685
 20
13.17044
 30
0.0
 10
-6.64685
 20
13.17044
 30
0.0
  0
SPLINE
  5
4D
330
1F
100
AcDbEntity
  8
Layer 1
100
AcDbSpline
210
0.0
220
0.0
230
1.0
 70
    11
 71
     3
 72
    20
 73
    16
 74
     0
 42
0.0000000001
 43
0.0000000001
 12
1.0
 22
0.0
 32
0.0
 13
1.0
 23
0.0
 33
0.0
 40
0.0
 40
0.0
 40
0.0
 40
0.0
 40
0.2
 40
0.2
 40
0.2
 40
0.2
 40
0.4
 40
0.4
 40
0.4
 40
0.4
 40
0.6
 40
0.6
 40
0.6
 40
0.6
 40
1.0
 40
1.0
 40
1.0
 40
1.0
 10
-6.3484
 20
13.079
 30
0.0
 10
-6.3484
 20
13.079
 30
0.0
 10
-6.3484
 20
13.17044
 30
0.0
 10
-6.3484
 20
13.17044
 30
0.0
 10
-6.3484
 20
13.17044
 30
0.0
 10
-6.3484
 20
13.17044
 30
0.0
 10
-5.82008
 20
13.17044
 30
0.0
 10
-5.82008
 20
13.17044
 30
0.0
 10
-5.82008
 20
13.17044
 30
0.0
 10
-5.82008
 20
13.17044
 30
0.0
 10
-5.82008
 20
13.079
 30
0.0
 10
-5.82008
 20
13.079
 30
0.0
 10
-5.82008
 20
13.079
 30
0.0
 10
-5.82008
 20
13.079
 30
0.0
 10
-6.3484
 20
13.079
 30
0.0
 10
-6.3484
 20
13.079
 30
0.0
  0
SPLINE
  5
4E
330
1F
100
AcDbEntity
  8
Layer 1
100
AcDbSpline
210
0.0
220
0.0
230
1.0
 70
    11
 71
     3
 72
    48
 73
    44
 74
     0
 42
0.0000000001
 43
0.0000000001
 12
1.0
 22
0.0
 32
0.0
 13
1.0
 23
0.0
 33
0.0
 40
0.0
 40
0.0
 40
0.0
 40
0.0
 40
0.0833333333333333
 40
0.0833333333333333
 40
0.0833333333333333
 40
0.0833333333333333
 40
0.1666666666666667
 40
0.1666666666666667
 40
0.1666666666666667
 40
0.1666666666666667
 40
0.25
 40
0.25
 40
0.25
 40
0.25
 40
0.3333333333333333
 40
0.3333333333333333
 40
0.3333333333333333
 40
0.3333333333333333
 40
0.4166666666666667
 40
0.4166666666666667
 40
0.4166666666666667
 40
0.4166666666666667
 40
0.5
 40
0.5
 40
0.5
 40
0.5
 40
0.5833333333333334
 40
0.5833333333333334
 40
0.5833333333333334
 40
0.5833333333333334
 40
0.6666666666666666
 40
0.6666666666666666
 40
0.6666666666666666
 40
0.6666666666666666
 40
0.75
 40
0.75
 40
0.75
 40
0.75
 40
0.8333333333333334
 40
0.8333333333333334
 40
0.8333333333333334
 40
0.8333333333333334
 40
1.0
 40
1.0
 40
1.0
 40
1.0
 10
-5.21175
 20
13.17044
 30
0.0
 10
-5.21175
 20
13.17044
 30
0.0
 10
-5.21175
 20
13.29681
 30
0.0
 10
-5.21175
 20
13.29681
 30
0.0
 10
-5.21175
 20
13.29681
 30
0.0
 10
-5.26149
 20
13.2024
 30
0.0
 10
-5.33642
 20
13.1552
 30
0.0
 10
-5.43654
 20
13.1552
 30
0.0
 10
-5.43654
 20
13.1552
 30
0.0
 10
-5.51782
 20
13.1552
 30
0.0
 10
-5.58174
 20
13.18462
 30
0.0
 10
-5.62831
 20
13.24368
 30
0.0
 10
-5.62831
 20
13.24368
 30
0.0
 10
-5.67488
 20
13.30273
 30
0.0
 10
-5.69816
 20
13.38338
 30
0.0
 10
-5.69816
 20
13.48561
 30
0.0
 10
-5.69816
 20
13.48561
 30
0.0
 10
-5.69816
 20
13.59737
 30
0.0
 10
-5.6717
 20
13.68733
 30
0.0
 10
-5.619
 20
13.75549
 30
0.0
 10
-5.619
 20
13.75549
 30
0.0
 10
-5.56608
 20
13.82343
 30
0.0
 10
-5.49665
 20
13.85751
 30
0.0
 10
-5.4105
 20
13.85751
 30
0.0
 10
-5.4105
 20
13.85751
 30
0.0
 10
-5.33071
 20
13.85751
 30
0.0
 10
-5.26424
 20
13.82703
 30
0.0
 10
-5.21175
 20
13.76586
 30
0.0
 10
-5.21175
 20
13.76586
 30
0.0
 10
-5.21175
 20
13.76586
 30
0.0
 10
-5.21175
 20
14.14961
 30
0.0
 10
-5.21175
 20
14.14961
 30
0.0
 10
-5.21175
 20
14.14961
 30
0.0
 10
-5.21175
 20
14.14961
 30
0.0
 10
-5.08983
 20
14.14961
 30
0.0
 10
-5.08983
 20
14.14961
 30
0.0
 10
-5.08983
 20
14.14961
 30
0.0
 10
-5.08983
 20
14.14961
 30
0.0
 10
-5.08983
 20
13.17044
 30
0.0
 10
-5.08983
 20
13.17044
 30
0.0
 10
-5.08983
 20
13.17044
 30
0.0
 10
-5.08983
 20
13.17044
 30
0.0
 10
-5.21175
 20
13.17044
 30
0.0
 10
-5.21175
 20
13.17044
 30
0.0
  0
SPLINE
  5
4F
330
1F
100
AcDbEntity
  8
Layer 1
100
AcDbSpline
210
0.0
220
0.0
230
1.0
 70
    11
 71
     3
 72
    28
 73
    24
 74
     0
 42
0.0000000001
 43
0.0000000001
 12
1.0
 22
0.0
 32
0.0
 13
1.0
 23
0.0
 33
0.0
 40
0.0
 40
0.0
 40
0.0
 40
0.0
 40
0.1428571428571428
 40
0.1428571428571428
 40
0.1428571428571428
 40
0.1428571428571428
 40
0.2857142857142857
 40
0.2857142857142857
 40
0.2857142857142857
 40
0.2857142857142857
 40
0.4285714285714285
 40
0.4285714285714285
 40
0.4285714285714285
 40
0.4285714285714285
 40
0.5714285714285714
 40
0.5714285714285714
 40
0.5714285714285714
 40
0.5714285714285714
 40
0.7142857142857143
 40
0.7142857142857143
 40
0.7142857142857143
 40
0.7142857142857143
 40
1.0
 40
1.0
 40
1.0
 40
1.0
 10
-5.21175
 20
13.68246
 30
0.0
 10
-5.27504
 20
13.73813
 30
0.0
 10
-5.33494
 20
13.76607
 30
0.0
 10
-5.39167
 20
13.76607
 30
0.0
 10
-5.39167
 20
13.76607
 30
0.0
 10
-5.44755
 20
13.76607
 30
0.0
 10
-5.49073
 20
13.74279
 30
0.0
 10
-5.52142
 20
13.69601
 30
0.0
 10
-5.52142
 20
13.69601
 30
0.0
 10
-5.55211
 20
13.64944
 30
0.0
 10
-5.56735
 20
13.5834
 30
0.0
 10
-5.56735
 20
13.49789
 30
0.0
 10
-5.56735
 20
13.49789
 30
0.0
 10
-5.56735
 20
13.34062
 30
0.0
 10
-5.51528
 20
13.26188
 30
0.0
 10
-5.41093
 20
13.26188
 30
0.0
 10
-5.41093
 20
13.26188
 30
0.0
 10
-5.34319
 20
13.26188
 30
0.0
 10
-5.27673
 20
13.29892
 30
0.0
 10
-5.21175
 20
13.37279
 30
0.0
 10
-5.21175
 20
13.37279
 30
0.0
 10
-5.21175
 20
13.37279
 30
0.0
 10
-5.21175
 20
13.68246
 30
0.0
 10
-5.21175
 20
13.68246
 30
0.0
  0
SPLINE
  5
50
330
1F
100
AcDbEntity
  8
Layer 1
100
AcDbSpline
210
0.0
220
0.0
230
1.0
 70
    11
 71
     3
 72
    52
 73
    48
 74
     0
 42
0.0000000001
 43
0.0000000001
 12
1.0
 22
0.0
 32
0.0
 13
1.0
 23
0.0
 33
0.0
 40
0.0
 40
0.0
 40
0.0
 40
0.0
 40
0.0769230769230769
 40
0.0769230769230769
 40
0.0769230769230769
 40
0.0769230769230769
 40
0.1538461538461539
 40
0.1538461538461539
 40
0.1538461538461539
 40
0.1538461538461539
 40
0.2307692307692308
 40
0.2307692307692308
 40
0.2307692307692308
 40
0.2307692307692308
 40
0.3076923076923077
 40
0.3076923076923077
 40
0.3076923076923077
 40
0.3076923076923077
 40
0.3846153846153846
 40
0.3846153846153846
 40
0.3846153846153846
 40
0.3846153846153846
 40
0.4615384615384616
 40
0.4615384615384616
 40
0.4615384615384616
 40
0.4615384615384616
 40
0.5384615384615384
 40
0.5384615384615384
 40
0.5384615384615384
 40
0.5384615384615384
 40
0.6153846153846154
 40
0.6153846153846154
 40
0.6153846153846154
 40
0.6153846153846154
 40
0.6923076923076923
 40
0.6923076923076923
 40
0.6923076923076923
 40
0.6923076923076923
 40
0.7692307692307693
 40
0.7692307692307693
 40
0.7692307692307693
 40
0.7692307692307693
 40
0.8461538461538461
 40
0.8461538461538461
 40
0.8461538461538461
 40
0.8461538461538461
 40
1.0
 40
1.0
 40
1.0
 40
1.0
 10
-4.35154
 20
13.19203
 30
0.0
 10
-4.43345
 20
13.16748
 30
0.0
 10
-4.50352
 20
13.1552
 30
0.0
 10
-4.56194
 20
13.1552
 30
0.0
 10
-4.56194
 20
13.1552
 30
0.0
 10
-4.66163
 20
13.1552
 30
0.0
 10
-4.7427
 20
13.18822
 30
0.0
 10
-4.80514
 20
13.25405
 30
0.0
 10
-4.80514
 20
13.25405
 30
0.0
 10
-4.86758
 20
13.31988
 30
0.0
 10
-4.89891
 20
13.40518
 30
0.0
 10
-4.89891
 20
13.51017
 30
0.0
 10
-4.89891
 20
13.51017
 30
0.0
 10
-4.89891
 20
13.61198
 30
0.0
 10
-4.87139
 20
13.69559
 30
0.0
 10
-4.81615
 20
13.76099
 30
0.0
 10
-4.81615
 20
13.76099
 30
0.0
 10
-4.7609
 20
13.82618
 30
0.0
 10
-4.69021
 20
13.85878
 30
0.0
 10
-4.60406
 20
13.85878
 30
0.0
 10
-4.60406
 20
13.85878
 30
0.0
 10
-4.52257
 20
13.85878
 30
0.0
 10
-4.45949
 20
13.82978
 30
0.0
 10
-4.41504
 20
13.77179
 30
0.0
 10
-4.41504
 20
13.77179
 30
0.0
 10
-4.37059
 20
13.71379
 30
0.0
 10
-4.34836
 20
13.63166
 30
0.0
 10
-4.34836
 20
13.52519
 30
0.0
 10
-4.34836
 20
13.52519
 30
0.0
 10
-4.34836
 20
13.52519
 30
0.0
 10
-4.349
 20
13.48794
 30
0.0
 10
-4.349
 20
13.48794
 30
0.0
 10
-4.349
 20
13.48794
 30
0.0
 10
-4.349
 20
13.48794
 30
0.0
 10
-4.77445
 20
13.48794
 30
0.0
 10
-4.77445
 20
13.48794
 30
0.0
 10
-4.77445
 20
13.48794
 30
0.0
 10
-4.75667
 20
13.32707
 30
0.0
 10
-4.67814
 20
13.24664
 30
0.0
 10
-4.53908
 20
13.24664
 30
0.0
 10
-4.53908
 20
13.24664
 30
0.0
 10
-4.48806
 20
13.24664
 30
0.0
 10
-4.42562
 20
13.26103
 30
0.0
 10
-4.35154
 20
13.28982
 30
0.0
 10
-4.35154
 20
13.28982
 30
0.0
 10
-4.35154
 20
13.28982
 30
0.0
 10
-4.35154
 20
13.19203
 30
0.0
 10
-4.35154
 20
13.19203
 30
0.0
  0
SPLINE
  5
51
330
1F
100
AcDbEntity
  8
Layer 1
100
AcDbSpline
210
0.0
220
0.0
230
1.0
 70
    11
 71
     3
 72
    16
 73
    12
 74
     0
 42
0.0000000001
 43
0.0000000001
 12
1.0
 22
0.0
 32
0.0
 13
1.0
 23
0.0
 33
0.0
 40
0.0
 40
0.0
 40
0.0
 40
0.0
 40
0.25
 40
0.25
 40
0.25
 40
0.25
 40
0.5
 40
0.5
 40
0.5
 40
0.5
 40
1.0
 40
1.0
 40
1.0
 40
1.0
 10
-4.7681
 20
13.57938
 30
0.0
 10
-4.7681
 20
13.57938
 30
0.0
 10
-4.47092
 20
13.57938
 30
0.0
 10
-4.47092
 20
13.57938
 30
0.0
 10
-4.47092
 20
13.57938
 30
0.0
 10
-4.47092
 20
13.70469
 30
0.0
 10
-4.5177
 20
13.76734
 30
0.0
 10
-4.61104
 20
13.76734
 30
0.0
 10
-4.61104
 20
13.76734
 30
0.0
 10
-4.70502
 20
13.76734
 30
0.0
 10
-4.7573
 20
13.70469
 30
0.0
 10
-4.7681
 20
13.57938
 30
0.0
  0
SPLINE
  5
52
330
1F
100
AcDbEntity
  8
Layer 1
100
AcDbSpline
210
0.0
220
0.0
230
1.0
 70
    11
 71
     3
 72
    60
 73
    56
 74
     0
 42
0.0000000001
 43
0.0000000001
 12
1.0
 22
0.0
 32
0.0
 13
1.0
 23
0.0
 33
0.0
 40
0.0
 40
0.0
 40
0.0
 40
0.0
 40
0.0666666666666667
 40
0.0666666666666667
 40
0.0666666666666667
 40
0.0666666666666667
 40
0.1333333333333333
 40
0.1333333333333333
 40
0.1333333333333333
 40
0.1333333333333333
 40
0.2
 40
0.2
 40
0.2
 40
0.2
 40
0.2666666666666667
 40
0.2666666666666667
 40
0.2666666666666667
 40
0.2666666666666667
 40
0.3333333333333333
 40
0.3333333333333333
 40
0.3333333333333333
 40
0.3333333333333333
 40
0.4
 40
0.4
 40
0.4
 40
0.4
 40
0.4666666666666667
 40
0.4666666666666667
 40
0.4666666666666667
 40
0.4666666666666667
 40
0.5333333333333333
 40
0.5333333333333333
 40
0.5333333333333333
 40
0.5333333333333333
 40
0.6
 40
0.6
 40
0.6
 40
0.6
 40
0.6666666666666666
 40
0.6666666666666666
 40
0.6666666666666666
 40
0.6666666666666666
 40
0.7333333333333333
 40
0.7333333333333333
 40
0.7333333333333333
 40
0.7333333333333333
 40
0.8
 40
0.8
 40
0.8
 40
0.8
 40
0.8666666666666667
 40
0.8666666666666667
 40
0.8666666666666667
 40
0.8666666666666667
 40
1.0
 40
1.0
 40
1.0
 40
1.0
 10
-3.67061
 20
13.19076
 30
0.0
 10
-3.74956
 20
13.16705
 30
0.0
 10
-3.81772
 20
13.1552
 30
0.0
 10
-3.87508
 20
13.1552
 30
0.0
 10
-3.87508
 20
13.1552
 30
0.0
 10
-3.9661
 20
13.1552
 30
0.0
 10
-4.04145
 20
13.18886
 30
0.0
 10
-4.10135
 20
13.25595
 30
0.0
 10
-4.10135
 20
13.25595
 30
0.0
 10
-4.16125
 20
13.32326
 30
0.0
 10
-4.19131
 20
13.40814
 30
0.0
 10
-4.19131
 20
13.51038
 30
0.0
 10
-4.19131
 20
13.51038
 30
0.0
 10
-4.19131
 20
13.6196
 30
0.0
 10
-4.16168
 20
13.7049
 30
0.0
 10
-4.10241
 20
13.76586
 30
0.0
 10
-4.10241
 20
13.76586
 30
0.0
 10
-4.04314
 20
13.82703
 30
0.0
 10
-3.96038
 20
13.85751
 30
0.0
 10
-3.85412
 20
13.85751
 30
0.0
 10
-3.85412
 20
13.85751
 30
0.0
 10
-3.80184
 20
13.85751
 30
0.0
 10
-3.743
 20
13.85031
 30
0.0
 10
-3.67823
 20
13.83592
 30
0.0
 10
-3.67823
 20
13.83592
 30
0.0
 10
-3.67823
 20
13.83592
 30
0.0
 10
-3.67823
 20
13.73305
 30
0.0
 10
-3.67823
 20
13.73305
 30
0.0
 10
-3.67823
 20
13.73305
 30
0.0
 10
-3.74702
 20
13.75337
 30
0.0
 10
-3.80311
 20
13.76353
 30
0.0
 10
-3.84629
 20
13.76353
 30
0.0
 10
-3.84629
 20
13.76353
 30
0.0
 10
-3.90895
 20
13.76353
 30
0.0
 10
-3.95911
 20
13.74004
 30
0.0
 10
-3.99658
 20
13.69326
 30
0.0
 10
-3.99658
 20
13.69326
 30
0.0
 10
-4.03404
 20
13.64648
 30
0.0
 10
-4.05288
 20
13.58404
 30
0.0
 10
-4.05288
 20
13.50614
 30
0.0
 10
-4.05288
 20
13.50614
 30
0.0
 10
-4.05288
 20
13.43058
 30
0.0
 10
-4.03341
 20
13.36962
 30
0.0
 10
-3.99467
 20
13.32284
 30
0.0
 10
-3.99467
 20
13.32284
 30
0.0
 10
-3.95594
 20
13.27627
 30
0.0
 10
-3.90535
 20
13.25299
 30
0.0
 10
-3.84248
 20
13.25299
 30
0.0
 10
-3.84248
 20
13.25299
 30
0.0
 10
-3.78681
 20
13.25299
 30
0.0
 10
-3.72966
 20
13.26738
 30
0.0
 10
-3.67061
 20
13.29617
 30
0.0
 10
-3.67061
 20
13.29617
 30
0.0
 10
-3.67061
 20
13.29617
 30
0.0
 10
-3.67061
 20
13.19076
 30
0.0
 10
-3.67061
 20
13.19076
 30
0.0
  0
SPLINE
  5
53
330
1F
100
AcDbEntity
  8
Layer 1
100
AcDbSpline
210
0.0
220
0.0
230
1.0
 70
    11
 71
     3
 72
    36
 73
    32
 74
     0
 42
0.0000000001
 43
0.0000000001
 12
1.0
 22
0.0
 32
0.0
 13
1.0
 23
0.0
 33
0.0
 40
0.0
 40
0.0
 40
0.0
 40
0.0
 40
0.1111111111111111
 40
0.1111111111111111
 40
0.1111111111111111
 40
0.1111111111111111
 40
0.2222222222222222
 40
0.2222222222222222
 40
0.2222222222222222
 40
0.2222222222222222
 40
0.3333333333333333
 40
0.3333333333333333
 40
0.3333333333333333
 40
0.3333333333333333
 40
0.4444444444444444
 40
0.4444444444444444
 40
0.4444444444444444
 40
0.4444444444444444
 40
0.5555555555555556
 40
0.5555555555555556
 40
0.5555555555555556
 40
0.5555555555555556
 40
0.6666666666666666
 40
0.6666666666666666
 40
0.6666666666666666
 40
0.6666666666666666
 40
0.7777777777777778
 40
0.7777777777777778
 40
0.7777777777777778
 40
0.7777777777777778
 40
1.0
 40
1.0
 40
1.0
 40
1.0
 10
-3.21955
 20
13.1552
 30
0.0
 10
-3.3184
 20
13.1552
 30
0.0
 10
-3.39671
 20
13.18674
 30
0.0
 10
-3.45429
 20
13.24982
 30
0.0
 10
-3.45429
 20
13.24982
 30
0.0
 10
-3.51207
 20
13.31289
 30
0.0
 10
-3.54086
 20
13.39862
 30
0.0
 10
-3.54086
 20
13.50678
 30
0.0
 10
-3.54086
 20
13.50678
 30
0.0
 10
-3.54086
 20
13.61473
 30
0.0
 10
-3.51207
 20
13.70024
 30
0.0
 10
-3.45429
 20
13.76311
 30
0.0
 10
-3.45429
 20
13.76311
 30
0.0
 10
-3.39671
 20
13.82597
 30
0.0
 10
-3.3184
 20
13.85751
 30
0.0
 10
-3.21955
 20
13.85751
 30
0.0
 10
-3.21955
 20
13.85751
 30
0.0
 10
-3.1207
 20
13.85751
 30
0.0
 10
-3.04238
 20
13.82597
 30
0.0
 10
-2.98481
 20
13.76311
 30
0.0
 10
-2.98481
 20
13.76311
 30
0.0
 10
-2.92703
 20
13.70024
 30
0.0
 10
-2.89824
 20
13.61473
 30
0.0
 10
-2.89824
 20
13.50678
 30
0.0
 10
-2.89824
 20
13.50678
 30
0.0
 10
-2.89824
 20
13.39862
 30
0.0
 10
-2.92703
 20
13.31289
 30
0.0
 10
-2.98481
 20
13.24982
 30
0.0
 10
-2.98481
 20
13.24982
 30
0.0
 10
-3.04238
 20
13.18674
 30
0.0
 10
-3.1207
 20
13.1552
 30
0.0
 10
-3.21955
 20
13.1552
 30
0.0
  0
SPLINE
  5
54
330
1F
100
AcDbEntity
  8
Layer 1
100
AcDbSpline
210
0.0
220
0.0
230
1.0
 70
    11
 71
     3
 72
    36
 73
    32
 74
     0
 42
0.0000000001
 43
0.0000000001
 12
1.0
 22
0.0
 32
0.0
 13
1.0
 23
0.0
 33
0.0
 40
0.0
 40
0.0
 40
0.0
 40
0.0
 40
0.1111111111111111
 40
0.1111111111111111
 40
0.1111111111111111
 40
0.1111111111111111
 40
0.2222222222222222
 40
0.2222222222222222
 40
0.2222222222222222
 40
0.2222222222222222
 40
0.3333333333333333
 40
0.3333333333333333
 40
0.3333333333333333
 40
0.3333333333333333
 40
0.4444444444444444
 40
0.4444444444444444
 40
0.4444444444444444
 40
0.4444444444444444
 40
0.5555555555555556
 40
0.5555555555555556
 40
0.5555555555555556
 40
0.5555555555555556
 40
0.6666666666666666
 40
0.6666666666666666
 40
0.6666666666666666
 40
0.6666666666666666
 40
0.7777777777777778
 40
0.7777777777777778
 40
0.7777777777777778
 40
0.7777777777777778
 40
1.0
 40
1.0
 40
1.0
 40
1.0
 10
-3.21976
 20
13.24664
 30
0.0
 10
-3.15944
 20
13.24664
 30
0.0
 10
-3.11245
 20
13.26929
 30
0.0
 10
-3.079
 20
13.3148
 30
0.0
 10
-3.079
 20
13.3148
 30
0.0
 10
-3.04577
 20
13.36009
 30
0.0
 10
-3.02905
 20
13.42423
 30
0.0
 10
-3.02905
 20
13.50678
 30
0.0
 10
-3.02905
 20
13.50678
 30
0.0
 10
-3.02905
 20
13.58912
 30
0.0
 10
-3.04577
 20
13.65304
 30
0.0
 10
-3.079
 20
13.69834
 30
0.0
 10
-3.079
 20
13.69834
 30
0.0
 10
-3.11245
 20
13.74342
 30
0.0
 10
-3.15944
 20
13.76607
 30
0.0
 10
-3.21976
 20
13.76607
 30
0.0
 10
-3.21976
 20
13.76607
 30
0.0
 10
-3.2803
 20
13.76607
 30
0.0
 10
-3.32729
 20
13.74342
 30
0.0
 10
-3.36031
 20
13.69834
 30
0.0
 10
-3.36031
 20
13.69834
 30
0.0
 10
-3.39354
 20
13.65304
 30
0.0
 10
-3.41005
 20
13.58912
 30
0.0
 10
-3.41005
 20
13.50678
 30
0.0
 10
-3.41005
 20
13.50678
 30
0.0
 10
-3.41005
 20
13.42423
 30
0.0
 10
-3.39354
 20
13.36009
 30
0.0
 10
-3.36031
 20
13.3148
 30
0.0
 10
-3.36031
 20
13.3148
 30
0.0
 10
-3.32729
 20
13.26929
 30
0.0
 10
-3.2803
 20
13.24664
 30
0.0
 10
-3.21976
 20
13.24664
 30
0.0
  0
SPLINE
  5
55
330
1F
100
AcDbEntity
  8
Layer 1
100
AcDbSpline
210
0.0
220
0.0
230
1.0
 70
    11
 71
     3
 72
    44
 73
    40
 74
     0
 42
0.0000000001
 43
0.0000000001
 12
1.0
 22
0.0
 32
0.0
 13
1.0
 23
0.0
 33
0.0
 40
0.0
 40
0.0
 40
0.0
 40
0.0
 40
0.0909090909090909
 40
0.0909090909090909
 40
0.0909090909090909
 40
0.0909090909090909
 40
0.1818181818181818
 40
0.1818181818181818
 40
0.1818181818181818
 40
0.1818181818181818
 40
0.2727272727272727
 40
0.2727272727272727
 40
0.2727272727272727
 40
0.2727272727272727
 40
0.3636363636363636
 40
0.3636363636363636
 40
0.3636363636363636
 40
0.3636363636363636
 40
0.4545454545454545
 40
0.4545454545454545
 40
0.4545454545454545
 40
0.4545454545454545
 40
0.5454545454545454
 40
0.5454545454545454
 40
0.5454545454545454
 40
0.5454545454545454
 40
0.6363636363636364
 40
0.6363636363636364
 40
0.6363636363636364
 40
0.6363636363636364
 40
0.7272727272727273
 40
0.7272727272727273
 40
0.7272727272727273
 40
0.7272727272727273
 40
0.8181818181818182
 40
0.8181818181818182
 40
0.8181818181818182
 40
0.8181818181818182
 40
1.0
 40
1.0
 40
1.0
 40
1.0
 10
-2.70732
 20
13.17044
 30
0.0
 10
-2.70732
 20
13.17044
 30
0.0
 10
-2.70732
 20
13.84354
 30
0.0
 10
-2.70732
 20
13.84354
 30
0.0
 10
-2.70732
 20
13.84354
 30
0.0
 10
-2.70732
 20
13.84354
 30
0.0
 10
-2.5854
 20
13.84354
 30
0.0
 10
-2.5854
 20
13.84354
 30
0.0
 10
-2.5854
 20
13.84354
 30
0.0
 10
-2.5854
 20
13.84354
 30
0.0
 10
-2.5854
 20
13.71633
 30
0.0
 10
-2.5854
 20
13.71633
 30
0.0
 10
-2.5854
 20
13.71633
 30
0.0
 10
-2.53693
 20
13.81052
 30
0.0
 10
-2.46665
 20
13.85751
 30
0.0
 10
-2.37437
 20
13.85751
 30
0.0
 10
-2.37437
 20
13.85751
 30
0.0
 10
-2.36188
 20
13.85751
 30
0.0
 10
-2.34876
 20
13.85645
 30
0.0
 10
-2.33521
 20
13.85434
 30
0.0
 10
-2.33521
 20
13.85434
 30
0.0
 10
-2.33521
 20
13.85434
 30
0.0
 10
-2.33521
 20
13.74025
 30
0.0
 10
-2.33521
 20
13.74025
 30
0.0
 10
-2.33521
 20
13.74025
 30
0.0
 10
-2.35638
 20
13.74723
 30
0.0
 10
-2.375
 20
13.75083
 30
0.0
 10
-2.39109
 20
13.75083
 30
0.0
 10
-2.39109
 20
13.75083
 30
0.0
 10
-2.46856
 20
13.75083
 30
0.0
 10
-2.53333
 20
13.70511
 30
0.0
 10
-2.5854
 20
13.61346
 30
0.0
 10
-2.5854
 20
13.61346
 30
0.0
 10
-2.5854
 20
13.61346
 30
0.0
 10
-2.5854
 20
13.17044
 30
0.0
 10
-2.5854
 20
13.17044
 30
0.0
 10
-2.5854
 20
13.17044
 30
0.0
 10
-2.5854
 20
13.17044
 30
0.0
 10
-2.70732
 20
13.17044
 30
0.0
 10
-2.70732
 20
13.17044
 30
0.0
  0
SPLINE
  5
56
330
1F
100
AcDbEntity
  8
Layer 1
100
AcDbSpline
210
0.0
220
0.0
230
1.0
 70
    11
 71
     3
 72
    80
 73
    76
 74
     0
 42
0.0000000001
 43
0.0000000001
 12
1.0
 22
0.0
 32
0.0
 13
1.0
 23
0.0
 33
0.0
 40
0.0
 40
0.0
 40
0.0
 40
0.0
 40
0.05
 40
0.05
 40
0.05
 40
0.05
 40
0.1
 40
0.1
 40
0.1
 40
0.1
 40
0.15
 40
0.15
 40
0.15
 40
0.15
 40
0.2
 40
0.2
 40
0.2
 40
0.2
 40
0.25
 40
0.25
 40
0.25
 40
0.25
 40
0.3
 40
0.3
 40
0.3
 40
0.3
 40
0.35
 40
0.35
 40
0.35
 40
0.35
 40
0.4
 40
0.4
 40
0.4
 40
0.4
 40
0.45
 40
0.45
 40
0.45
 40
0.45
 40
0.5
 40
0.5
 40
0.5
 40
0.5
 40
0.55
 40
0.55
 40
0.55
 40
0.55
 40
0.6
 40
0.6
 40
0.6
 40
0.6
 40
0.65
 40
0.65
 40
0.65
 40
0.65
 40
0.7
 40
0.7
 40
0.7
 40
0.7
 40
0.75
 40
0.75
 40
0.75
 40
0.75
 40
0.8
 40
0.8
 40
0.8
 40
0.8
 40
0.85
 40
0.85
 40
0.85
 40
0.85
 40
0.9
 40
0.9
 40
0.9
 40
0.9
 40
1.0
 40
1.0
 40
1.0
 40
1.0
 10
-1.84076
 20
13.25617
 30
0.0
 10
-1.91399
 20
13.18886
 30
0.0
 10
-1.98448
 20
13.1552
 30
0.0
 10
-2.05221
 20
13.1552
 30
0.0
 10
-2.05221
 20
13.1552
 30
0.0
 10
-2.10788
 20
13.1552
 30
0.0
 10
-2.15424
 20
13.17256
 30
0.0
 10
-2.19085
 20
13.20748
 30
0.0
 10
-2.19085
 20
13.20748
 30
0.0
 10
-2.22768
 20
13.24241
 30
0.0
 10
-2.2461
 20
13.28643
 30
0.0
 10
-2.2461
 20
13.33956
 30
0.0
 10
-2.2461
 20
13.33956
 30
0.0
 10
-2.2461
 20
13.41301
 30
0.0
 10
-2.2152
 20
13.46953
 30
0.0
 10
-2.15339
 20
13.5089
 30
0.0
 10
-2.15339
 20
13.5089
 30
0.0
 10
-2.09158
 20
13.54827
 30
0.0
 10
-2.00289
 20
13.56795
 30
0.0
 10
-1.88732
 20
13.56795
 30
0.0
 10
-1.88732
 20
13.56795
 30
0.0
 10
-1.88732
 20
13.56795
 30
0.0
 10
-1.85875
 20
13.56795
 30
0.0
 10
-1.85875
 20
13.56795
 30
0.0
 10
-1.85875
 20
13.56795
 30
0.0
 10
-1.85875
 20
13.56795
 30
0.0
 10
-1.85875
 20
13.64902
 30
0.0
 10
-1.85875
 20
13.64902
 30
0.0
 10
-1.85875
 20
13.64902
 30
0.0
 10
-1.85875
 20
13.72712
 30
0.0
 10
-1.89939
 20
13.76607
 30
0.0
 10
-1.98088
 20
13.76607
 30
0.0
 10
-1.98088
 20
13.76607
 30
0.0
 10
-2.04396
 20
13.76607
 30
0.0
 10
-2.11296
 20
13.74617
 30
0.0
 10
-2.18768
 20
13.70638
 30
0.0
 10
-2.18768
 20
13.70638
 30
0.0
 10
-2.18768
 20
13.70638
 30
0.0
 10
-2.18768
 20
13.80671
 30
0.0
 10
-2.18768
 20
13.80671
 30
0.0
 10
-2.18768
 20
13.80671
 30
0.0
 10
-2.10555
 20
13.84058
 30
0.0
 10
-2.02808
 20
13.85751
 30
0.0
 10
-1.95548
 20
13.85751
 30
0.0
 10
-1.95548
 20
13.85751
 30
0.0
 10
-1.88076
 20
13.85751
 30
0.0
 10
-1.82552
 20
13.84058
 30
0.0
 10
-1.79017
 20
13.8065
 30
0.0
 10
-1.79017
 20
13.8065
 30
0.0
 10
-1.75461
 20
13.77242
 30
0.0
 10
-1.73683
 20
13.71993
 30
0.0
 10
-1.73683
 20
13.64902
 30
0.0
 10
-1.73683
 20
13.64902
 30
0.0
 10
-1.73683
 20
13.64902
 30
0.0
 10
-1.73683
 20
13.34485
 30
0.0
 10
-1.73683
 20
13.34485
 30
0.0
 10
-1.73683
 20
13.34485
 30
0.0
 10
-1.73683
 20
13.27522
 30
0.0
 10
-1.71545
 20
13.24029
 30
0.0
 10
-1.67248
 20
13.24029
 30
0.0
 10
-1.67248
 20
13.24029
 30
0.0
 10
-1.66719
 20
13.24029
 30
0.0
 10
-1.65936
 20
13.24114
 30
0.0
 10
-1.64899
 20
13.24283
 30
0.0
 10
-1.64899
 20
13.24283
 30
0.0
 10
-1.64899
 20
13.24283
 30
0.0
 10
-1.64031
 20
13.1751
 30
0.0
 10
-1.64031
 20
13.1751
 30
0.0
 10
-1.64031
 20
13.1751
 30
0.0
 10
-1.66804
 20
13.16176
 30
0.0
 10
-1.69852
 20
13.1552
 30
0.0
 10
-1.73196
 20
13.1552
 30
0.0
 10
-1.73196
 20
13.1552
 30
0.0
 10
-1.7889
 20
13.1552
 30
0.0
 10
-1.82509
 20
13.18886
 30
0.0
 10
-1.84076
 20
13.25617
 30
0.0
  0
SPLINE
  5
57
330
1F
100
AcDbEntity
  8
Layer 1
100
AcDbSpline
210
0.0
220
0.0
230
1.0
 70
    11
 71
     3
 72
    32
 73
    28
 74
     0
 42
0.0000000001
 43
0.0000000001
 12
1.0
 22
0.0
 32
0.0
 13
1.0
 23
0.0
 33
0.0
 40
0.0
 40
0.0
 40
0.0
 40
0.0
 40
0.125
 40
0.125
 40
0.125
 40
0.125
 40
0.25
 40
0.25
 40
0.25
 40
0.25
 40
0.375
 40
0.375
 40
0.375
 40
0.375
 40
0.5
 40
0.5
 40
0.5
 40
0.5
 40
0.625
 40
0.625
 40
0.625
 40
0.625
 40
0.75
 40
0.75
 40
0.75
 40
0.75
 40
1.0
 40
1.0
 40
1.0
 40
1.0
 10
-1.85875
 20
13.32263
 30
0.0
 10
-1.85875
 20
13.32263
 30
0.0
 10
-1.85875
 20
13.49556
 30
0.0
 10
-1.85875
 20
13.49556
 30
0.0
 10
-1.85875
 20
13.49556
 30
0.0
 10
-1.85875
 20
13.49556
 30
0.0
 10
-1.89791
 20
13.49683
 30
0.0
 10
-1.89791
 20
13.49683
 30
0.0
 10
-1.89791
 20
13.49683
 30
0.0
 10
-1.96564
 20
13.49683
 30
0.0
 10
-2.02025
 20
13.48434
 30
0.0
 10
-2.06195
 20
13.45937
 30
0.0
 10
-2.06195
 20
13.45937
 30
0.0
 10
-2.10344
 20
13.43418
 30
0.0
 10
-2.12418
 20
13.40095
 30
0.0
 10
-2.12418
 20
13.35946
 30
0.0
 10
-2.12418
 20
13.35946
 30
0.0
 10
-2.12418
 20
13.33046
 30
0.0
 10
-2.11381
 20
13.30591
 30
0.0
 10
-2.09328
 20
13.2858
 30
0.0
 10
-2.09328
 20
13.2858
 30
0.0
 10
-2.07253
 20
13.26569
 30
0.0
 10
-2.04734
 20
13.25553
 30
0.0
 10
-2.0175
 20
13.25553
 30
0.0
 10
-2.0175
 20
13.25553
 30
0.0
 10
-1.9667
 20
13.25553
 30
0.0
 10
-1.91378
 20
13.27797
 30
0.0
 10
-1.85875
 20
13.32263
 30
0.0
  0
SPLINE
  5
58
330
1F
100
AcDbEntity
  8
Layer 1
100
AcDbSpline
210
0.0
220
0.0
230
1.0
 70
    11
 71
     3
 72
    72
 73
    68
 74
     0
 42
0.0000000001
 43
0.0000000001
 12
1.0
 22
0.0
 32
0.0
 13
1.0
 23
0.0
 33
0.0
 40
0.0
 40
0.0
 40
0.0
 40
0.0
 40
0.0555555555555556
 40
0.0555555555555556
 40
0.0555555555555556
 40
0.0555555555555556
 40
0.1111111111111111
 40
0.1111111111111111
 40
0.1111111111111111
 40
0.1111111111111111
 40
0.1666666666666667
 40
0.1666666666666667
 40
0.1666666666666667
 40
0.1666666666666667
 40
0.2222222222222222
 40
0.2222222222222222
 40
0.2222222222222222
 40
0.2222222222222222
 40
0.2777777777777778
 40
0.2777777777777778
 40
0.2777777777777778
 40
0.2777777777777778
 40
0.3333333333333333
 40
0.3333333333333333
 40
0.3333333333333333
 40
0.3333333333333333
 40
0.3888888888888889
 40
0.3888888888888889
 40
0.3888888888888889
 40
0.3888888888888889
 40
0.4444444444444444
 40
0.4444444444444444
 40
0.4444444444444444
 40
0.4444444444444444
 40
0.5
 40
0.5
 40
0.5
 40
0.5
 40
0.5555555555555556
 40
0.5555555555555556
 40
0.5555555555555556
 40
0.5555555555555556
 40
0.6111111111111112
 40
0.6111111111111112
 40
0.6111111111111112
 40
0.6111111111111112
 40
0.6666666666666666
 40
0.6666666666666666
 40
0.6666666666666666
 40
0.6666666666666666
 40
0.7222222222222222
 40
0.7222222222222222
 40
0.7222222222222222
 40
0.7222222222222222
 40
0.7777777777777778
 40
0.7777777777777778
 40
0.7777777777777778
 40
0.7777777777777778
 40
0.8333333333333334
 40
0.8333333333333334
 40
0.8333333333333334
 40
0.8333333333333334
 40
0.8888888888888888
 40
0.8888888888888888
 40
0.8888888888888888
 40
0.8888888888888888
 40
1.0
 40
1.0
 40
1.0
 40
1.0
 10
-1.18544
 20
13.17065
 30
0.0
 10
-1.22312
 20
13.16028
 30
0.0
 10
-1.25592
 20
13.1552
 30
0.0
 10
-1.28365
 20
13.1552
 30
0.0
 10
-1.28365
 20
13.1552
 30
0.0
 10
-1.34588
 20
13.1552
 30
0.0
 10
-1.39435
 20
13.17298
 30
0.0
 10
-1.42907
 20
13.20854
 30
0.0
 10
-1.42907
 20
13.20854
 30
0.0
 10
-1.46399
 20
13.2441
 30
0.0
 10
-1.48135
 20
13.29342
 30
0.0
 10
-1.48135
 20
13.35671
 30
0.0
 10
-1.48135
 20
13.35671
 30
0.0
 10
-1.48135
 20
13.35671
 30
0.0
 10
-1.48135
 20
13.7521
 30
0.0
 10
-1.48135
 20
13.7521
 30
0.0
 10
-1.48135
 20
13.7521
 30
0.0
 10
-1.48135
 20
13.7521
 30
0.0
 10
-1.56559
 20
13.7521
 30
0.0
 10
-1.56559
 20
13.7521
 30
0.0
 10
-1.56559
 20
13.7521
 30
0.0
 10
-1.56559
 20
13.7521
 30
0.0
 10
-1.56559
 20
13.84354
 30
0.0
 10
-1.56559
 20
13.84354
 30
0.0
 10
-1.56559
 20
13.84354
 30
0.0
 10
-1.56559
 20
13.84354
 30
0.0
 10
-1.48135
 20
13.84354
 30
0.0
 10
-1.48135
 20
13.84354
 30
0.0
 10
-1.48135
 20
13.84354
 30
0.0
 10
-1.48135
 20
13.84354
 30
0.0
 10
-1.48135
 20
13.96525
 30
0.0
 10
-1.48135
 20
13.96525
 30
0.0
 10
-1.48135
 20
13.96525
 30
0.0
 10
-1.48135
 20
13.96525
 30
0.0
 10
-1.35943
 20
13.97689
 30
0.0
 10
-1.35943
 20
13.97689
 30
0.0
 10
-1.35943
 20
13.97689
 30
0.0
 10
-1.35943
 20
13.97689
 30
0.0
 10
-1.35943
 20
13.84354
 30
0.0
 10
-1.35943
 20
13.84354
 30
0.0
 10
-1.35943
 20
13.84354
 30
0.0
 10
-1.35943
 20
13.84354
 30
0.0
 10
-1.1829
 20
13.84354
 30
0.0
 10
-1.1829
 20
13.84354
 30
0.0
 10
-1.1829
 20
13.84354
 30
0.0
 10
-1.1829
 20
13.84354
 30
0.0
 10
-1.1829
 20
13.7521
 30
0.0
 10
-1.1829
 20
13.7521
 30
0.0
 10
-1.1829
 20
13.7521
 30
0.0
 10
-1.1829
 20
13.7521
 30
0.0
 10
-1.35943
 20
13.7521
 30
0.0
 10
-1.35943
 20
13.7521
 30
0.0
 10
-1.35943
 20
13.7521
 30
0.0
 10
-1.35943
 20
13.7521
 30
0.0
 10
-1.35943
 20
13.37872
 30
0.0
 10
-1.35943
 20
13.37872
 30
0.0
 10
-1.35943
 20
13.37872
 30
0.0
 10
-1.35943
 20
13.29067
 30
0.0
 10
-1.32112
 20
13.24664
 30
0.0
 10
-1.24471
 20
13.24664
 30
0.0
 10
-1.24471
 20
13.24664
 30
0.0
 10
-1.22841
 20
13.24664
 30
0.0
 10
-1.20872
 20
13.24939
 30
0.0
 10
-1.18544
 20
13.25468
 30
0.0
 10
-1.18544
 20
13.25468
 30
0.0
 10
-1.18544
 20
13.25468
 30
0.0
 10
-1.18544
 20
13.17065
 30
0.0
 10
-1.18544
 20
13.17065
 30
0.0
  0
SPLINE
  5
59
330
1F
100
AcDbEntity
  8
Layer 1
100
AcDbSpline
210
0.0
220
0.0
230
1.0
 70
    11
 71
     3
 72
    20
 73
    16
 74
     0
 42
0.0000000001
 43
0.0000000001
 12
1.0
 22
0.0
 32
0.0
 13
1.0
 23
0.0
 33
0.0
 40
0.0
 40
0.0
 40
0.0
 40
0.0
 40
0.2
 40
0.2
 40
0.2
 40
0.2
 40
0.4
 40
0.4
 40
0.4
 40
0.4
 40
0.6
 40
0.6
 40
0.6
 40
0.6
 40
1.0
 40
1.0
 40
1.0
 40
1.0
 10
-1.01145
 20
13.17044
 30
0.0
 10
-1.01145
 20
13.17044
 30
0.0
 10
-1.01145
 20
13.84354
 30
0.0
 10
-1.01145
 20
13.84354
 30
0.0
 10
-1.01145
 20
13.84354
 30
0.0
 10
-1.01145
 20
13.84354
 30
0.0
 10
-0.88953
 20
13.84354
 30
0.0
 10
-0.88953
 20
13.84354
 30
0.0
 10
-0.88953
 20
13.84354
 30
0.0
 10
-0.88953
 20
13.84354
 30
0.0
 10
-0.88953
 20
13.17044
 30
0.0
 10
-0.88953
 20
13.17044
 30
0.0
 10
-0.88953
 20
13.17044
 30
0.0
 10
-0.88953
 20
13.17044
 30
0.0
 10
-1.01145
 20
13.17044
 30
0.0
 10
-1.01145
 20
13.17044
 30
0.0
  0
SPLINE
  5
5A
330
1F
100
AcDbEntity
  8
Layer 1
100
AcDbSpline
210
0.0
220
0.0
230
1.0
 70
    11
 71
     3
 72
    20
 73
    16
 74
     0
 42
0.0000000001
 43
0.0000000001
 12
1.0
 22
0.0
 32
0.0
 13
1.0
 23
0.0
 33
0.0
 40
0.0
 40
0.0
 40
0.0
 40
0.0
 40
0.2
 40
0.2
 40
0.2
 40
0.2
 40
0.4
 40
0.4
 40
0.4
 40
0.4
 40
0.6
 40
0.6
 40
0.6
 40
0.6
 40
1.0
 40
1.0
 40
1.0
 40
1.0
 10
-1.01145
 20
13.96673
 30
0.0
 10
-1.01145
 20
13.96673
 30
0.0
 10
-1.01145
 20
14.08865
 30
0.0
 10
-1.01145
 20
14.08865
 30
0.0
 10
-1.01145
 20
14.08865
 30
0.0
 10
-1.01145
 20
14.08865
 30
0.0
 10
-0.88953
 20
14.08865
 30
0.0
 10
-0.88953
 20
14.08865
 30
0.0
 10
-0.88953
 20
14.08865
 30
0.0
 10
-0.88953
 20
14.08865
 30
0.0
 10
-0.88953
 20
13.96673
 30
0.0
 10
-0.88953
 20
13.96673
 30
0.0
 10
-0.88953
 20
13.96673
 30
0.0
 10
-0.88953
 20
13.96673
 30
0.0
 10
-1.01145
 20
13.96673
 30
0.0
 10
-1.01145
 20
13.96673
 30
0.0
  0
SPLINE
  5
5B
330
1F
100
AcDbEntity
  8
Layer 1
100
AcDbSpline
210
0.0
220
0.0
230
1.0
 70
    11
 71
     3
 72
    36
 73
    32
 74
     0
 42
0.0000000001
 43
0.0000000001
 12
1.0
 22
0.0
 32
0.0
 13
1.0
 23
0.0
 33
0.0
 40
0.0
 40
0.0
 40
0.0
 40
0.0
 40
0.1111111111111111
 40
0.1111111111111111
 40
0.1111111111111111
 40
0.1111111111111111
 40
0.2222222222222222
 40
0.2222222222222222
 40
0.2222222222222222
 40
0.2222222222222222
 40
0.3333333333333333
 40
0.3333333333333333
 40
0.3333333333333333
 40
0.3333333333333333
 40
0.4444444444444444
 40
0.4444444444444444
 40
0.4444444444444444
 40
0.4444444444444444
 40
0.5555555555555556
 40
0.5555555555555556
 40
0.5555555555555556
 40
0.5555555555555556
 40
0.6666666666666666
 40
0.6666666666666666
 40
0.6666666666666666
 40
0.6666666666666666
 40
0.7777777777777778
 40
0.7777777777777778
 40
0.7777777777777778
 40
0.7777777777777778
 40
1.0
 40
1.0
 40
1.0
 40
1.0
 10
-0.37645
 20
13.1552
 30
0.0
 10
-0.4753
 20
13.1552
 30
0.0
 10
-0.55361
 20
13.18674
 30
0.0
 10
-0.61119
 20
13.24982
 30
0.0
 10
-0.61119
 20
13.24982
 30
0.0
 10
-0.66897
 20
13.31289
 30
0.0
 10
-0.69776
 20
13.39862
 30
0.0
 10
-0.69776
 20
13.50678
 30
0.0
 10
-0.69776
 20
13.50678
 30
0.0
 10
-0.69776
 20
13.61473
 30
0.0
 10
-0.66897
 20
13.70024
 30
0.0
 10
-0.61119
 20
13.76311
 30
0.0
 10
-0.61119
 20
13.76311
 30
0.0
 10
-0.55361
 20
13.82597
 30
0.0
 10
-0.4753
 20
13.85751
 30
0.0
 10
-0.37645
 20
13.85751
 30
0.0
 10
-0.37645
 20
13.85751
 30
0.0
 10
-0.2776
 20
13.85751
 30
0.0
 10
-0.19928
 20
13.82597
 30
0.0
 10
-0.14171
 20
13.76311
 30
0.0
 10
-0.14171
 20
13.76311
 30
0.0
 10
-0.08393
 20
13.70024
 30
0.0
 10
-0.05514
 20
13.61473
 30
0.0
 10
-0.05514
 20
13.50678
 30
0.0
 10
-0.05514
 20
13.50678
 30
0.0
 10
-0.05514
 20
13.39862
 30
0.0
 10
-0.08393
 20
13.31289
 30
0.0
 10
-0.14171
 20
13.24982
 30
0.0
 10
-0.14171
 20
13.24982
 30
0.0
 10
-0.19928
 20
13.18674
 30
0.0
 10
-0.2776
 20
13.1552
 30
0.0
 10
-0.37645
 20
13.1552
 30
0.0
  0
SPLINE
  5
5C
330
1F
100
AcDbEntity
  8
Layer 1
100
AcDbSpline
210
0.0
220
0.0
230
1.0
 70
    11
 71
     3
 72
    36
 73
    32
 74
     0
 42
0.0000000001
 43
0.0000000001
 12
1.0
 22
0.0
 32
0.0
 13
1.0
 23
0.0
 33
0.0
 40
0.0
 40
0.0
 40
0.0
 40
0.0
 40
0.1111111111111111
 40
0.1111111111111111
 40
0.1111111111111111
 40
0.1111111111111111
 40
0.2222222222222222
 40
0.2222222222222222
 40
0.2222222222222222
 40
0.2222222222222222
 40
0.3333333333333333
 40
0.3333333333333333
 40
0.3333333333333333
 40
0.3333333333333333
 40
0.4444444444444444
 40
0.4444444444444444
 40
0.4444444444444444
 40
0.4444444444444444
 40
0.5555555555555556
 40
0.5555555555555556
 40
0.5555555555555556
 40
0.5555555555555556
 40
0.6666666666666666
 40
0.6666666666666666
 40
0.6666666666666666
 40
0.6666666666666666
 40
0.7777777777777778
 40
0.7777777777777778
 40
0.7777777777777778
 40
0.7777777777777778
 40
1.0
 40
1.0
 40
1.0
 40
1.0
 10
-0.37666
 20
13.24664
 30
0.0
 10
-0.31634
 20
13.24664
 30
0.0
 10
-0.26935
 20
13.26929
 30
0.0
 10
-0.2359
 20
13.3148
 30
0.0
 10
-0.2359
 20
13.3148
 30
0.0
 10
-0.20267
 20
13.36009
 30
0.0
 10
-0.18595
 20
13.42423
 30
0.0
 10
-0.18595
 20
13.50678
 30
0.0
 10
-0.18595
 20
13.50678
 30
0.0
 10
-0.18595
 20
13.58912
 30
0.0
 10
-0.20267
 20
13.65304
 30
0.0
 10
-0.2359
 20
13.69834
 30
0.0
 10
-0.2359
 20
13.69834
 30
0.0
 10
-0.26935
 20
13.74342
 30
0.0
 10
-0.31634
 20
13.76607
 30
0.0
 10
-0.37666
 20
13.76607
 30
0.0
 10
-0.37666
 20
13.76607
 30
0.0
 10
-0.4372
 20
13.76607
 30
0.0
 10
-0.48419
 20
13.74342
 30
0.0
 10
-0.51721
 20
13.69834
 30
0.0
 10
-0.51721
 20
13.69834
 30
0.0
 10
-0.55044
 20
13.65304
 30
0.0
 10
-0.56695
 20
13.58912
 30
0.0
 10
-0.56695
 20
13.50678
 30
0.0
 10
-0.56695
 20
13.50678
 30
0.0
 10
-0.56695
 20
13.42423
 30
0.0
 10
-0.55044
 20
13.36009
 30
0.0
 10
-0.51721
 20
13.3148
 30
0.0
 10
-0.51721
 20
13.3148
 30
0.0
 10
-0.48419
 20
13.26929
 30
0.0
 10
-0.4372
 20
13.24664
 30
0.0
 10
-0.37666
 20
13.24664
 30
0.0
  0
SPLINE
  5
5D
330
1F
100
AcDbEntity
  8
Layer 1
100
AcDbSpline
210
0.0
220
0.0
230
1.0
 70
    11
 71
     3
 72
    60
 73
    56
 74
     0
 42
0.0000000001
 43
0.0000000001
 12
1.0
 22
0.0
 32
0.0
 13
1.0
 23
0.0
 33
0.0
 40
0.0
 40
0.0
 40
0.0
 40
0.0
 40
0.0666666666666667
 40
0.0666666666666667
 40
0.0666666666666667
 40
0.0666666666666667
 40
0.1333333333333333
 40
0.1333333333333333
 40
0.1333333333333333
 40
0.1333333333333333
 40
0.2
 40
0.2
 40
0.2
 40
0.2
 40
0.2666666666666667
 40
0.2666666666666667
 40
0.2666666666666667
 40
0.2666666666666667
 40
0.3333333333333333
 40
0.3333333333333333
 40
0.3333333333333333
 40
0.3333333333333333
 40
0.4
 40
0.4
 40
0.4
 40
0.4
 40
0.4666666666666667
 40
0.4666666666666667
 40
0.4666666666666667
 40
0.4666666666666667
 40
0.5333333333333333
 40
0.5333333333333333
 40
0.5333333333333333
 40
0.5333333333333333
 40
0.6
 40
0.6
 40
0.6
 40
0.6
 40
0.6666666666666666
 40
0.6666666666666666
 40
0.6666666666666666
 40
0.6666666666666666
 40
0.7333333333333333
 40
0.7333333333333333
 40
0.7333333333333333
 40
0.7333333333333333
 40
0.8
 40
0.8
 40
0.8
 40
0.8
 40
0.8666666666666667
 40
0.8666666666666667
 40
0.8666666666666667
 40
0.8666666666666667
 40
1.0
 40
1.0
 40
1.0
 40
1.0
 10
0.13578
 20
13.17044
 30
0.0
 10
0.13578
 20
13.17044
 30
0.0
 10
0.13578
 20
13.84354
 30
0.0
 10
0.13578
 20
13.84354
 30
0.0
 10
0.13578
 20
13.84354
 30
0.0
 10
0.13578
 20
13.84354
 30
0.0
 10
0.2577
 20
13.84354
 30
0.0
 10
0.2577
 20
13.84354
 30
0.0
 10
0.2577
 20
13.84354
 30
0.0
 10
0.2577
 20
13.84354
 30
0.0
 10
0.2577
 20
13.71633
 30
0.0
 10
0.2577
 20
13.71633
 30
0.0
 10
0.2577
 20
13.71633
 30
0.0
 10
0.32226
 20
13.81052
 30
0.0
 10
0.40142
 20
13.85751
 30
0.0
 10
0.49498
 20
13.85751
 30
0.0
 10
0.49498
 20
13.85751
 30
0.0
 10
0.55382
 20
13.85751
 30
0.0
 10
0.6006
 20
13.8391
 30
0.0
 10
0.6351
 20
13.80205
 30
0.0
 10
0.6351
 20
13.80205
 30
0.0
 10
0.6696
 20
13.76522
 30
0.0
 10
0.68696
 20
13.71548
 30
0.0
 10
0.68696
 20
13.65325
 30
0.0
 10
0.68696
 20
13.65325
 30
0.0
 10
0.68696
 20
13.65325
 30
0.0
 10
0.68696
 20
13.17044
 30
0.0
 10
0.68696
 20
13.17044
 30
0.0
 10
0.68696
 20
13.17044
 30
0.0
 10
0.68696
 20
13.17044
 30
0.0
 10
0.56504
 20
13.17044
 30
0.0
 10
0.56504
 20
13.17044
 30
0.0
 10
0.56504
 20
13.17044
 30
0.0
 10
0.56504
 20
13.17044
 30
0.0
 10
0.56504
 20
13.61346
 30
0.0
 10
0.56504
 20
13.61346
 30
0.0
 10
0.56504
 20
13.61346
 30
0.0
 10
0.56504
 20
13.66341
 30
0.0
 10
0.55763
 20
13.69897
 30
0.0
 10
0.54303
 20
13.72014
 30
0.0
 10
0.54303
 20
13.72014
 30
0.0
 10
0.52821
 20
13.74152
 30
0.0
 10
0.50387
 20
13.7521
 30
0.0
 10
0.46979
 20
13.7521
 30
0.0
 10
0.46979
 20
13.7521
 30
0.0
 10
0.39486
 20
13.7521
 30
0.0
 10
0.32416
 20
13.70321
 30
0.0
 10
0.2577
 20
13.60542
 30
0.0
 10
0.2577
 20
13.60542
 30
0.0
 10
0.2577
 20
13.60542
 30
0.0
 10
0.2577
 20
13.17044
 30
0.0
 10
0.2577
 20
13.17044
 30
0.0
 10
0.2577
 20
13.17044
 30
0.0
 10
0.2577
 20
13.17044
 30
0.0
 10
0.13578
 20
13.17044
 30
0.0
 10
0.13578
 20
13.17044
 30
0.0
  0
SPLINE
  5
5E
330
1F
100
AcDbEntity
  8
Layer 1
100
AcDbSpline
210
0.0
220
0.0
230
1.0
 70
    11
 71
     3
 72
    20
 73
    16
 74
     0
 42
0.0000000001
 43
0.0000000001
 12
1.0
 22
0.0
 32
0.0
 13
1.0
 23
0.0
 33
0.0
 40
0.0
 40
0.0
 40
0.0
 40
0.0
 40
0.2
 40
0.2
 40
0.2
 40
0.2
 40
0.4
 40
0.4
 40
0.4
 40
0.4
 40
0.6
 40
0.6
 40
0.6
 40
0.6
 40
1.0
 40
1.0
 40
1.0
 40
1.0
 10
0.85545
 20
13.079
 30
0.0
 10
0.85545
 20
13.079
 30
0.0
 10
0.85545
 20
13.17044
 30
0.0
 10
0.85545
 20
13.17044
 30
0.0
 10
0.85545
 20
13.17044
 30
0.0
 10
0.85545
 20
13.17044
 30
0.0
 10
1.38377
 20
13.17044
 30
0.0
 10
1.38377
 20
13.17044
 30
0.0
 10
1.38377
 20
13.17044
 30
0.0
 10
1.38377
 20
13.17044
 30
0.0
 10
1.38377
 20
13.079
 30
0.0
 10
1.38377
 20
13.079
 30
0.0
 10
1.38377
 20
13.079
 30
0.0
 10
1.38377
 20
13.079
 30
0.0
 10
0.85545
 20
13.079
 30
0.0
 10
0.85545
 20
13.079
 30
0.0
  0
SPLINE
  5
5F
330
1F
100
AcDbEntity
  8
Layer 1
100
AcDbSpline
210
0.0
220
0.0
230
1.0
 70
    11
 71
     3
 72
    48
 73
    44
 74
     0
 42
0.0000000001
 43
0.0000000001
 12
1.0
 22
0.0
 32
0.0
 13
1.0
 23
0.0
 33
0.0
 40
0.0
 40
0.0
 40
0.0
 40
0.0
 40
0.0833333333333333
 40
0.0833333333333333
 40
0.0833333333333333
 40
0.0833333333333333
 40
0.1666666666666667
 40
0.1666666666666667
 40
0.1666666666666667
 40
0.1666666666666667
 40
0.25
 40
0.25
 40
0.25
 40
0.25
 40
0.3333333333333333
 40
0.3333333333333333
 40
0.3333333333333333
 40
0.3333333333333333
 40
0.4166666666666667
 40
0.4166666666666667
 40
0.4166666666666667
 40
0.4166666666666667
 40
0.5
 40
0.5
 40
0.5
 40
0.5
 40
0.5833333333333334
 40
0.5833333333333334
 40
0.5833333333333334
 40
0.5833333333333334
 40
0.6666666666666666
 40
0.6666666666666666
 40
0.6666666666666666
 40
0.6666666666666666
 40
0.75
 40
0.75
 40
0.75
 40
0.75
 40
0.8333333333333334
 40
0.8333333333333334
 40
0.8333333333333334
 40
0.8333333333333334
 40
1.0
 40
1.0
 40
1.0
 40
1.0
 10
1.9921
 20
13.17044
 30
0.0
 10
1.9921
 20
13.17044
 30
0.0
 10
1.9921
 20
13.29681
 30
0.0
 10
1.9921
 20
13.29681
 30
0.0
 10
1.9921
 20
13.29681
 30
0.0
 10
1.94236
 20
13.2024
 30
0.0
 10
1.86743
 20
13.1552
 30
0.0
 10
1.76731
 20
13.1552
 30
0.0
 10
1.76731
 20
13.1552
 30
0.0
 10
1.68603
 20
13.1552
 30
0.0
 10
1.62211
 20
13.18462
 30
0.0
 10
1.57554
 20
13.24368
 30
0.0
 10
1.57554
 20
13.24368
 30
0.0
 10
1.52897
 20
13.30273
 30
0.0
 10
1.50569
 20
13.38338
 30
0.0
 10
1.50569
 20
13.48561
 30
0.0
 10
1.50569
 20
13.48561
 30
0.0
 10
1.50569
 20
13.59737
 30
0.0
 10
1.53215
 20
13.68733
 30
0.0
 10
1.58485
 20
13.75549
 30
0.0
 10
1.58485
 20
13.75549
 30
0.0
 10
1.63777
 20
13.82343
 30
0.0
 10
1.7072
 20
13.85751
 30
0.0
 10
1.79335
 20
13.85751
 30
0.0
 10
1.79335
 20
13.85751
 30
0.0
 10
1.87314
 20
13.85751
 30
0.0
 10
1.93961
 20
13.82703
 30
0.0
 10
1.9921
 20
13.76586
 30
0.0
 10
1.9921
 20
13.76586
 30
0.0
 10
1.9921
 20
13.76586
 30
0.0
 10
1.9921
 20
14.14961
 30
0.0
 10
1.9921
 20
14.14961
 30
0.0
 10
1.9921
 20
14.14961
 30
0.0
 10
1.9921
 20
14.14961
 30
0.0
 10
2.11402
 20
14.14961
 30
0.0
 10
2.11402
 20
14.14961
 30
0.0
 10
2.11402
 20
14.14961
 30
0.0
 10
2.11402
 20
14.14961
 30
0.0
 10
2.11402
 20
13.17044
 30
0.0
 10
2.11402
 20
13.17044
 30
0.0
 10
2.11402
 20
13.17044
 30
0.0
 10
2.11402
 20
13.17044
 30
0.0
 10
1.9921
 20
13.17044
 30
0.0
 10
1.9921
 20
13.17044
 30
0.0
  0
SPLINE
  5
60
330
1F
100
AcDbEntity
  8
Layer 1
100
AcDbSpline
210
0.0
220
0.0
230
1.0
 70
    11
 71
     3
 72
    28
 73
    24
 74
     0
 42
0.0000000001
 43
0.0000000001
 12
1.0
 22
0.0
 32
0.0
 13
1.0
 23
0.0
 33
0.0
 40
0.0
 40
0.0
 40
0.0
 40
0.0
 40
0.1428571428571428
 40
0.1428571428571428
 40
0.1428571428571428
 40
0.1428571428571428
 40
0.2857142857142857
 40
0.2857142857142857
 40
0.2857142857142857
 40
0.2857142857142857
 40
0.4285714285714285
 40
0.4285714285714285
 40
0.4285714285714285
 40
0.4285714285714285
 40
0.5714285714285714
 40
0.5714285714285714
 40
0.5714285714285714
 40
0.5714285714285714
 40
0.7142857142857143
 40
0.7142857142857143
 40
0.7142857142857143
 40
0.7142857142857143
 40
1.0
 40
1.0
 40
1.0
 40
1.0
 10
1.9921
 20
13.68246
 30
0.0
 10
1.92881
 20
13.73813
 30
0.0
 10
1.86891
 20
13.76607
 30
0.0
 10
1.81218
 20
13.76607
 30
0.0
 10
1.81218
 20
13.76607
 30
0.0
 10
1.7563
 20
13.76607
 30
0.0
 10
1.71312
 20
13.74279
 30
0.0
 10
1.68243
 20
13.69601
 30
0.0
 10
1.68243
 20
13.69601
 30
0.0
 10
1.65174
 20
13.64944
 30
0.0
 10
1.6365
 20
13.5834
 30
0.0
 10
1.6365
 20
13.49789
 30
0.0
 10
1.6365
 20
13.49789
 30
0.0
 10
1.6365
 20
13.34062
 30
0.0
 10
1.68857
 20
13.26188
 30
0.0
 10
1.79292
 20
13.26188
 30
0.0
 10
1.79292
 20
13.26188
 30
0.0
 10
1.86066
 20
13.26188
 30
0.0
 10
1.92712
 20
13.29892
 30
0.0
 10
1.9921
 20
13.37279
 30
0.0
 10
1.9921
 20
13.37279
 30
0.0
 10
1.9921
 20
13.37279
 30
0.0
 10
1.9921
 20
13.68246
 30
0.0
 10
1.9921
 20
13.68246
 30
0.0
  0
SPLINE
  5
61
330
1F
100
AcDbEntity
  8
Layer 1
100
AcDbSpline
210
0.0
220
0.0
230
1.0
 70
    11
 71
     3
 72
    36
 73
    32
 74
     0
 42
0.0000000001
 43
0.0000000001
 12
1.0
 22
0.0
 32
0.0
 13
1.0
 23
0.0
 33
0.0
 40
0.0
 40
0.0
 40
0.0
 40
0.0
 40
0.1111111111111111
 40
0.1111111111111111
 40
0.1111111111111111
 40
0.1111111111111111
 40
0.2222222222222222
 40
0.2222222222222222
 40
0.2222222222222222
 40
0.2222222222222222
 40
0.3333333333333333
 40
0.3333333333333333
 40
0.3333333333333333
 40
0.3333333333333333
 40
0.4444444444444444
 40
0.4444444444444444
 40
0.4444444444444444
 40
0.4444444444444444
 40
0.5555555555555556
 40
0.5555555555555556
 40
0.5555555555555556
 40
0.5555555555555556
 40
0.6666666666666666
 40
0.6666666666666666
 40
0.6666666666666666
 40
0.6666666666666666
 40
0.7777777777777778
 40
0.7777777777777778
 40
0.7777777777777778
 40
0.7777777777777778
 40
1.0
 40
1.0
 40
1.0
 40
1.0
 10
2.62625
 20
13.1552
 30
0.0
 10
2.5274
 20
13.1552
 30
0.0
 10
2.44909
 20
13.18674
 30
0.0
 10
2.39151
 20
13.24982
 30
0.0
 10
2.39151
 20
13.24982
 30
0.0
 10
2.33373
 20
13.31289
 30
0.0
 10
2.30494
 20
13.39862
 30
0.0
 10
2.30494
 20
13.50678
 30
0.0
 10
2.30494
 20
13.50678
 30
0.0
 10
2.30494
 20
13.61473
 30
0.0
 10
2.33373
 20
13.70024
 30
0.0
 10
2.39151
 20
13.76311
 30
0.0
 10
2.39151
 20
13.76311
 30
0.0
 10
2.44909
 20
13.82597
 30
0.0
 10
2.5274
 20
13.85751
 30
0.0
 10
2.62625
 20
13.85751
 30
0.0
 10
2.62625
 20
13.85751
 30
0.0
 10
2.7251
 20
13.85751
 30
0.0
 10
2.80342
 20
13.82597
 30
0.0
 10
2.86099
 20
13.76311
 30
0.0
 10
2.86099
 20
13.76311
 30
0.0
 10
2.91877
 20
13.70024
 30
0.0
 10
2.94756
 20
13.61473
 30
0.0
 10
2.94756
 20
13.50678
 30
0.0
 10
2.94756
 20
13.50678
 30
0.0
 10
2.94756
 20
13.39862
 30
0.0
 10
2.91877
 20
13.31289
 30
0.0
 10
2.86099
 20
13.24982
 30
0.0
 10
2.86099
 20
13.24982
 30
0.0
 10
2.80342
 20
13.18674
 30
0.0
 10
2.7251
 20
13.1552
 30
0.0
 10
2.62625
 20
13.1552
 30
0.0
  0
SPLINE
  5
62
330
1F
100
AcDbEntity
  8
Layer 1
100
AcDbSpline
210
0.0
220
0.0
230
1.0
 70
    11
 71
     3
 72
    36
 73
    32
 74
     0
 42
0.0000000001
 43
0.0000000001
 12
1.0
 22
0.0
 32
0.0
 13
1.0
 23
0.0
 33
0.0
 40
0.0
 40
0.0
 40
0.0
 40
0.0
 40
0.1111111111111111
 40
0.1111111111111111
 40
0.1111111111111111
 40
0.1111111111111111
 40
0.2222222222222222
 40
0.2222222222222222
 40
0.2222222222222222
 40
0.2222222222222222
 40
0.3333333333333333
 40
0.3333333333333333
 40
0.3333333333333333
 40
0.3333333333333333
 40
0.4444444444444444
 40
0.4444444444444444
 40
0.4444444444444444
 40
0.4444444444444444
 40
0.5555555555555556
 40
0.5555555555555556
 40
0.5555555555555556
 40
0.5555555555555556
 40
0.6666666666666666
 40
0.6666666666666666
 40
0.6666666666666666
 40
0.6666666666666666
 40
0.7777777777777778
 40
0.7777777777777778
 40
0.7777777777777778
 40
0.7777777777777778
 40
1.0
 40
1.0
 40
1.0
 40
1.0
 10
2.62604
 20
13.24664
 30
0.0
 10
2.68636
 20
13.24664
 30
0.0
 10
2.73335
 20
13.26929
 30
0.0
 10
2.7668
 20
13.3148
 30
0.0
 10
2.7668
 20
13.3148
 30
0.0
 10
2.80003
 20
13.36009
 30
0.0
 10
2.81675
 20
13.42423
 30
0.0
 10
2.81675
 20
13.50678
 30
0.0
 10
2.81675
 20
13.50678
 30
0.0
 10
2.81675
 20
13.58912
 30
0.0
 10
2.80003
 20
13.65304
 30
0.0
 10
2.7668
 20
13.69834
 30
0.0
 10
2.7668
 20
13.69834
 30
0.0
 10
2.73335
 20
13.74342
 30
0.0
 10
2.68636
 20
13.76607
 30
0.0
 10
2.62604
 20
13.76607
 30
0.0
 10
2.62604
 20
13.76607
 30
0.0
 10
2.5655
 20
13.76607
 30
0.0
 10
2.51851
 20
13.74342
 30
0.0
 10
2.48549
 20
13.69834
 30
0.0
 10
2.48549
 20
13.69834
 30
0.0
 10
2.45226
 20
13.65304
 30
0.0
 10
2.43575
 20
13.58912
 30
0.0
 10
2.43575
 20
13.50678
 30
0.0
 10
2.43575
 20
13.50678
 30
0.0
 10
2.43575
 20
13.42423
 30
0.0
 10
2.45226
 20
13.36009
 30
0.0
 10
2.48549
 20
13.3148
 30
0.0
 10
2.48549
 20
13.3148
 30
0.0
 10
2.51851
 20
13.26929
 30
0.0
 10
2.5655
 20
13.24664
 30
0.0
 10
2.62604
 20
13.24664
 30
0.0
  0
SPLINE
  5
63
330
1F
100
AcDbEntity
  8
Layer 1
100
AcDbSpline
210
0.0
220
0.0
230
1.0
 70
    11
 71
     3
 72
    36
 73
    32
 74
     0
 42
0.0000000001
 43
0.0000000001
 12
1.0
 22
0.0
 32
0.0
 13
1.0
 23
0.0
 33
0.0
 40
0.0
 40
0.0
 40
0.0
 40
0.0
 40
0.1111111111111111
 40
0.1111111111111111
 40
0.1111111111111111
 40
0.1111111111111111
 40
0.2222222222222222
 40
0.2222222222222222
 40
0.2222222222222222
 40
0.2222222222222222
 40
0.3333333333333333
 40
0.3333333333333333
 40
0.3333333333333333
 40
0.3333333333333333
 40
0.4444444444444444
 40
0.4444444444444444
 40
0.4444444444444444
 40
0.4444444444444444
 40
0.5555555555555556
 40
0.5555555555555556
 40
0.5555555555555556
 40
0.5555555555555556
 40
0.6666666666666666
 40
0.6666666666666666
 40
0.6666666666666666
 40
0.6666666666666666
 40
0.7777777777777778
 40
0.7777777777777778
 40
0.7777777777777778
 40
0.7777777777777778
 40
1.0
 40
1.0
 40
1.0
 40
1.0
 10
3.40645
 20
13.1552
 30
0.0
 10
3.3076
 20
13.1552
 30
0.0
 10
3.22929
 20
13.18674
 30
0.0
 10
3.17171
 20
13.24982
 30
0.0
 10
3.17171
 20
13.24982
 30
0.0
 10
3.11393
 20
13.31289
 30
0.0
 10
3.08514
 20
13.39862
 30
0.0
 10
3.08514
 20
13.50678
 30
0.0
 10
3.08514
 20
13.50678
 30
0.0
 10
3.08514
 20
13.61473
 30
0.0
 10
3.11393
 20
13.70024
 30
0.0
 10
3.17171
 20
13.76311
 30
0.0
 10
3.17171
 20
13.76311
 30
0.0
 10
3.22929
 20
13.82597
 30
0.0
 10
3.3076
 20
13.85751
 30
0.0
 10
3.40645
 20
13.85751
 30
0.0
 10
3.40645
 20
13.85751
 30
0.0
 10
3.5053
 20
13.85751
 30
0.0
 10
3.58362
 20
13.82597
 30
0.0
 10
3.64119
 20
13.76311
 30
0.0
 10
3.64119
 20
13.76311
 30
0.0
 10
3.69897
 20
13.70024
 30
0.0
 10
3.72776
 20
13.61473
 30
0.0
 10
3.72776
 20
13.50678
 30
0.0
 10
3.72776
 20
13.50678
 30
0.0
 10
3.72776
 20
13.39862
 30
0.0
 10
3.69897
 20
13.31289
 30
0.0
 10
3.64119
 20
13.24982
 30
0.0
 10
3.64119
 20
13.24982
 30
0.0
 10
3.58362
 20
13.18674
 30
0.0
 10
3.5053
 20
13.1552
 30
0.0
 10
3.40645
 20
13.1552
 30
0.0
  0
SPLINE
  5
64
330
1F
100
AcDbEntity
  8
Layer 1
100
AcDbSpline
210
0.0
220
0.0
230
1.0
 70
    11
 71
     3
 72
    36
 73
    32
 74
     0
 42
0.0000000001
 43
0.0000000001
 12
1.0
 22
0.0
 32
0.0
 13
1.0
 23
0.0
 33
0.0
 40
0.0
 40
0.0
 40
0.0
 40
0.0
 40
0.1111111111111111
 40
0.1111111111111111
 40
0.1111111111111111
 40
0.1111111111111111
 40
0.2222222222222222
 40
0.2222222222222222
 40
0.2222222222222222
 40
0.2222222222222222
 40
0.3333333333333333
 40
0.3333333333333333
 40
0.3333333333333333
 40
0.3333333333333333
 40
0.4444444444444444
 40
0.4444444444444444
 40
0.4444444444444444
 40
0.4444444444444444
 40
0.5555555555555556
 40
0.5555555555555556
 40
0.5555555555555556
 40
0.5555555555555556
 40
0.6666666666666666
 40
0.6666666666666666
 40
0.6666666666666666
 40
0.6666666666666666
 40
0.7777777777777778
 40
0.7777777777777778
 40
0.7777777777777778
 40
0.7777777777777778
 40
1.0
 40
1.0
 40
1.0
 40
1.0
 10
3.40624
 20
13.24664
 30
0.0
 10
3.46656
 20
13.24664
 30
0.0
 10
3.51355
 20
13.26929
 30
0.0
 10
3.547
 20
13.3148
 30
0.0
 10
3.547
 20
13.3148
 30
0.0
 10
3.58023
 20
13.36009
 30
0.0
 10
3.59695
 20
13.42423
 30
0.0
 10
3.59695
 20
13.50678
 30
0.0
 10
3.59695
 20
13.50678
 30
0.0
 10
3.59695
 20
13.58912
 30
0.0
 10
3.58023
 20
13.65304
 30
0.0
 10
3.547
 20
13.69834
 30
0.0
 10
3.547
 20
13.69834
 30
0.0
 10
3.51355
 20
13.74342
 30
0.0
 10
3.46656
 20
13.76607
 30
0.0
 10
3.40624
 20
13.76607
 30
0.0
 10
3.40624
 20
13.76607
 30
0.0
 10
3.3457
 20
13.76607
 30
0.0
 10
3.29871
 20
13.74342
 30
0.0
 10
3.26569
 20
13.69834
 30
0.0
 10
3.26569
 20
13.69834
 30
0.0
 10
3.23246
 20
13.65304
 30
0.0
 10
3.21595
 20
13.58912
 30
0.0
 10
3.21595
 20
13.50678
 30
0.0
 10
3.21595
 20
13.50678
 30
0.0
 10
3.21595
 20
13.42423
 30
0.0
 10
3.23246
 20
13.36009
 30
0.0
 10
3.26569
 20
13.3148
 30
0.0
 10
3.26569
 20
13.3148
 30
0.0
 10
3.29871
 20
13.26929
 30
0.0
 10
3.3457
 20
13.24664
 30
0.0
 10
3.40624
 20
13.24664
 30
0.0
  0
SPLINE
  5
65
330
1F
100
AcDbEntity
  8
Layer 1
100
AcDbSpline
210
0.0
220
0.0
230
1.0
 70
    11
 71
     3
 72
    44
 73
    40
 74
     0
 42
0.0000000001
 43
0.0000000001
 12
1.0
 22
0.0
 32
0.0
 13
1.0
 23
0.0
 33
0.0
 40
0.0
 40
0.0
 40
0.0
 40
0.0
 40
0.0909090909090909
 40
0.0909090909090909
 40
0.0909090909090909
 40
0.0909090909090909
 40
0.1818181818181818
 40
0.1818181818181818
 40
0.1818181818181818
 40
0.1818181818181818
 40
0.2727272727272727
 40
0.2727272727272727
 40
0.2727272727272727
 40
0.2727272727272727
 40
0.3636363636363636
 40
0.3636363636363636
 40
0.3636363636363636
 40
0.3636363636363636
 40
0.4545454545454545
 40
0.4545454545454545
 40
0.4545454545454545
 40
0.4545454545454545
 40
0.5454545454545454
 40
0.5454545454545454
 40
0.5454545454545454
 40
0.5454545454545454
 40
0.6363636363636364
 40
0.6363636363636364
 40
0.6363636363636364
 40
0.6363636363636364
 40
0.7272727272727273
 40
0.7272727272727273
 40
0.7272727272727273
 40
0.7272727272727273
 40
0.8181818181818182
 40
0.8181818181818182
 40
0.8181818181818182
 40
0.8181818181818182
 40
1.0
 40
1.0
 40
1.0
 40
1.0
 10
3.91868
 20
13.17044
 30
0.0
 10
3.91868
 20
13.17044
 30
0.0
 10
3.91868
 20
13.84354
 30
0.0
 10
3.91868
 20
13.84354
 30
0.0
 10
3.91868
 20
13.84354
 30
0.0
 10
3.91868
 20
13.84354
 30
0.0
 10
4.0406
 20
13.84354
 30
0.0
 10
4.0406
 20
13.84354
 30
0.0
 10
4.0406
 20
13.84354
 30
0.0
 10
4.0406
 20
13.84354
 30
0.0
 10
4.0406
 20
13.71633
 30
0.0
 10
4.0406
 20
13.71633
 30
0.0
 10
4.0406
 20
13.71633
 30
0.0
 10
4.08907
 20
13.81052
 30
0.0
 10
4.15935
 20
13.85751
 30
0.0
 10
4.25163
 20
13.85751
 30
0.0
 10
4.25163
 20
13.85751
 30
0.0
 10
4.26412
 20
13.85751
 30
0.0
 10
4.27724
 20
13.85645
 30
0.0
 10
4.29079
 20
13.85434
 30
0.0
 10
4.29079
 20
13.85434
 30
0.0
 10
4.29079
 20
13.85434
 30
0.0
 10
4.29079
 20
13.74025
 30
0.0
 10
4.29079
 20
13.74025
 30
0.0
 10
4.29079
 20
13.74025
 30
0.0
 10
4.26962
 20
13.74723
 30
0.0
 10
4.251
 20
13.75083
 30
0.0
 10
4.23491
 20
13.75083
 30
0.0
 10
4.23491
 20
13.75083
 30
0.0
 10
4.15744
 20
13.75083
 30
0.0
 10
4.09267
 20
13.70511
 30
0.0
 10
4.0406
 20
13.61346
 30
0.0
 10
4.0406
 20
13.61346
 30
0.0
 10
4.0406
 20
13.61346
 30
0.0
 10
4.0406
 20
13.17044
 30
0.0
 10
4.0406
 20
13.17044
 30
0.0
 10
4.0406
 20
13.17044
 30
0.0
 10
4.0406
 20
13.17044
 30
0.0
 10
3.91868
 20
13.17044
 30
0.0
 10
3.91868
 20
13.17044
 30
0.0
  0
SPLINE
  5
66
330
1F
100
AcDbEntity
  8
Layer 1
100
AcDbSpline
210
0.0
220
0.0
230
1.0
 70
    11
 71
     3
 72
    92
 73
    88
 74
     0
 42
0.0000000001
 43
0.0000000001
 12
1.0
 22
0.0
 32
0.0
 13
1.0
 23
0.0
 33
0.0
 40
0.0
 40
0.0
 40
0.0
 40
0.0
 40
0.0434782608695652
 40
0.0434782608695652
 40
0.0434782608695652
 40
0.0434782608695652
 40
0.0869565217391304
 40
0.0869565217391304
 40
0.0869565217391304
 40
0.0869565217391304
 40
0.1304347826086956
 40
0.1304347826086956
 40
0.1304347826086956
 40
0.1304347826086956
 40
0.1739130434782609
 40
0.1739130434782609
 40
0.1739130434782609
 40
0.1739130434782609
 40
0.2173913043478261
 40
0.2173913043478261
 40
0.2173913043478261
 40
0.2173913043478261
 40
0.2608695652173913
 40
0.2608695652173913
 40
0.2608695652173913
 40
0.2608695652173913
 40
0.3043478260869565
 40
0.3043478260869565
 40
0.3043478260869565
 40
0.3043478260869565
 40
0.3478260869565217
 40
0.3478260869565217
 40
0.3478260869565217
 40
0.3478260869565217
 40
0.391304347826087
 40
0.391304347826087
 40
0.391304347826087
 40
0.391304347826087
 40
0.4347826086956522
 40
0.4347826086956522
 40
0.4347826086956522
 40
0.4347826086956522
 40
0.4782608695652174
 40
0.4782608695652174
 40
0.4782608695652174
 40
0.4782608695652174
 40
0.5217391304347826
 40
0.5217391304347826
 40
0.5217391304347826
 40
0.5217391304347826
 40
0.5652173913043478
 40
0.5652173913043478
 40
0.5652173913043478
 40
0.5652173913043478
 40
0.6086956521739131
 40
0.6086956521739131
 40
0.6086956521739131
 40
0.6086956521739131
 40
0.6521739130434783
 40
0.6521739130434783
 40
0.6521739130434783
 40
0.6521739130434783
 40
0.6956521739130435
 40
0.6956521739130435
 40
0.6956521739130435
 40
0.6956521739130435
 40
0.7391304347826086
 40
0.7391304347826086
 40
0.7391304347826086
 40
0.7391304347826086
 40
0.782608695652174
 40
0.782608695652174
 40
0.782608695652174
 40
0.782608695652174
 40
0.8260869565217391
 40
0.8260869565217391
 40
0.8260869565217391
 40
0.8260869565217391
 40
0.8695652173913043
 40
0.8695652173913043
 40
0.8695652173913043
 40
0.8695652173913043
 40
0.9130434782608695
 40
0.9130434782608695
 40
0.9130434782608695
 40
0.9130434782608695
 40
1.0
 40
1.0
 40
1.0
 40
1.0
 10
4.41419
 20
13.19457
 30
0.0
 10
4.41419
 20
13.19457
 30
0.0
 10
4.41419
 20
13.30633
 30
0.0
 10
4.41419
 20
13.30633
 30
0.0
 10
4.41419
 20
13.30633
 30
0.0
 10
4.49399
 20
13.26654
 30
0.0
 10
4.5632
 20
13.24664
 30
0.0
 10
4.62226
 20
13.24664
 30
0.0
 10
4.62226
 20
13.24664
 30
0.0
 10
4.6574
 20
13.24664
 30
0.0
 10
4.68661
 20
13.25617
 30
0.0
 10
4.70968
 20
13.27522
 30
0.0
 10
4.70968
 20
13.27522
 30
0.0
 10
4.73275
 20
13.29405
 30
0.0
 10
4.74439
 20
13.31776
 30
0.0
 10
4.74439
 20
13.34634
 30
0.0
 10
4.74439
 20
13.34634
 30
0.0
 10
4.74439
 20
13.38803
 30
0.0
 10
4.71201
 20
13.42254
 30
0.0
 10
4.64724
 20
13.44984
 30
0.0
 10
4.64724
 20
13.44984
 30
0.0
 10
4.64724
 20
13.44984
 30
0.0
 10
4.5759
 20
13.48011
 30
0.0
 10
4.5759
 20
13.48011
 30
0.0
 10
4.5759
 20
13.48011
 30
0.0
 10
4.47071
 20
13.52371
 30
0.0
 10
4.418
 20
13.58679
 30
0.0
 10
4.418
 20
13.6687
 30
0.0
 10
4.418
 20
13.6687
 30
0.0
 10
4.418
 20
13.72734
 30
0.0
 10
4.43874
 20
13.77348
 30
0.0
 10
4.48023
 20
13.80713
 30
0.0
 10
4.48023
 20
13.80713
 30
0.0
 10
4.52172
 20
13.84079
 30
0.0
 10
4.57866
 20
13.85751
 30
0.0
 10
4.65083
 20
13.85751
 30
0.0
 10
4.65083
 20
13.85751
 30
0.0
 10
4.6883
 20
13.85751
 30
0.0
 10
4.73487
 20
13.85243
 30
0.0
 10
4.79011
 20
13.84206
 30
0.0
 10
4.79011
 20
13.84206
 30
0.0
 10
4.79011
 20
13.84206
 30
0.0
 10
4.81551
 20
13.83719
 30
0.0
 10
4.81551
 20
13.83719
 30
0.0
 10
4.81551
 20
13.83719
 30
0.0
 10
4.81551
 20
13.83719
 30
0.0
 10
4.81551
 20
13.73559
 30
0.0
 10
4.81551
 20
13.73559
 30
0.0
 10
4.81551
 20
13.73559
 30
0.0
 10
4.74757
 20
13.75591
 30
0.0
 10
4.69338
 20
13.76607
 30
0.0
 10
4.65295
 20
13.76607
 30
0.0
 10
4.65295
 20
13.76607
 30
0.0
 10
4.61739
 20
13.76607
 30
0.0
 10
4.58924
 20
13.75824
 30
0.0
 10
4.56786
 20
13.74279
 30
0.0
 10
4.56786
 20
13.74279
 30
0.0
 10
4.54669
 20
13.72734
 30
0.0
 10
4.53611
 20
13.70659
 30
0.0
 10
4.53611
 20
13.68056
 30
0.0
 10
4.53611
 20
13.68056
 30
0.0
 10
4.53611
 20
13.64394
 30
0.0
 10
4.56574
 20
13.61282
 30
0.0
 10
4.62522
 20
13.58764
 30
0.0
 10
4.62522
 20
13.58764
 30
0.0
 10
4.62522
 20
13.58764
 30
0.0
 10
4.68385
 20
13.56287
 30
0.0
 10
4.68385
 20
13.56287
 30
0.0
 10
4.68385
 20
13.56287
 30
0.0
 10
4.75032
 20
13.53493
 30
0.0
 10
4.79731
 20
13.5053
 30
0.0
 10
4.82482
 20
13.47418
 30
0.0
 10
4.82482
 20
13.47418
 30
0.0
 10
4.85255
 20
13.44307
 30
0.0
 10
4.86631
 20
13.40412
 30
0.0
 10
4.86631
 20
13.35755
 30
0.0
 10
4.86631
 20
13.35755
 30
0.0
 10
4.86631
 20
13.2985
 30
0.0
 10
4.84303
 20
13.25003
 30
0.0
 10
4.79625
 20
13.21214
 30
0.0
 10
4.79625
 20
13.21214
 30
0.0
 10
4.74968
 20
13.17425
 30
0.0
 10
4.68999
 20
13.1552
 30
0.0
 10
4.61739
 20
13.1552
 30
0.0
 10
4.61739
 20
13.1552
 30
0.0
 10
4.56151
 20
13.1552
 30
0.0
 10
4.49399
 20
13.16832
 30
0.0
 10
4.41419
 20
13.19457
 30
0.0
  0
SPLINE
  5
67
330
1F
100
AcDbEntity
  8
Layer 1
100
AcDbSpline
210
0.0
220
0.0
230
1.0
 70
    11
 71
     3
 72
    72
 73
    68
 74
     0
 42
0.0000000001
 43
0.0000000001
 12
1.0
 22
0.0
 32
0.0
 13
1.0
 23
0.0
 33
0.0
 40
0.0
 40
0.0
 40
0.0
 40
0.0
 40
0.0555555555555556
 40
0.0555555555555556
 40
0.0555555555555556
 40
0.0555555555555556
 40
0.1111111111111111
 40
0.1111111111111111
 40
0.1111111111111111
 40
0.1111111111111111
 40
0.1666666666666667
 40
0.1666666666666667
 40
0.1666666666666667
 40
0.1666666666666667
 40
0.2222222222222222
 40
0.2222222222222222
 40
0.2222222222222222
 40
0.2222222222222222
 40
0.2777777777777778
 40
0.2777777777777778
 40
0.2777777777777778
 40
0.2777777777777778
 40
0.3333333333333333
 40
0.3333333333333333
 40
0.3333333333333333
 40
0.3333333333333333
 40
0.3888888888888889
 40
0.3888888888888889
 40
0.3888888888888889
 40
0.3888888888888889
 40
0.4444444444444444
 40
0.4444444444444444
 40
0.4444444444444444
 40
0.4444444444444444
 40
0.5
 40
0.5
 40
0.5
 40
0.5
 40
0.5555555555555556
 40
0.5555555555555556
 40
0.5555555555555556
 40
0.5555555555555556
 40
0.6111111111111112
 40
0.6111111111111112
 40
0.6111111111111112
 40
0.6111111111111112
 40
0.6666666666666666
 40
0.6666666666666666
 40
0.6666666666666666
 40
0.6666666666666666
 40
0.7222222222222222
 40
0.7222222222222222
 40
0.7222222222222222
 40
0.7222222222222222
 40
0.7777777777777778
 40
0.7777777777777778
 40
0.7777777777777778
 40
0.7777777777777778
 40
0.8333333333333334
 40
0.8333333333333334
 40
0.8333333333333334
 40
0.8333333333333334
 40
0.8888888888888888
 40
0.8888888888888888
 40
0.8888888888888888
 40
0.8888888888888888
 40
1.0
 40
1.0
 40
1.0
 40
1.0
 10
5.3868
 20
13.17065
 30
0.0
 10
5.34912
 20
13.16028
 30
0.0
 10
5.31632
 20
13.1552
 30
0.0
 10
5.28859
 20
13.1552
 30
0.0
 10
5.28859
 20
13.1552
 30
0.0
 10
5.22636
 20
13.1552
 30
0.0
 10
5.17789
 20
13.17298
 30
0.0
 10
5.14317
 20
13.20854
 30
0.0
 10
5.14317
 20
13.20854
 30
0.0
 10
5.10825
 20
13.2441
 30
0.0
 10
5.09089
 20
13.29342
 30
0.0
 10
5.09089
 20
13.35671
 30
0.0
 10
5.09089
 20
13.35671
 30
0.0
 10
5.09089
 20
13.35671
 30
0.0
 10
5.09089
 20
13.7521
 30
0.0
 10
5.09089
 20
13.7521
 30
0.0
 10
5.09089
 20
13.7521
 30
0.0
 10
5.09089
 20
13.7521
 30
0.0
 10
5.00665
 20
13.7521
 30
0.0
 10
5.00665
 20
13.7521
 30
0.0
 10
5.00665
 20
13.7521
 30
0.0
 10
5.00665
 20
13.7521
 30
0.0
 10
5.00665
 20
13.84354
 30
0.0
 10
5.00665
 20
13.84354
 30
0.0
 10
5.00665
 20
13.84354
 30
0.0
 10
5.00665
 20
13.84354
 30
0.0
 10
5.09089
 20
13.84354
 30
0.0
 10
5.09089
 20
13.84354
 30
0.0
 10
5.09089
 20
13.84354
 30
0.0
 10
5.09089
 20
13.84354
 30
0.0
 10
5.09089
 20
13.96525
 30
0.0
 10
5.09089
 20
13.96525
 30
0.0
 10
5.09089
 20
13.96525
 30
0.0
 10
5.09089
 20
13.96525
 30
0.0
 10
5.21281
 20
13.97689
 30
0.0
 10
5.21281
 20
13.97689
 30
0.0
 10
5.21281
 20
13.97689
 30
0.0
 10
5.21281
 20
13.97689
 30
0.0
 10
5.21281
 20
13.84354
 30
0.0
 10
5.21281
 20
13.84354
 30
0.0
 10
5.21281
 20
13.84354
 30
0.0
 10
5.21281
 20
13.84354
 30
0.0
 10
5.38934
 20
13.84354
 30
0.0
 10
5.38934
 20
13.84354
 30
0.0
 10
5.38934
 20
13.84354
 30
0.0
 10
5.38934
 20
13.84354
 30
0.0
 10
5.38934
 20
13.7521
 30
0.0
 10
5.38934
 20
13.7521
 30
0.0
 10
5.38934
 20
13.7521
 30
0.0
 10
5.38934
 20
13.7521
 30
0.0
 10
5.21281
 20
13.7521
 30
0.0
 10
5.21281
 20
13.7521
 30
0.0
 10
5.21281
 20
13.7521
 30
0.0
 10
5.21281
 20
13.7521
 30
0.0
 10
5.21281
 20
13.37872
 30
0.0
 10
5.21281
 20
13.37872
 30
0.0
 10
5.21281
 20
13.37872
 30
0.0
 10
5.21281
 20
13.29067
 30
0.0
 10
5.25112
 20
13.24664
 30
0.0
 10
5.32753
 20
13.24664
 30
0.0
 10
5.32753
 20
13.24664
 30
0.0
 10
5.34383
 20
13.24664
 30
0.0
 10
5.36352
 20
13.24939
 30
0.0
 10
5.3868
 20
13.25468
 30
0.0
 10
5.3868
 20
13.25468
 30
0.0
 10
5.3868
 20
13.25468
 30
0.0
 10
5.3868
 20
13.17065
 30
0.0
 10
5.3868
 20
13.17065
 30
0.0
  0
SPLINE
  5
68
330
1F
100
AcDbEntity
  8
Layer 1
100
AcDbSpline
210
0.0
220
0.0
230
1.0
 70
    11
 71
     3
 72
    36
 73
    32
 74
     0
 42
0.0000000001
 43
0.0000000001
 12
1.0
 22
0.0
 32
0.0
 13
1.0
 23
0.0
 33
0.0
 40
0.0
 40
0.0
 40
0.0
 40
0.0
 40
0.1111111111111111
 40
0.1111111111111111
 40
0.1111111111111111
 40
0.1111111111111111
 40
0.2222222222222222
 40
0.2222222222222222
 40
0.2222222222222222
 40
0.2222222222222222
 40
0.3333333333333333
 40
0.3333333333333333
 40
0.3333333333333333
 40
0.3333333333333333
 40
0.4444444444444444
 40
0.4444444444444444
 40
0.4444444444444444
 40
0.4444444444444444
 40
0.5555555555555556
 40
0.5555555555555556
 40
0.5555555555555556
 40
0.5555555555555556
 40
0.6666666666666666
 40
0.6666666666666666
 40
0.6666666666666666
 40
0.6666666666666666
 40
0.7777777777777778
 40
0.7777777777777778
 40
0.7777777777777778
 40
0.7777777777777778
 40
1.0
 40
1.0
 40
1.0
 40
1.0
 10
5.82876
 20
13.1552
 30
0.0
 10
5.72991
 20
13.1552
 30
0.0
 10
5.6516
 20
13.18674
 30
0.0
 10
5.59402
 20
13.24982
 30
0.0
 10
5.59402
 20
13.24982
 30
0.0
 10
5.53624
 20
13.31289
 30
0.0
 10
5.50745
 20
13.39862
 30
0.0
 10
5.50745
 20
13.50678
 30
0.0
 10
5.50745
 20
13.50678
 30
0.0
 10
5.50745
 20
13.61473
 30
0.0
 10
5.53624
 20
13.70024
 30
0.0
 10
5.59402
 20
13.76311
 30
0.0
 10
5.59402
 20
13.76311
 30
0.0
 10
5.6516
 20
13.82597
 30
0.0
 10
5.72991
 20
13.85751
 30
0.0
 10
5.82876
 20
13.85751
 30
0.0
 10
5.82876
 20
13.85751
 30
0.0
 10
5.92761
 20
13.85751
 30
0.0
 10
6.00593
 20
13.82597
 30
0.0
 10
6.0635
 20
13.76311
 30
0.0
 10
6.0635
 20
13.76311
 30
0.0
 10
6.12128
 20
13.70024
 30
0.0
 10
6.15007
 20
13.61473
 30
0.0
 10
6.15007
 20
13.50678
 30
0.0
 10
6.15007
 20
13.50678
 30
0.0
 10
6.15007
 20
13.39862
 30
0.0
 10
6.12128
 20
13.31289
 30
0.0
 10
6.0635
 20
13.24982
 30
0.0
 10
6.0635
 20
13.24982
 30
0.0
 10
6.00593
 20
13.18674
 30
0.0
 10
5.92761
 20
13.1552
 30
0.0
 10
5.82876
 20
13.1552
 30
0.0
  0
SPLINE
  5
69
330
1F
100
AcDbEntity
  8
Layer 1
100
AcDbSpline
210
0.0
220
0.0
230
1.0
 70
    11
 71
     3
 72
    36
 73
    32
 74
     0
 42
0.0000000001
 43
0.0000000001
 12
1.0
 22
0.0
 32
0.0
 13
1.0
 23
0.0
 33
0.0
 40
0.0
 40
0.0
 40
0.0
 40
0.0
 40
0.1111111111111111
 40
0.1111111111111111
 40
0.1111111111111111
 40
0.1111111111111111
 40
0.2222222222222222
 40
0.2222222222222222
 40
0.2222222222222222
 40
0.2222222222222222
 40
0.3333333333333333
 40
0.3333333333333333
 40
0.3333333333333333
 40
0.3333333333333333
 40
0.4444444444444444
 40
0.4444444444444444
 40
0.4444444444444444
 40
0.4444444444444444
 40
0.5555555555555556
 40
0.5555555555555556
 40
0.5555555555555556
 40
0.5555555555555556
 40
0.6666666666666666
 40
0.6666666666666666
 40
0.6666666666666666
 40
0.6666666666666666
 40
0.7777777777777778
 40
0.7777777777777778
 40
0.7777777777777778
 40
0.7777777777777778
 40
1.0
 40
1.0
 40
1.0
 40
1.0
 10
5.82855
 20
13.24664
 30
0.0
 10
5.88887
 20
13.24664
 30
0.0
 10
5.93586
 20
13.26929
 30
0.0
 10
5.96931
 20
13.3148
 30
0.0
 10
5.96931
 20
13.3148
 30
0.0
 10
6.00254
 20
13.36009
 30
0.0
 10
6.01926
 20
13.42423
 30
0.0
 10
6.01926
 20
13.50678
 30
0.0
 10
6.01926
 20
13.50678
 30
0.0
 10
6.01926
 20
13.58912
 30
0.0
 10
6.00254
 20
13.65304
 30
0.0
 10
5.96931
 20
13.69834
 30
0.0
 10
5.96931
 20
13.69834
 30
0.0
 10
5.93586
 20
13.74342
 30
0.0
 10
5.88887
 20
13.76607
 30
0.0
 10
5.82855
 20
13.76607
 30
0.0
 10
5.82855
 20
13.76607
 30
0.0
 10
5.76801
 20
13.76607
 30
0.0
 10
5.72102
 20
13.74342
 30
0.0
 10
5.688
 20
13.69834
 30
0.0
 10
5.688
 20
13.69834
 30
0.0
 10
5.65477
 20
13.65304
 30
0.0
 10
5.63826
 20
13.58912
 30
0.0
 10
5.63826
 20
13.50678
 30
0.0
 10
5.63826
 20
13.50678
 30
0.0
 10
5.63826
 20
13.42423
 30
0.0
 10
5.65477
 20
13.36009
 30
0.0
 10
5.688
 20
13.3148
 30
0.0
 10
5.688
 20
13.3148
 30
0.0
 10
5.72102
 20
13.26929
 30
0.0
 10
5.76801
 20
13.24664
 30
0.0
 10
5.82855
 20
13.24664
 30
0.0
  0
SPLINE
  5
6A
330
1F
100
AcDbEntity
  8
Layer 1
100
AcDbSpline
210
0.0
220
0.0
230
1.0
 70
    11
 71
     3
 72
    48
 73
    44
 74
     0
 42
0.0000000001
 43
0.0000000001
 12
1.0
 22
0.0
 32
0.0
 13
1.0
 23
0.0
 33
0.0
 40
0.0
 40
0.0
 40
0.0
 40
0.0
 40
0.0833333333333333
 40
0.0833333333333333
 40
0.0833333333333333
 40
0.0833333333333333
 40
0.1666666666666667
 40
0.1666666666666667
 40
0.1666666666666667
 40
0.1666666666666667
 40
0.25
 40
0.25
 40
0.25
 40
0.25
 40
0.3333333333333333
 40
0.3333333333333333
 40
0.3333333333333333
 40
0.3333333333333333
 40
0.4166666666666667
 40
0.4166666666666667
 40
0.4166666666666667
 40
0.4166666666666667
 40
0.5
 40
0.5
 40
0.5
 40
0.5
 40
0.5833333333333334
 40
0.5833333333333334
 40
0.5833333333333334
 40
0.5833333333333334
 40
0.6666666666666666
 40
0.6666666666666666
 40
0.6666666666666666
 40
0.6666666666666666
 40
0.75
 40
0.75
 40
0.75
 40
0.75
 40
0.8333333333333334
 40
0.8333333333333334
 40
0.8333333333333334
 40
0.8333333333333334
 40
1.0
 40
1.0
 40
1.0
 40
1.0
 10
6.34099
 20
12.92533
 30
0.0
 10
6.34099
 20
12.92533
 30
0.0
 10
6.34099
 20
13.84354
 30
0.0
 10
6.34099
 20
13.84354
 30
0.0
 10
6.34099
 20
13.84354
 30
0.0
 10
6.34099
 20
13.84354
 30
0.0
 10
6.46291
 20
13.84354
 30
0.0
 10
6.46291
 20
13.84354
 30
0.0
 10
6.46291
 20
13.84354
 30
0.0
 10
6.46291
 20
13.84354
 30
0.0
 10
6.46291
 20
13.71633
 30
0.0
 10
6.46291
 20
13.71633
 30
0.0
 10
6.46291
 20
13.71633
 30
0.0
 10
6.51286
 20
13.81052
 30
0.0
 10
6.58801
 20
13.85751
 30
0.0
 10
6.68812
 20
13.85751
 30
0.0
 10
6.68812
 20
13.85751
 30
0.0
 10
6.76919
 20
13.85751
 30
0.0
 10
6.8329
 20
13.82809
 30
0.0
 10
6.87947
 20
13.76903
 30
0.0
 10
6.87947
 20
13.76903
 30
0.0
 10
6.92604
 20
13.70998
 30
0.0
 10
6.94932
 20
13.62933
 30
0.0
 10
6.94932
 20
13.5271
 30
0.0
 10
6.94932
 20
13.5271
 30
0.0
 10
6.94932
 20
13.41576
 30
0.0
 10
6.92286
 20
13.3258
 30
0.0
 10
6.87016
 20
13.25765
 30
0.0
 10
6.87016
 20
13.25765
 30
0.0
 10
6.81745
 20
13.18928
 30
0.0
 10
6.74803
 20
13.1552
 30
0.0
 10
6.66209
 20
13.1552
 30
0.0
 10
6.66209
 20
13.1552
 30
0.0
 10
6.58229
 20
13.1552
 30
0.0
 10
6.51583
 20
13.18568
 30
0.0
 10
6.46291
 20
13.24685
 30
0.0
 10
6.46291
 20
13.24685
 30
0.0
 10
6.46291
 20
13.24685
 30
0.0
 10
6.46291
 20
12.92533
 30
0.0
 10
6.46291
 20
12.92533
 30
0.0
 10
6.46291
 20
12.92533
 30
0.0
 10
6.46291
 20
12.92533
 30
0.0
 10
6.34099
 20
12.92533
 30
0.0
 10
6.34099
 20
12.92533
 30
0.0
  0
SPLINE
  5
6B
330
1F
100
AcDbEntity
  8
Layer 1
100
AcDbSpline
210
0.0
220
0.0
230
1.0
 70
    11
 71
     3
 72
    28
 73
    24
 74
     0
 42
0.0000000001
 43
0.0000000001
 12
1.0
 22
0.0
 32
0.0
 13
1.0
 23
0.0
 33
0.0
 40
0.0
 40
0.0
 40
0.0
 40
0.0
 40
0.1428571428571428
 40
0.1428571428571428
 40
0.1428571428571428
 40
0.1428571428571428
 40
0.2857142857142857
 40
0.2857142857142857
 40
0.2857142857142857
 40
0.2857142857142857
 40
0.4285714285714285
 40
0.4285714285714285
 40
0.4285714285714285
 40
0.4285714285714285
 40
0.5714285714285714
 40
0.5714285714285714
 40
0.5714285714285714
 40
0.5714285714285714
 40
0.7142857142857143
 40
0.7142857142857143
 40
0.7142857142857143
 40
0.7142857142857143
 40
1.0
 40
1.0
 40
1.0
 40
1.0
 10
6.46291
 20
13.33088
 30
0.0
 10
6.52578
 20
13.27479
 30
0.0
 10
6.58568
 20
13.24664
 30
0.0
 10
6.64262
 20
13.24664
 30
0.0
 10
6.64262
 20
13.24664
 30
0.0
 10
6.69871
 20
13.24664
 30
0.0
 10
6.7421
 20
13.27014
 30
0.0
 10
6.77258
 20
13.31691
 30
0.0
 10
6.77258
 20
13.31691
 30
0.0
 10
6.80327
 20
13.36369
 30
0.0
 10
6.81851
 20
13.42952
 30
0.0
 10
6.81851
 20
13.51461
 30
0.0
 10
6.81851
 20
13.51461
 30
0.0
 10
6.81851
 20
13.67209
 30
0.0
 10
6.76644
 20
13.75083
 30
0.0
 10
6.6623
 20
13.75083
 30
0.0
 10
6.6623
 20
13.75083
 30
0.0
 10
6.59414
 20
13.75083
 30
0.0
 10
6.52768
 20
13.714
 30
0.0
 10
6.46291
 20
13.64013
 30
0.0
 10
6.46291
 20
13.64013
 30
0.0
 10
6.46291
 20
13.64013
 30
0.0
 10
6.46291
 20
13.33088
 30
0.0
 10
6.46291
 20
13.33088
 30
0.0
  0
SPLINE
  5
6C
330
1F
100
AcDbEntity
  8
Layer 1
100
AcDbSpline
210
0.0
220
0.0
230
1.0
 70
    11
 71
     3
 72
    20
 73
    16
 74
     0
 42
0.0000000001
 43
0.0000000001
 12
1.0
 22
0.0
 32
0.0
 13
1.0
 23
0.0
 33
0.0
 40
0.0
 40
0.0
 40
0.0
 40
0.0
 40
0.2
 40
0.2
 40
0.2
 40
0.2
 40
0.4
 40
0.4
 40
0.4
 40
0.4
 40
0.6
 40
0.6
 40
0.6
 40
0.6
 40
1.0
 40
1.0
 40
1.0
 40
1.0
 10
7.07166
 20
13.079
 30
0.0
 10
7.07166
 20
13.079
 30
0.0
 10
7.07166
 20
13.17044
 30
0.0
 10
7.07166
 20
13.17044
 30
0.0
 10
7.07166
 20
13.17044
 30
0.0
 10
7.07166
 20
13.17044
 30
0.0
 10
7.59998
 20
13.17044
 30
0.0
 10
7.59998
 20
13.17044
 30
0.0
 10
7.59998
 20
13.17044
 30
0.0
 10
7.59998
 20
13.17044
 30
0.0
 10
7.59998
 20
13.079
 30
0.0
 10
7.59998
 20
13.079
 30
0.0
 10
7.59998
 20
13.079
 30
0.0
 10
7.59998
 20
13.079
 30
0.0
 10
7.07166
 20
13.079
 30
0.0
 10
7.07166
 20
13.079
 30
0.0
  0
SPLINE
  5
6D
330
1F
100
AcDbEntity
  8
Layer 1
100
AcDbSpline
210
0.0
220
0.0
230
1.0
 70
    11
 71
     3
 72
    92
 73
    88
 74
     0
 42
0.0000000001
 43
0.0000000001
 12
1.0
 22
0.0
 32
0.0
 13
1.0
 23
0.0
 33
0.0
 40
0.0
 40
0.0
 40
0.0
 40
0.0
 40
0.0434782608695652
 40
0.0434782608695652
 40
0.0434782608695652
 40
0.0434782608695652
 40
0.0869565217391304
 40
0.0869565217391304
 40
0.0869565217391304
 40
0.0869565217391304
 40
0.1304347826086956
 40
0.1304347826086956
 40
0.1304347826086956
 40
0.1304347826086956
 40
0.1739130434782609
 40
0.1739130434782609
 40
0.1739130434782609
 40
0.1739130434782609
 40
0.2173913043478261
 40
0.2173913043478261
 40
0.2173913043478261
 40
0.2173913043478261
 40
0.2608695652173913
 40
0.2608695652173913
 40
0.2608695652173913
 40
0.2608695652173913
 40
0.3043478260869565
 40
0.3043478260869565
 40
0.3043478260869565
 40
0.3043478260869565
 40
0.3478260869565217
 40
0.3478260869565217
 40
0.3478260869565217
 40
0.3478260869565217
 40
0.391304347826087
 40
0.391304347826087
 40
0.391304347826087
 40
0.391304347826087
 40
0.4347826086956522
 40
0.4347826086956522
 40
0.4347826086956522
 40
0.4347826086956522
 40
0.4782608695652174
 40
0.4782608695652174
 40
0.4782608695652174
 40
0.4782608695652174
 40
0.5217391304347826
 40
0.5217391304347826
 40
0.5217391304347826
 40
0.5217391304347826
 40
0.5652173913043478
 40
0.5652173913043478
 40
0.5652173913043478
 40
0.5652173913043478
 40
0.6086956521739131
 40
0.6086956521739131
 40
0.6086956521739131
 40
0.6086956521739131
 40
0.6521739130434783
 40
0.6521739130434783
 40
0.6521739130434783
 40
0.6521739130434783
 40
0.6956521739130435
 40
0.6956521739130435
 40
0.6956521739130435
 40
0.6956521739130435
 40
0.7391304347826086
 40
0.7391304347826086
 40
0.7391304347826086
 40
0.7391304347826086
 40
0.782608695652174
 40
0.782608695652174
 40
0.782608695652174
 40
0.782608695652174
 40
0.8260869565217391
 40
0.8260869565217391
 40
0.8260869565217391
 40
0.8260869565217391
 40
0.8695652173913043
 40
0.8695652173913043
 40
0.8695652173913043
 40
0.8695652173913043
 40
0.9130434782608695
 40
0.9130434782608695
 40
0.9130434782608695
 40
0.9130434782608695
 40
1.0
 40
1.0
 40
1.0
 40
1.0
 10
7.75111
 20
13.19457
 30
0.0
 10
7.75111
 20
13.19457
 30
0.0
 10
7.75111
 20
13.30633
 30
0.0
 10
7.75111
 20
13.30633
 30
0.0
 10
7.75111
 20
13.30633
 30
0.0
 10
7.83091
 20
13.26654
 30
0.0
 10
7.90012
 20
13.24664
 30
0.0
 10
7.95918
 20
13.24664
 30
0.0
 10
7.95918
 20
13.24664
 30
0.0
 10
7.99432
 20
13.24664
 30
0.0
 10
8.02353
 20
13.25617
 30
0.0
 10
8.0466
 20
13.27522
 30
0.0
 10
8.0466
 20
13.27522
 30
0.0
 10
8.06967
 20
13.29405
 30
0.0
 10
8.08131
 20
13.31776
 30
0.0
 10
8.08131
 20
13.34634
 30
0.0
 10
8.08131
 20
13.34634
 30
0.0
 10
8.08131
 20
13.38803
 30
0.0
 10
8.04893
 20
13.42254
 30
0.0
 10
7.98416
 20
13.44984
 30
0.0
 10
7.98416
 20
13.44984
 30
0.0
 10
7.98416
 20
13.44984
 30
0.0
 10
7.91282
 20
13.48011
 30
0.0
 10
7.91282
 20
13.48011
 30
0.0
 10
7.91282
 20
13.48011
 30
0.0
 10
7.80763
 20
13.52371
 30
0.0
 10
7.75492
 20
13.58679
 30
0.0
 10
7.75492
 20
13.6687
 30
0.0
 10
7.75492
 20
13.6687
 30
0.0
 10
7.75492
 20
13.72734
 30
0.0
 10
7.77566
 20
13.77348
 30
0.0
 10
7.81715
 20
13.80713
 30
0.0
 10
7.81715
 20
13.80713
 30
0.0
 10
7.85864
 20
13.84079
 30
0.0
 10
7.91558
 20
13.85751
 30
0.0
 10
7.98775
 20
13.85751
 30
0.0
 10
7.98775
 20
13.85751
 30
0.0
 10
8.02522
 20
13.85751
 30
0.0
 10
8.07179
 20
13.85243
 30
0.0
 10
8.12703
 20
13.84206
 30
0.0
 10
8.12703
 20
13.84206
 30
0.0
 10
8.12703
 20
13.84206
 30
0.0
 10
8.15243
 20
13.83719
 30
0.0
 10
8.15243
 20
13.83719
 30
0.0
 10
8.15243
 20
13.83719
 30
0.0
 10
8.15243
 20
13.83719
 30
0.0
 10
8.15243
 20
13.73559
 30
0.0
 10
8.15243
 20
13.73559
 30
0.0
 10
8.15243
 20
13.73559
 30
0.0
 10
8.08449
 20
13.75591
 30
0.0
 10
8.0303
 20
13.76607
 30
0.0
 10
7.98987
 20
13.76607
 30
0.0
 10
7.98987
 20
13.76607
 30
0.0
 10
7.95431
 20
13.76607
 30
0.0
 10
7.92616
 20
13.75824
 30
0.0
 10
7.90478
 20
13.74279
 30
0.0
 10
7.90478
 20
13.74279
 30
0.0
 10
7.88361
 20
13.72734
 30
0.0
 10
7.87303
 20
13.70659
 30
0.0
 10
7.87303
 20
13.68056
 30
0.0
 10
7.87303
 20
13.68056
 30
0.0
 10
7.87303
 20
13.64394
 30
0.0
 10
7.90266
 20
13.61282
 30
0.0
 10
7.96214
 20
13.58764
 30
0.0
 10
7.96214
 20
13.58764
 30
0.0
 10
7.96214
 20
13.58764
 30
0.0
 10
8.02077
 20
13.56287
 30
0.0
 10
8.02077
 20
13.56287
 30
0.0
 10
8.02077
 20
13.56287
 30
0.0
 10
8.08724
 20
13.53493
 30
0.0
 10
8.13423
 20
13.5053
 30
0.0
 10
8.16174
 20
13.47418
 30
0.0
 10
8.16174
 20
13.47418
 30
0.0
 10
8.18947
 20
13.44307
 30
0.0
 10
8.20323
 20
13.40412
 30
0.0
 10
8.20323
 20
13.35755
 30
0.0
 10
8.20323
 20
13.35755
 30
0.0
 10
8.20323
 20
13.2985
 30
0.0
 10
8.17995
 20
13.25003
 30
0.0
 10
8.13317
 20
13.21214
 30
0.0
 10
8.13317
 20
13.21214
 30
0.0
 10
8.0866
 20
13.17425
 30
0.0
 10
8.02691
 20
13.1552
 30
0.0
 10
7.95431
 20
13.1552
 30
0.0
 10
7.95431
 20
13.1552
 30
0.0
 10
7.89843
 20
13.1552
 30
0.0
 10
7.83091
 20
13.16832
 30
0.0
 10
7.75111
 20
13.19457
 30
0.0
  0
SPLINE
  5
6E
330
1F
100
AcDbEntity
  8
Layer 1
100
AcDbSpline
210
0.0
220
0.0
230
1.0
 70
    11
 71
     3
 72
    48
 73
    44
 74
     0
 42
0.0000000001
 43
0.0000000001
 12
1.0
 22
0.0
 32
0.0
 13
1.0
 23
0.0
 33
0.0
 40
0.0
 40
0.0
 40
0.0
 40
0.0
 40
0.0833333333333333
 40
0.0833333333333333
 40
0.0833333333333333
 40
0.0833333333333333
 40
0.1666666666666667
 40
0.1666666666666667
 40
0.1666666666666667
 40
0.1666666666666667
 40
0.25
 40
0.25
 40
0.25
 40
0.25
 40
0.3333333333333333
 40
0.3333333333333333
 40
0.3333333333333333
 40
0.3333333333333333
 40
0.4166666666666667
 40
0.4166666666666667
 40
0.4166666666666667
 40
0.4166666666666667
 40
0.5
 40
0.5
 40
0.5
 40
0.5
 40
0.5833333333333334
 40
0.5833333333333334
 40
0.5833333333333334
 40
0.5833333333333334
 40
0.6666666666666666
 40
0.6666666666666666
 40
0.6666666666666666
 40
0.6666666666666666
 40
0.75
 40
0.75
 40
0.75
 40
0.75
 40
0.8333333333333334
 40
0.8333333333333334
 40
0.8333333333333334
 40
0.8333333333333334
 40
1.0
 40
1.0
 40
1.0
 40
1.0
 10
8.42273
 20
12.92533
 30
0.0
 10
8.42273
 20
12.92533
 30
0.0
 10
8.42273
 20
13.84354
 30
0.0
 10
8.42273
 20
13.84354
 30
0.0
 10
8.42273
 20
13.84354
 30
0.0
 10
8.42273
 20
13.84354
 30
0.0
 10
8.54465
 20
13.84354
 30
0.0
 10
8.54465
 20
13.84354
 30
0.0
 10
8.54465
 20
13.84354
 30
0.0
 10
8.54465
 20
13.84354
 30
0.0
 10
8.54465
 20
13.71633
 30
0.0
 10
8.54465
 20
13.71633
 30
0.0
 10
8.54465
 20
13.71633
 30
0.0
 10
8.5946
 20
13.81052
 30
0.0
 10
8.66975
 20
13.85751
 30
0.0
 10
8.76986
 20
13.85751
 30
0.0
 10
8.76986
 20
13.85751
 30
0.0
 10
8.85093
 20
13.85751
 30
0.0
 10
8.91464
 20
13.82809
 30
0.0
 10
8.96121
 20
13.76903
 30
0.0
 10
8.96121
 20
13.76903
 30
0.0
 10
9.00778
 20
13.70998
 30
0.0
 10
9.03106
 20
13.62933
 30
0.0
 10
9.03106
 20
13.5271
 30
0.0
 10
9.03106
 20
13.5271
 30
0.0
 10
9.03106
 20
13.41576
 30
0.0
 10
9.0046
 20
13.3258
 30
0.0
 10
8.9519
 20
13.25765
 30
0.0
 10
8.9519
 20
13.25765
 30
0.0
 10
8.89919
 20
13.18928
 30
0.0
 10
8.82977
 20
13.1552
 30
0.0
 10
8.74383
 20
13.1552
 30
0.0
 10
8.74383
 20
13.1552
 30
0.0
 10
8.66403
 20
13.1552
 30
0.0
 10
8.59757
 20
13.18568
 30
0.0
 10
8.54465
 20
13.24685
 30
0.0
 10
8.54465
 20
13.24685
 30
0.0
 10
8.54465
 20
13.24685
 30
0.0
 10
8.54465
 20
12.92533
 30
0.0
 10
8.54465
 20
12.92533
 30
0.0
 10
8.54465
 20
12.92533
 30
0.0
 10
8.54465
 20
12.92533
 30
0.0
 10
8.42273
 20
12.92533
 30
0.0
 10
8.42273
 20
12.92533
 30
0.0
  0
SPLINE
  5
6F
330
1F
100
AcDbEntity
  8
Layer 1
100
AcDbSpline
210
0.0
220
0.0
230
1.0
 70
    11
 71
     3
 72
    28
 73
    24
 74
     0
 42
0.0000000001
 43
0.0000000001
 12
1.0
 22
0.0
 32
0.0
 13
1.0
 23
0.0
 33
0.0
 40
0.0
 40
0.0
 40
0.0
 40
0.0
 40
0.1428571428571428
 40
0.1428571428571428
 40
0.1428571428571428
 40
0.1428571428571428
 40
0.2857142857142857
 40
0.2857142857142857
 40
0.2857142857142857
 40
0.2857142857142857
 40
0.4285714285714285
 40
0.4285714285714285
 40
0.4285714285714285
 40
0.4285714285714285
 40
0.5714285714285714
 40
0.5714285714285714
 40
0.5714285714285714
 40
0.5714285714285714
 40
0.7142857142857143
 40
0.7142857142857143
 40
0.7142857142857143
 40
0.7142857142857143
 40
1.0
 40
1.0
 40
1.0
 40
1.0
 10
8.54465
 20
13.33088
 30
0.0
 10
8.60752
 20
13.27479
 30
0.0
 10
8.66742
 20
13.24664
 30
0.0
 10
8.72436
 20
13.24664
 30
0.0
 10
8.72436
 20
13.24664
 30
0.0
 10
8.78045
 20
13.24664
 30
0.0
 10
8.82384
 20
13.27014
 30
0.0
 10
8.85432
 20
13.31691
 30
0.0
 10
8.85432
 20
13.31691
 30
0.0
 10
8.88501
 20
13.36369
 30
0.0
 10
8.90025
 20
13.42952
 30
0.0
 10
8.90025
 20
13.51461
 30
0.0
 10
8.90025
 20
13.51461
 30
0.0
 10
8.90025
 20
13.67209
 30
0.0
 10
8.84818
 20
13.75083
 30
0.0
 10
8.74404
 20
13.75083
 30
0.0
 10
8.74404
 20
13.75083
 30
0.0
 10
8.67588
 20
13.75083
 30
0.0
 10
8.60942
 20
13.714
 30
0.0
 10
8.54465
 20
13.64013
 30
0.0
 10
8.54465
 20
13.64013
 30
0.0
 10
8.54465
 20
13.64013
 30
0.0
 10
8.54465
 20
13.33088
 30
0.0
 10
8.54465
 20
13.33088
 30
0.0
  0
SPLINE
  5
70
330
1F
100
AcDbEntity
  8
Layer 1
100
AcDbSpline
210
0.0
220
0.0
230
1.0
 70
    11
 71
     3
 72
    80
 73
    76
 74
     0
 42
0.0000000001
 43
0.0000000001
 12
1.0
 22
0.0
 32
0.0
 13
1.0
 23
0.0
 33
0.0
 40
0.0
 40
0.0
 40
0.0
 40
0.0
 40
0.05
 40
0.05
 40
0.05
 40
0.05
 40
0.1
 40
0.1
 40
0.1
 40
0.1
 40
0.15
 40
0.15
 40
0.15
 40
0.15
 40
0.2
 40
0.2
 40
0.2
 40
0.2
 40
0.25
 40
0.25
 40
0.25
 40
0.25
 40
0.3
 40
0.3
 40
0.3
 40
0.3
 40
0.35
 40
0.35
 40
0.35
 40
0.35
 40
0.4
 40
0.4
 40
0.4
 40
0.4
 40
0.45
 40
0.45
 40
0.45
 40
0.45
 40
0.5
 40
0.5
 40
0.5
 40
0.5
 40
0.55
 40
0.55
 40
0.55
 40
0.55
 40
0.6
 40
0.6
 40
0.6
 40
0.6
 40
0.65
 40
0.65
 40
0.65
 40
0.65
 40
0.7
 40
0.7
 40
0.7
 40
0.7
 40
0.75
 40
0.75
 40
0.75
 40
0.75
 40
0.8
 40
0.8
 40
0.8
 40
0.8
 40
0.85
 40
0.85
 40
0.85
 40
0.85
 40
0.9
 40
0.9
 40
0.9
 40
0.9
 40
1.0
 40
1.0
 40
1.0
 40
1.0
 10
9.5689
 20
13.25617
 30
0.0
 10
9.49567
 20
13.18886
 30
0.0
 10
9.42518
 20
13.1552
 30
0.0
 10
9.35745
 20
13.1552
 30
0.0
 10
9.35745
 20
13.1552
 30
0.0
 10
9.30178
 20
13.1552
 30
0.0
 10
9.25542
 20
13.17256
 30
0.0
 10
9.21881
 20
13.20748
 30
0.0
 10
9.21881
 20
13.20748
 30
0.0
 10
9.18198
 20
13.24241
 30
0.0
 10
9.16356
 20
13.28643
 30
0.0
 10
9.16356
 20
13.33956
 30
0.0
 10
9.16356
 20
13.33956
 30
0.0
 10
9.16356
 20
13.41301
 30
0.0
 10
9.19446
 20
13.46953
 30
0.0
 10
9.25627
 20
13.5089
 30
0.0
 10
9.25627
 20
13.5089
 30
0.0
 10
9.31808
 20
13.54827
 30
0.0
 10
9.40677
 20
13.56795
 30
0.0
 10
9.52234
 20
13.56795
 30
0.0
 10
9.52234
 20
13.56795
 30
0.0
 10
9.52234
 20
13.56795
 30
0.0
 10
9.55091
 20
13.56795
 30
0.0
 10
9.55091
 20
13.56795
 30
0.0
 10
9.55091
 20
13.56795
 30
0.0
 10
9.55091
 20
13.56795
 30
0.0
 10
9.55091
 20
13.64902
 30
0.0
 10
9.55091
 20
13.64902
 30
0.0
 10
9.55091
 20
13.64902
 30
0.0
 10
9.55091
 20
13.72712
 30
0.0
 10
9.51027
 20
13.76607
 30
0.0
 10
9.42878
 20
13.76607
 30
0.0
 10
9.42878
 20
13.76607
 30
0.0
 10
9.3657
 20
13.76607
 30
0.0
 10
9.2967
 20
13.74617
 30
0.0
 10
9.22198
 20
13.70638
 30
0.0
 10
9.22198
 20
13.70638
 30
0.0
 10
9.22198
 20
13.70638
 30
0.0
 10
9.22198
 20
13.80671
 30
0.0
 10
9.22198
 20
13.80671
 30
0.0
 10
9.22198
 20
13.80671
 30
0.0
 10
9.30411
 20
13.84058
 30
0.0
 10
9.38158
 20
13.85751
 30
0.0
 10
9.45418
 20
13.85751
 30
0.0
 10
9.45418
 20
13.85751
 30
0.0
 10
9.5289
 20
13.85751
 30
0.0
 10
9.58414
 20
13.84058
 30
0.0
 10
9.61949
 20
13.8065
 30
0.0
 10
9.61949
 20
13.8065
 30
0.0
 10
9.65505
 20
13.77242
 30
0.0
 10
9.67283
 20
13.71993
 30
0.0
 10
9.67283
 20
13.64902
 30
0.0
 10
9.67283
 20
13.64902
 30
0.0
 10
9.67283
 20
13.64902
 30
0.0
 10
9.67283
 20
13.34485
 30
0.0
 10
9.67283
 20
13.34485
 30
0.0
 10
9.67283
 20
13.34485
 30
0.0
 10
9.67283
 20
13.27522
 30
0.0
 10
9.69421
 20
13.24029
 30
0.0
 10
9.73718
 20
13.24029
 30
0.0
 10
9.73718
 20
13.24029
 30
0.0
 10
9.74247
 20
13.24029
 30
0.0
 10
9.7503
 20
13.24114
 30
0.0
 10
9.76067
 20
13.24283
 30
0.0
 10
9.76067
 20
13.24283
 30
0.0
 10
9.76067
 20
13.24283
 30
0.0
 10
9.76935
 20
13.1751
 30
0.0
 10
9.76935
 20
13.1751
 30
0.0
 10
9.76935
 20
13.1751
 30
0.0
 10
9.74162
 20
13.16176
 30
0.0
 10
9.71114
 20
13.1552
 30
0.0
 10
9.6777
 20
13.1552
 30
0.0
 10
9.6777
 20
13.1552
 30
0.0
 10
9.62076
 20
13.1552
 30
0.0
 10
9.58457
 20
13.18886
 30
0.0
 10
9.5689
 20
13.25617
 30
0.0
  0
SPLINE
  5
71
330
1F
100
AcDbEntity
  8
Layer 1
100
AcDbSpline
210
0.0
220
0.0
230
1.0
 70
    11
 71
     3
 72
    32
 73
    28
 74
     0
 42
0.0000000001
 43
0.0000000001
 12
1.0
 22
0.0
 32
0.0
 13
1.0
 23
0.0
 33
0.0
 40
0.0
 40
0.0
 40
0.0
 40
0.0
 40
0.125
 40
0.125
 40
0.125
 40
0.125
 40
0.25
 40
0.25
 40
0.25
 40
0.25
 40
0.375
 40
0.375
 40
0.375
 40
0.375
 40
0.5
 40
0.5
 40
0.5
 40
0.5
 40
0.625
 40
0.625
 40
0.625
 40
0.625
 40
0.75
 40
0.75
 40
0.75
 40
0.75
 40
1.0
 40
1.0
 40
1.0
 40
1.0
 10
9.55091
 20
13.32263
 30
0.0
 10
9.55091
 20
13.32263
 30
0.0
 10
9.55091
 20
13.49556
 30
0.0
 10
9.55091
 20
13.49556
 30
0.0
 10
9.55091
 20
13.49556
 30
0.0
 10
9.55091
 20
13.49556
 30
0.0
 10
9.51175
 20
13.49683
 30
0.0
 10
9.51175
 20
13.49683
 30
0.0
 10
9.51175
 20
13.49683
 30
0.0
 10
9.44402
 20
13.49683
 30
0.0
 10
9.38941
 20
13.48434
 30
0.0
 10
9.34771
 20
13.45937
 30
0.0
 10
9.34771
 20
13.45937
 30
0.0
 10
9.30622
 20
13.43418
 30
0.0
 10
9.28548
 20
13.40095
 30
0.0
 10
9.28548
 20
13.35946
 30
0.0
 10
9.28548
 20
13.35946
 30
0.0
 10
9.28548
 20
13.33046
 30
0.0
 10
9.29585
 20
13.30591
 30
0.0
 10
9.31638
 20
13.2858
 30
0.0
 10
9.31638
 20
13.2858
 30
0.0
 10
9.33713
 20
13.26569
 30
0.0
 10
9.36232
 20
13.25553
 30
0.0
 10
9.39216
 20
13.25553
 30
0.0
 10
9.39216
 20
13.25553
 30
0.0
 10
9.44296
 20
13.25553
 30
0.0
 10
9.49588
 20
13.27797
 30
0.0
 10
9.55091
 20
13.32263
 30
0.0
  0
SPLINE
  5
72
330
1F
100
AcDbEntity
  8
Layer 1
100
AcDbSpline
210
0.0
220
0.0
230
1.0
 70
    11
 71
     3
 72
    60
 73
    56
 74
     0
 42
0.0000000001
 43
0.0000000001
 12
1.0
 22
0.0
 32
0.0
 13
1.0
 23
0.0
 33
0.0
 40
0.0
 40
0.0
 40
0.0
 40
0.0
 40
0.0666666666666667
 40
0.0666666666666667
 40
0.0666666666666667
 40
0.0666666666666667
 40
0.1333333333333333
 40
0.1333333333333333
 40
0.1333333333333333
 40
0.1333333333333333
 40
0.2
 40
0.2
 40
0.2
 40
0.2
 40
0.2666666666666667
 40
0.2666666666666667
 40
0.2666666666666667
 40
0.2666666666666667
 40
0.3333333333333333
 40
0.3333333333333333
 40
0.3333333333333333
 40
0.3333333333333333
 40
0.4
 40
0.4
 40
0.4
 40
0.4
 40
0.4666666666666667
 40
0.4666666666666667
 40
0.4666666666666667
 40
0.4666666666666667
 40
0.5333333333333333
 40
0.5333333333333333
 40
0.5333333333333333
 40
0.5333333333333333
 40
0.6
 40
0.6
 40
0.6
 40
0.6
 40
0.6666666666666666
 40
0.6666666666666666
 40
0.6666666666666666
 40
0.6666666666666666
 40
0.7333333333333333
 40
0.7333333333333333
 40
0.7333333333333333
 40
0.7333333333333333
 40
0.8
 40
0.8
 40
0.8
 40
0.8
 40
0.8666666666666667
 40
0.8666666666666667
 40
0.8666666666666667
 40
0.8666666666666667
 40
1.0
 40
1.0
 40
1.0
 40
1.0
 10
10.39059
 20
13.19076
 30
0.0
 10
10.31164
 20
13.16705
 30
0.0
 10
10.24348
 20
13.1552
 30
0.0
 10
10.18612
 20
13.1552
 30
0.0
 10
10.18612
 20
13.1552
 30
0.0
 10
10.0951
 20
13.1552
 30
0.0
 10
10.01975
 20
13.18886
 30
0.0
 10
9.95985
 20
13.25595
 30
0.0
 10
9.95985
 20
13.25595
 30
0.0
 10
9.89995
 20
13.32326
 30
0.0
 10
9.86989
 20
13.40814
 30
0.0
 10
9.86989
 20
13.51038
 30
0.0
 10
9.86989
 20
13.51038
 30
0.0
 10
9.86989
 20
13.6196
 30
0.0
 10
9.89952
 20
13.7049
 30
0.0
 10
9.95879
 20
13.76586
 30
0.0
 10
9.95879
 20
13.76586
 30
0.0
 10
10.01806
 20
13.82703
 30
0.0
 10
10.10082
 20
13.85751
 30
0.0
 10
10.20708
 20
13.85751
 30
0.0
 10
10.20708
 20
13.85751
 30
0.0
 10
10.25936
 20
13.85751
 30
0.0
 10
10.3182
 20
13.85031
 30
0.0
 10
10.38297
 20
13.83592
 30
0.0
 10
10.38297
 20
13.83592
 30
0.0
 10
10.38297
 20
13.83592
 30
0.0
 10
10.38297
 20
13.73305
 30
0.0
 10
10.38297
 20
13.73305
 30
0.0
 10
10.38297
 20
13.73305
 30
0.0
 10
10.31418
 20
13.75337
 30
0.0
 10
10.25809
 20
13.76353
 30
0.0
 10
10.21491
 20
13.76353
 30
0.0
 10
10.21491
 20
13.76353
 30
0.0
 10
10.15225
 20
13.76353
 30
0.0
 10
10.10209
 20
13.74004
 30
0.0
 10
10.06462
 20
13.69326
 30
0.0
 10
10.06462
 20
13.69326
 30
0.0
 10
10.02716
 20
13.64648
 30
0.0
 10
10.00832
 20
13.58404
 30
0.0
 10
10.00832
 20
13.50614
 30
0.0
 10
10.00832
 20
13.50614
 30
0.0
 10
10.00832
 20
13.43058
 30
0.0
 10
10.02779
 20
13.36962
 30
0.0
 10
10.06653
 20
13.32284
 30
0.0
 10
10.06653
 20
13.32284
 30
0.0
 10
10.10526
 20
13.27627
 30
0.0
 10
10.15585
 20
13.25299
 30
0.0
 10
10.21872
 20
13.25299
 30
0.0
 10
10.21872
 20
13.25299
 30
0.0
 10
10.27439
 20
13.25299
 30
0.0
 10
10.33154
 20
13.26738
 30
0.0
 10
10.39059
 20
13.29617
 30
0.0
 10
10.39059
 20
13.29617
 30
0.0
 10
10.39059
 20
13.29617
 30
0.0
 10
10.39059
 20
13.19076
 30
0.0
 10
10.39059
 20
13.19076
 30
0.0
  0
SPLINE
  5
73
330
1F
100
AcDbEntity
  8
Layer 1
100
AcDbSpline
210
0.0
220
0.0
230
1.0
 70
    11
 71
     3
 72
    52
 73
    48
 74
     0
 42
0.0000000001
 43
0.0000000001
 12
1.0
 22
0.0
 32
0.0
 13
1.0
 23
0.0
 33
0.0
 40
0.0
 40
0.0
 40
0.0
 40
0.0
 40
0.0769230769230769
 40
0.0769230769230769
 40
0.0769230769230769
 40
0.0769230769230769
 40
0.1538461538461539
 40
0.1538461538461539
 40
0.1538461538461539
 40
0.1538461538461539
 40
0.2307692307692308
 40
0.2307692307692308
 40
0.2307692307692308
 40
0.2307692307692308
 40
0.3076923076923077
 40
0.3076923076923077
 40
0.3076923076923077
 40
0.3076923076923077
 40
0.3846153846153846
 40
0.3846153846153846
 40
0.3846153846153846
 40
0.3846153846153846
 40
0.4615384615384616
 40
0.4615384615384616
 40
0.4615384615384616
 40
0.4615384615384616
 40
0.5384615384615384
 40
0.5384615384615384
 40
0.5384615384615384
 40
0.5384615384615384
 40
0.6153846153846154
 40
0.6153846153846154
 40
0.6153846153846154
 40
0.6153846153846154
 40
0.6923076923076923
 40
0.6923076923076923
 40
0.6923076923076923
 40
0.6923076923076923
 40
0.7692307692307693
 40
0.7692307692307693
 40
0.7692307692307693
 40
0.7692307692307693
 40
0.8461538461538461
 40
0.8461538461538461
 40
0.8461538461538461
 40
0.8461538461538461
 40
1.0
 40
1.0
 40
1.0
 40
1.0
 10
11.06771
 20
13.19203
 30
0.0
 10
10.9858
 20
13.16748
 30
0.0
 10
10.91573
 20
13.1552
 30
0.0
 10
10.85731
 20
13.1552
 30
0.0
 10
10.85731
 20
13.1552
 30
0.0
 10
10.75762
 20
13.1552
 30
0.0
 10
10.67655
 20
13.18822
 30
0.0
 10
10.61411
 20
13.25405
 30
0.0
 10
10.61411
 20
13.25405
 30
0.0
 10
10.55167
 20
13.31988
 30
0.0
 10
10.52034
 20
13.40518
 30
0.0
 10
10.52034
 20
13.51017
 30
0.0
 10
10.52034
 20
13.51017
 30
0.0
 10
10.52034
 20
13.61198
 30
0.0
 10
10.54786
 20
13.69559
 30
0.0
 10
10.6031
 20
13.76099
 30
0.0
 10
10.6031
 20
13.76099
 30
0.0
 10
10.65835
 20
13.82618
 30
0.0
 10
10.72904
 20
13.85878
 30
0.0
 10
10.81519
 20
13.85878
 30
0.0
 10
10.81519
 20
13.85878
 30
0.0
 10
10.89668
 20
13.85878
 30
0.0
 10
10.95976
 20
13.82978
 30
0.0
 10
11.00421
 20
13.77179
 30
0.0
 10
11.00421
 20
13.77179
 30
0.0
 10
11.04866
 20
13.71379
 30
0.0
 10
11.07089
 20
13.63166
 30
0.0
 10
11.07089
 20
13.52519
 30
0.0
 10
11.07089
 20
13.52519
 30
0.0
 10
11.07089
 20
13.52519
 30
0.0
 10
11.07025
 20
13.48794
 30
0.0
 10
11.07025
 20
13.48794
 30
0.0
 10
11.07025
 20
13.48794
 30
0.0
 10
11.07025
 20
13.48794
 30
0.0
 10
10.6448
 20
13.48794
 30
0.0
 10
10.6448
 20
13.48794
 30
0.0
 10
10.6448
 20
13.48794
 30
0.0
 10
10.66258
 20
13.32707
 30
0.0
 10
10.74111
 20
13.24664
 30
0.0
 10
10.88017
 20
13.24664
 30
0.0
 10
10.88017
 20
13.24664
 30
0.0
 10
10.93119
 20
13.24664
 30
0.0
 10
10.99363
 20
13.26103
 30
0.0
 10
11.06771
 20
13.28982
 30
0.0
 10
11.06771
 20
13.28982
 30
0.0
 10
11.06771
 20
13.28982
 30
0.0
 10
11.06771
 20
13.19203
 30
0.0
 10
11.06771
 20
13.19203
 30
0.0
  0
SPLINE
  5
74
330
1F
100
AcDbEntity
  8
Layer 1
100
AcDbSpline
210
0.0
220
0.0
230
1.0
 70
    11
 71
     3
 72
    16
 73
    12
 74
     0
 42
0.0000000001
 43
0.0000000001
 12
1.0
 22
0.0
 32
0.0
 13
1.0
 23
0.0
 33
0.0
 40
0.0
 40
0.0
 40
0.0
 40
0.0
 40
0.25
 40
0.25
 40
0.25
 40
0.25
 40
0.5
 40
0.5
 40
0.5
 40
0.5
 40
1.0
 40
1.0
 40
1.0
 40
1.0
 10
10.65115
 20
13.57938
 30
0.0
 10
10.65115
 20
13.57938
 30
0.0
 10
10.94833
 20
13.57938
 30
0.0
 10
10.94833
 20
13.57938
 30
0.0
 10
10.94833
 20
13.57938
 30
0.0
 10
10.94833
 20
13.70469
 30
0.0
 10
10.90155
 20
13.76734
 30
0.0
 10
10.80821
 20
13.76734
 30
0.0
 10
10.80821
 20
13.76734
 30
0.0
 10
10.71423
 20
13.76734
 30
0.0
 10
10.66195
 20
13.70469
 30
0.0
 10
10.65115
 20
13.57938
 30
0.0
  0
SPLINE
  5
75
330
1F
100
AcDbEntity
  8
Layer 1
100
AcDbSpline
210
0.0
220
0.0
230
1.0
 70
    11
 71
     3
 72
    44
 73
    40
 74
     0
 42
0.0000000001
 43
0.0000000001
 12
1.0
 22
0.0
 32
0.0
 13
1.0
 23
0.0
 33
0.0
 40
0.0
 40
0.0
 40
0.0
 40
0.0
 40
0.0909090909090909
 40
0.0909090909090909
 40
0.0909090909090909
 40
0.0909090909090909
 40
0.1818181818181818
 40
0.1818181818181818
 40
0.1818181818181818
 40
0.1818181818181818
 40
0.2727272727272727
 40
0.2727272727272727
 40
0.2727272727272727
 40
0.2727272727272727
 40
0.3636363636363636
 40
0.3636363636363636
 40
0.3636363636363636
 40
0.3636363636363636
 40
0.4545454545454545
 40
0.4545454545454545
 40
0.4545454545454545
 40
0.4545454545454545
 40
0.5454545454545454
 40
0.5454545454545454
 40
0.5454545454545454
 40
0.5454545454545454
 40
0.6363636363636364
 40
0.6363636363636364
 40
0.6363636363636364
 40
0.6363636363636364
 40
0.7272727272727273
 40
0.7272727272727273
 40
0.7272727272727273
 40
0.7272727272727273
 40
0.8181818181818182
 40
0.8181818181818182
 40
0.8181818181818182
 40
0.8181818181818182
 40
1.0
 40
1.0
 40
1.0
 40
1.0
 10
11.28128
 20
13.17044
 30
0.0
 10
11.28128
 20
13.17044
 30
0.0
 10
11.28128
 20
13.84354
 30
0.0
 10
11.28128
 20
13.84354
 30
0.0
 10
11.28128
 20
13.84354
 30
0.0
 10
11.28128
 20
13.84354
 30
0.0
 10
11.4032
 20
13.84354
 30
0.0
 10
11.4032
 20
13.84354
 30
0.0
 10
11.4032
 20
13.84354
 30
0.0
 10
11.4032
 20
13.84354
 30
0.0
 10
11.4032
 20
13.71633
 30
0.0
 10
11.4032
 20
13.71633
 30
0.0
 10
11.4032
 20
13.71633
 30
0.0
 10
11.45167
 20
13.81052
 30
0.0
 10
11.52195
 20
13.85751
 30
0.0
 10
11.61423
 20
13.85751
 30
0.0
 10
11.61423
 20
13.85751
 30
0.0
 10
11.62672
 20
13.85751
 30
0.0
 10
11.63984
 20
13.85645
 30
0.0
 10
11.65339
 20
13.85434
 30
0.0
 10
11.65339
 20
13.85434
 30
0.0
 10
11.65339
 20
13.85434
 30
0.0
 10
11.65339
 20
13.74025
 30
0.0
 10
11.65339
 20
13.74025
 30
0.0
 10
11.65339
 20
13.74025
 30
0.0
 10
11.63222
 20
13.74723
 30
0.0
 10
11.6136
 20
13.75083
 30
0.0
 10
11.59751
 20
13.75083
 30
0.0
 10
11.59751
 20
13.75083
 30
0.0
 10
11.52004
 20
13.75083
 30
0.0
 10
11.45527
 20
13.70511
 30
0.0
 10
11.4032
 20
13.61346
 30
0.0
 10
11.4032
 20
13.61346
 30
0.0
 10
11.4032
 20
13.61346
 30
0.0
 10
11.4032
 20
13.17044
 30
0.0
 10
11.4032
 20
13.17044
 30
0.0
 10
11.4032
 20
13.17044
 30
0.0
 10
11.4032
 20
13.17044
 30
0.0
 10
11.28128
 20
13.17044
 30
0.0
 10
11.28128
 20
13.17044
 30
0.0
  0
SPLINE
  5
76
330
1F
100
AcDbEntity
  8
Layer 1
370
    53
100
AcDbSpline
210
0.0
220
0.0
230
1.0
 70
    11
 71
     3
 72
    36
 73
    32
 74
     0
 42
0.0000000001
 43
0.0000000001
 12
1.0
 22
0.0
 32
0.0
 13
1.0
 23
0.0
 33
0.0
 40
0.0
 40
0.0
 40
0.0
 40
0.0
 40
0.1111111111111111
 40
0.1111111111111111
 40
0.1111111111111111
 40
0.1111111111111111
 40
0.2222222222222222
 40
0.2222222222222222
 40
0.2222222222222222
 40
0.2222222222222222
 40
0.3333333333333333
 40
0.3333333333333333
 40
0.3333333333333333
 40
0.3333333333333333
 40
0.4444444444444444
 40
0.4444444444444444
 40
0.4444444444444444
 40
0.4444444444444444
 40
0.5555555555555556
 40
0.5555555555555556
 40
0.5555555555555556
 40
0.5555555555555556
 40
0.6666666666666666
 40
0.6666666666666666
 40
0.6666666666666666
 40
0.6666666666666666
 40
0.7777777777777778
 40
0.7777777777777778
 40
0.7777777777777778
 40
0.7777777777777778
 40
1.0
 40
1.0
 40
1.0
 40
1.0
 10
8.3
 20
-1.7
 30
0.0
 10
8.3
 20
-1.7
 30
0.0
 10
8.3
 20
1.7
 30
0.0
 10
8.3
 20
1.7
 30
0.0
 10
8.3
 20
1.7
 30
0.0
 10
8.3
 20
1.97614
 30
0.0
 10
8.52386
 20
2.2
 30
0.0
 10
8.8
 20
2.2
 30
0.0
 10
8.8
 20
2.2
 30
0.0
 10
8.8
 20
2.2
 30
0.0
 10
12.2
 20
2.2
 30
0.0
 10
12.2
 20
2.2
 30
0.0
 10
12.2
 20
2.2
 30
0.0
 10
12.47614
 20
2.2
 30
0.0
 10
12.7
 20
1.97614
 30
0.0
 10
12.7
 20
1.7
 30
0.0
 10
12.7
 20
1.7
 30
0.0
 10
12.7
 20
1.7
 30
0.0
 10
12.7
 20
-1.7
 30
0.0
 10
12.7
 20
-1.7
 30
0.0
 10
12.7
 20
-1.7
 30
0.0
 10
12.7
 20
-1.97614
 30
0.0
 10
12.47614
 20
-2.2
 30
0.0
 10
12.2
 20
-2.2
 30
0.0
 10
12.2
 20
-2.2
 30
0.0
 10
12.2
 20
-2.2
 30
0.0
 10
8.8
 20
-2.2
 30
0.0
 10
8.8
 20
-2.2
 30
0.0
 10
8.8
 20
-2.2
 30
0.0
 10
8.52386
 20
-2.2
 30
0.0
 10
8.3
 20
-1.97614
 30
0.0
 10
8.3
 20
-1.7
 30
0.0
  0
ELLIPSE
  5
77
330
1F
100
AcDbEntity
  8
Layer 1
370
    53
100
AcDbEllipse
 10
10.50001
 20
-0.00001
 30
0.0
 11
0.0
 21
0.30001
 31
0.0
210
0.0
220
0.0
230
1.0
 40
1.0
 41
0.0
 42
6.283185307179586
  0
ELLIPSE
  5
78
330
1F
100
AcDbEntity
  8
Layer 1
370
    53
100
AcDbEllipse
 10
10.50001
 20
1.49999
 30
0.0
 11
0.0
 21
0.30001
 31
0.0
210
0.0
220
0.0
230
1.0
 40
1.0
 41
0.0
 42
6.283185307179586
  0
ELLIPSE
  5
79
330
1F
100
AcDbEntity
  8
Layer 1
370
    53
100
AcDbEllipse
 10
10.50001
 20
-1.50001
 30
0.0
 11
0.0
 21
0.30001
 31
0.0
210
0.0
220
0.0
230
1.0
 40
1.0
 41
0.0
 42
6.283185307179586
  0
ELLIPSE
  5
7A
330
1F
100
AcDbEntity
  8
Layer 1
370
    53
100
AcDbEllipse
 10
12.00001
 20
-0.00001
 30
0.0
 11
0.0
 21
0.30001
 31
0.0
210
0.0
220
0.0
230
1.0
 40
1.0
 41
0.0
 42
6.283185307179586
  0
ELLIPSE
  5
7B
330
1F
100
AcDbEntity
  8
Layer 1
370
    53
100
AcDbEllipse
 10
12.00001
 20
1.49999
 30
0.0
 11
0.0
 21
0.30001
 31
0.0
210
0.0
220
0.0
230
1.0
 40
1.0
 41
0.0
 42
6.283185307179586
  0
ELLIPSE
  5
7C
330
1F
100
AcDbEntity
  8
Layer 1
370
    53
100
AcDbEllipse
 10
12.00001
 20
-1.50001
 30
0.0
 11
0.0
 21
0.30001
 31
0.0
210
0.0
220
0.0
230
1.0
 40
1.0
 41
0.0
 42
6.283185307179586
  0
ELLIPSE
  5
7D
330
1F
100
AcDbEntity
  8
Layer 1
370
    53
100
AcDbEllipse
 10
9.75
 20
-1.5
 30
0.0
 11
0.0
 21
0.15
 31
0.0
210
0.0
220
0.0
230
1.0
 40
1.0
 41
0.0
 42
6.283185307179586
  0
ELLIPSE
  5
7E
330
1F
100
AcDbEntity
  8
Layer 1
370
    53
100
AcDbEllipse
 10
11.25
 20
-1.5
 30
0.0
 11
0.0
 21
0.15
 31
0.0
210
0.0
220
0.0
230
1.0
 40
1.0
 41
0.0
 42
6.283185307179586
  0
ELLIPSE
  5
7F
330
1F
100
AcDbEntity
  8
Layer 1
370
    53
100
AcDbEllipse
 10
9.75
 20
0.0
 30
0.0
 11
0.0
 21
0.15
 31
0.0
210
0.0
220
0.0
230
1.0
 40
1.0
 41
0.0
 42
6.283185307179586
  0
ELLIPSE
  5
80
330
1F
100
AcDbEntity
  8
Layer 1
370
    53
100
AcDbEllipse
 10
11.25
 20
0.0
 30
0.0
 11
0.0
 21
0.15
 31
0.0
210
0.0
220
0.0
230
1.0
 40
1.0
 41
0.0
 42
6.283185307179586
  0
ELLIPSE
  5
81
330
1F
100
AcDbEntity
  8
Layer 1
370
    53
100
AcDbEllipse
 10
9.75
 20
1.5
 30
0.0
 11
0.0
 21
0.15
 31
0.0
210
0.0
220
0.0
230
1.0
 40
1.0
 41
0.0
 42
6.283185307179586
  0
ELLIPSE
  5
82
330
1F
100
AcDbEntity
  8
Layer 1
370
    53
100
AcDbEllipse
 10
11.25
 20
1.5
 30
0.0
 11
0.0
 21
0.15
 31
0.0
210
0.0
220
0.0
230
1.0
 40
1.0
 41
0.0
 42
6.283185307179586
  0
ELLIPSE
  5
83
330
1F
100
AcDbEntity
  8
Layer 1
370
    53
100
AcDbEllipse
 10
10.5
 20
-0.75
 30
0.0
 11
0.0
 21
0.15
 31
0.0
210
0.0
220
0.0
230
1.0
 40
1.0
 41
0.0
 42
6.283185307179586
  0
ELLIPSE
  5
84
330
1F
100
AcDbEntity
  8
Layer 1
370
    53
100
AcDbEllipse
 10
12.0
 20
-0.75
 30
0.0
 11
0.0
 21
0.15
 31
0.0
210
0.0
220
0.0
230
1.0
 40
1.0
 41
0.0
 42
6.283185307179586
  0
ELLIPSE
  5
85
330
1F
100
AcDbEntity
  8
Layer 1
370
    53
100
AcDbEllipse
 10
10.5
 20
0.75
 30
0.0
 11
0.0
 21
0.15
 31
0.0
210
0.0
220
0.0
230
1.0
 40
1.0
 41
0.0
 42
6.283185307179586
  0
ELLIPSE
  5
86
330
1F
100
AcDbEntity
  8
Layer 1
370
    53
100
AcDbEllipse
 10
12.0
 20
0.75
 30
0.0
 11
0.0
 21
0.15
 31
0.0
210
0.0
220
0.0
230
1.0
 40
1.0
 41
0.0
 42
6.283185307179586
  0
ELLIPSE
  5
87
330
1F
100
AcDbEntity
  8
Layer 1
370
    53
100
AcDbEllipse
 10
9.00001
 20
-0.00001
 30
0.0
 11
0.0
 21
0.30001
 31
0.0
210
0.0
220
0.0
230
1.0
 40
1.0
 41
0.0
 42
6.283185307179586
  0
ELLIPSE
  5
88
330
1F
100
AcDbEntity
  8
Layer 1
370
    53
100
AcDbEllipse
 10
9.00001
 20
1.49999
 30
0.0
 11
0.0
 21
0.30001
 31
0.0
210
0.0
220
0.0
230
1.0
 40
1.0
 41
0.0
 42
6.283185307179586
  0
ELLIPSE
  5
89
330
1F
100
AcDbEntity
  8
Layer 1
370
    53
100
AcDbEllipse
 10
9.00001
 20
-1.50001
 30
0.0
 11
0.0
 21
0.30001
 31
0.0
210
0.0
220
0.0
230
1.0
 40
1.0
 41
0.0
 42
6.283185307179586
  0
ELLIPSE
  5
8A
330
1F
100
AcDbEntity
  8
Layer 1
370
    53
100
AcDbEllipse
 10
9.0
 20
-0.75
 30
0.0
 11
0.0
 21
0.15
 31
0.0
210
0.0
220
0.0
230
1.0
 40
1.0
 41
0.0
 42
6.283185307179586
  0
ELLIPSE
  5
8B
330
1F
100
AcDbEntity
  8
Layer 1
370
    53
100
AcDbEllipse
 10
9.0
 20
0.75
 30
0.0
 11
0.0
 21
0.15
 31
0.0
210
0.0
220
0.0
230
1.0
 40
1.0
 41
0.0
 42
6.283185307179586
  0
ELLIPSE
  5
8C
330
1F
100
AcDbEntity
  8
Layer 1
 62
     4
370
    53
100
AcDbEllipse
 10
0.0
 20
0.0
 30
0.0
 11
0.0
 21
2.25
 31
0.0
210
0.0
220
0.0
230
1.0
 40
1.0
 41
0.0
 42
6.283185307179586
  0
ELLIPSE
  5
8D
330
1F
100
AcDbEntity
  8
Layer 1
370
    53
100
AcDbEllipse
 10
0.0
 20
-1.3
 30
0.0
 11
0.0
 21
0.25
 31
0.0
210
0.0
220
0.0
230
1.0
 40
1.0
 41
0.0
 42
6.283185307179586
  0
ELLIPSE
  5
8E
330
1F
100
AcDbEntity
  8
Layer 1
370
    53
100
AcDbEllipse
 10
0.0
 20
1.525
 30
0.0
 11
0.0
 21
0.225
 31
0.0
210
0.0
220
0.0
230
1.0
 40
1.0
 41
0.0
 42
6.283185307179586
  0
ELLIPSE
  5
8F
330
1F
100
AcDbEntity
  8
Layer 1
370
    53
100
AcDbEllipse
 10
0.0
 20
0.0
 30
0.0
 11
0.0
 21
2.5
 31
0.0
210
0.0
220
0.0
230
1.0
 40
1.0
 41
0.0
 42
6.283185307179586
  0
ENDSEC
  0
SECTION
  2
OBJECTS
  0
DICTIONARY
  5
C
330
0
100
AcDbDictionary
281
     1
  3
ACAD_GROUP
350
D
  3
ACAD_LAYOUT
350
1A
  3
ACAD_MATERIAL
350
3B
  3
ACAD_MLEADERSTYLE
350
B1
  3
ACAD_MLINESTYLE
350
17
  3
ACAD_PLOTSETTINGS
350
19
  3
ACAD_PLOTSTYLENAME
350
E
  3
ACAD_TABLESTYLE
350
B0
  3
ACAD_VISUALSTYLE
350
2A
  0
DICTIONARY
  5
D
102
{ACAD_REACTORS
330
C
102
}
330
C
100
AcDbDictionary
281
     1
  0
DICTIONARY
  5
1A
102
{ACAD_REACTORS
330
C
102
}
330
C
100
AcDbDictionary
281
     1
  3
Layout1
350
1E
  3
Layout2
350
26
  3
Model
350
22
  0
DICTIONARY
  5
3B
102
{ACAD_REACTORS
330
C
102
}
330
C
100
AcDbDictionary
281
     1
  3
ByBlock
350
3D
  3
ByLayer
350
3C
  3
Global
350
3E
  0
DICTIONARY
  5
B1
102
{ACAD_REACTORS
330
C
102
}
330
C
100
AcDbDictionary
281
     1
  0
DICTIONARY
  5
17
102
{ACAD_REACTORS
330
C
102
}
330
C
100
AcDbDictionary
281
     1
  3
Standard
350
18
  0
DICTIONARY
  5
19
102
{ACAD_REACTORS
330
C
102
}
330
C
100
AcDbDictionary
281
     1
  0
ACDBDICTIONARYWDFLT
  5
E
102
{ACAD_REACTORS
330
C
102
}
330
C
100
AcDbDictionary
281
     1
  3
Normal
350
F
100
AcDbDictionaryWithDefault
340
F
  0
DICTIONARY
  5
B0
102
{ACAD_REACTORS
330
C
102
}
330
C
100
AcDbDictionary
281
     1
  0
DICTIONARY
  5
2A
102
{ACAD_REACTORS
330
C
102
}
330
C
100
AcDbDictionary
281
     1
  3
2dWireframe
350
2F
  3
3D Hidden
350
31
  3
3dWireframe
350
30
  3
Basic
350
32
  3
Brighten
350
36
  3
ColorChange
350
3A
  3
Conceptual
350
34
  3
Dim
350
35
  3
Facepattern
350
39
  3
Flat
350
2B
  3
FlatWithEdges
350
2C
  3
Gouraud
350
2D
  3
GouraudWithEdges
350
2E
  3
Linepattern
350
38
  3
Realistic
350
33
  3
Thicken
350
37
  0
LAYOUT
  5
1E
102
{ACAD_REACTORS
330
1A
102
}
330
1A
100
AcDbPlotSettings
  1

  2
none_device
  4

  6

 40
0.0
 41
0.0
 42
0.0
 43
0.0
 44
0.0
 45
0.0
 46
0.0
 47
0.0
 48
0.0
 49
0.0
140
0.0
141
0.0
142
1.0
143
1.0
 70
   688
 72
     0
 73
     0
 74
     5
  7

 75
    16
 76
     0
 77
     2
 78
   300
147
1.0
148
0.0
149
0.0
100
AcDbLayout
  1
Layout1
 70
     1
 71
     1
 10
0.0
 20
0.0
 11
12.0
 21
9.0
 12
0.0
 22
0.0
 32
0.0
 14
1.000000000000000E+20
 24
1.000000000000000E+20
 34
1.000000000000000E+20
 15
-1.000000000000000E+20
 25
-1.000000000000000E+20
 35
-1.000000000000000E+20
146
0.0
 13
0.0
 23
0.0
 33
0.0
 16
1.0
 26
0.0
 36
0.0
 17
0.0
 27
1.0
 37
0.0
 76
     0
330
1B
  0
LAYOUT
  5
26
102
{ACAD_REACTORS
330
1A
102
}
330
1A
100
AcDbPlotSettings
  1

  2
none_device
  4

  6

 40
0.0
 41
0.0
 42
0.0
 43
0.0
 44
0.0
 45
0.0
 46
0.0
 47
0.0
 48
0.0
 49
0.0
140
0.0
141
0.0
142
1.0
143
1.0
 70
   688
 72
     0
 73
     0
 74
     5
  7

 75
    16
 76
     0
 77
     2
 78
   300
147
1.0
148
0.0
149
0.0
100
AcDbLayout
  1
Layout2
 70
     1
 71
     2
 10
0.0
 20
0.0
 11
0.0
 21
0.0
 12
0.0
 22
0.0
 32
0.0
 14
0.0
 24
0.0
 34
0.0
 15
0.0
 25
0.0
 35
0.0
146
0.0
 13
0.0
 23
0.0
 33
0.0
 16
1.0
 26
0.0
 36
0.0
 17
0.0
 27
1.0
 37
0.0
 76
     0
330
23
  0
LAYOUT
  5
22
102
{ACAD_REACTORS
330
1A
102
}
330
1A
100
AcDbPlotSettings
  1

  2
none_device
  4

  6

 40
0.0
 41
0.0
 42
0.0
 43
0.0
 44
0.0
 45
0.0
 46
0.0
 47
0.0
 48
0.0
 49
0.0
140
0.0
141
0.0
142
1.0
143
1.0
 70
  1712
 72
     0
 73
     0
 74
     0
  7

 75
     0
 76
     0
 77
     2
 78
   300
147
1.0
148
0.0
149
0.0
100
AcDbLayout
  1
Model
 70
     1
 71
     0
 10
0.0
 20
0.0
 11
12.0
 21
9.0
 12
0.0
 22
0.0
 32
0.0
 14
-11.59053
 24
-2.52646
 34
0.0
 15
12.72646
 25
14.14961
 35
0.0
146
0.0
 13
0.0
 23
0.0
 33
0.0
 16
1.0
 26
0.0
 36
0.0
 17
0.0
 27
1.0
 37
0.0
 76
     0
330
1F
331
29
  0
MATERIAL
  5
3D
102
{ACAD_REACTORS
330
3B
102
}
330
3B
100
AcDbMaterial
  1
ByBlock
 72
     1
 94
      127
  0
MATERIAL
  5
3C
102
{ACAD_REACTORS
330
3B
102
}
330
3B
100
AcDbMaterial
  1
ByLayer
 72
     1
 94
      127
  0
MATERIAL
  5
3E
102
{ACAD_REACTORS
330
3B
102
}
330
3B
100
AcDbMaterial
  1
Global
 72
     1
 94
      127
  0
MLINESTYLE
  5
18
102
{ACAD_REACTORS
330
17
102
}
330
17
100
AcDbMlineStyle
  2
Standard
 70
     0
  3

 62
   256
 51
90.0
 52
90.0
 71
     2
 49
0.5
 62
   256
  6
BYLAYER
 49
-0.5
 62
   256
  6
BYLAYER
  0
ACDBPLACEHOLDER
  5
F
102
{ACAD_REACTORS
330
E
102
}
330
E
  0
VISUALSTYLE
  5
2F
102
{ACAD_REACTORS
330
2A
102
}
102
{ACAD_XDICTIONARY
360
98
102
}
330
2A
100
AcDbVisualStyle
  2
2dWireframe
 70
     4
 71
     0
 72
     2
 73
     0
 90
        0
 40
-0.6
 41
-30.0
 62
     5
 63
     7
421
 16777215
 74
     1
 91
        4
 64
     7
 65
   257
 75
     1
175
     1
 42
1.0
 92
        0
 66
   257
 43
1.0
 76
     1
 77
     6
 78
     2
 67
     7
 79
     5
170
     0
171
     0
290
     0
174
     0
 93
        1
 44
0.0
173
     0
291
     0
 45
0.0
  0
VISUALSTYLE
  5
31
102
{ACAD_REACTORS
330
2A
102
}
102
{ACAD_XDICTIONARY
360
9C
102
}
330
2A
100
AcDbVisualStyle
  2
3D Hidden
 70
     6
 71
     1
 72
     2
 73
     2
 90
        0
 40
-0.6
 41
-30.0
 62
     5
 63
     7
421
 16777215
 74
     2
 91
        2
 64
     7
 65
   257
 75
     2
175
     1
 42
40.0
 92
        0
 66
   257
 43
1.0
 76
     1
 77
     6
 78
     2
 67
     7
 79
     3
170
     0
171
     0
290
     0
174
     0
 93
        1
 44
0.0
173
     0
291
     0
 45
0.0
  0
VISUALSTYLE
  5
30
102
{ACAD_REACTORS
330
2A
102
}
102
{ACAD_XDICTIONARY
360
9A
102
}
330
2A
100
AcDbVisualStyle
  2
3dWireframe
 70
     5
 71
     0
 72
     2
 73
     0
 90
        0
 40
-0.6
 41
-30.0
 62
     5
 63
     7
421
 16777215
 74
     1
 91
        4
 64
     7
 65
   257
 75
     1
175
     1
 42
1.0
 92
        0
 66
   257
 43
1.0
 76
     1
 77
     6
 78
     2
 67
     7
 79
     5
170
     0
171
     0
290
     0
174
     0
 93
        1
 44
0.0
173
     0
291
     0
 45
0.0
  0
VISUALSTYLE
  5
32
102
{ACAD_REACTORS
330
2A
102
}
102
{ACAD_XDICTIONARY
360
9E
102
}
330
2A
100
AcDbVisualStyle
  2
Basic
 70
     7
 71
     1
 72
     0
 73
     1
 90
        0
 40
-0.6
 41
-30.0
 62
     5
 63
     7
421
 16777215
 74
     0
 91
        4
 64
     7
 65
   257
 75
     1
175
     1
 42
1.0
 92
        8
 66
     7
 43
1.0
 76
     1
 77
     6
 78
     2
 67
     7
 79
     5
170
     0
171
     0
290
     0
174
     0
 93
        1
 44
0.0
173
     0
291
     1
 45
0.0
  0
VISUALSTYLE
  5
36
102
{ACAD_REACTORS
330
2A
102
}
102
{ACAD_XDICTIONARY
360
A6
102
}
330
2A
100
AcDbVisualStyle
  2
Brighten
 70
    12
 71
     2
 72
     2
 73
     0
 90
        0
 40
-0.6
 41
-30.0
 62
     5
 63
     7
421
 16777215
 74
     1
 91
        4
 64
     7
 65
   257
 75
     1
175
     1
 42
1.0
 92
        8
 66
     7
 43
1.0
 76
     1
 77
     6
 78
     2
 67
     7
 79
     5
170
     0
171
     0
290
     0
174
     0
 93
        1
 44
50.0
173
     0
291
     1
 45
0.0
  0
VISUALSTYLE
  5
3A
102
{ACAD_REACTORS
330
2A
102
}
102
{ACAD_XDICTIONARY
360
AE
102
}
330
2A
100
AcDbVisualStyle
  2
ColorChange
 70
    16
 71
     2
 72
     2
 73
     3
 90
        0
 40
-0.6
 41
-30.0
 62
     5
 63
     8
421
  8421504
 74
     1
 91
        4
 64
     7
 65
   257
 75
     1
175
     1
 42
1.0
 92
        8
 66
     8
424
  8421504
 43
1.0
 76
     1
 77
     6
 78
     2
 67
     7
 79
     5
170
     0
171
     0
290
     0
174
     0
 93
        1
 44
0.0
173
     0
291
     1
 45
0.0
  0
VISUALSTYLE
  5
34
102
{ACAD_REACTORS
330
2A
102
}
102
{ACAD_XDICTIONARY
360
A2
102
}
330
2A
100
AcDbVisualStyle
  2
Conceptual
 70
     9
 71
     3
 72
     2
 73
     0
 90
        0
 40
-0.6
 41
-30.0
 62
     5
 63
     7
421
 16777215
 74
     2
 91
        2
 64
     7
 65
   257
 75
     1
175
     1
 42
40.0
 92
        8
 66
     7
 43
1.0
 76
     1
 77
     6
 78
     2
 67
     7
 79
     3
170
     0
171
     0
290
     0
174
     0
 93
        1
 44
0.0
173
     0
291
     0
 45
0.0
  0
VISUALSTYLE
  5
35
102
{ACAD_REACTORS
330
2A
102
}
102
{ACAD_XDICTIONARY
360
A4
102
}
330
2A
100
AcDbVisualStyle
  2
Dim
 70
    11
 71
     2
 72
     2
 73
     0
 90
        0
 40
-0.6
 41
-30.0
 62
     5
 63
     7
421
 16777215
 74
     1
 91
        4
 64
     7
 65
   257
 75
     1
175
     1
 42
1.0
 92
        8
 66
     7
 43
1.0
 76
     1
 77
     6
 78
     2
 67
     7
 79
     5
170
     0
171
     0
290
     0
174
     0
 93
        1
 44
-50.0
173
     0
291
     1
 45
0.0
  0
VISUALSTYLE
  5
39
102
{ACAD_REACTORS
330
2A
102
}
102
{ACAD_XDICTIONARY
360
AC
102
}
330
2A
100
AcDbVisualStyle
  2
Facepattern
 70
    15
 71
     2
 72
     2
 73
     0
 90
        0
 40
-0.6
 41
-30.0
 62
     5
 63
     7
421
 16777215
 74
     1
 91
        4
 64
     7
 65
   257
 75
     1
175
     1
 42
1.0
 92
        8
 66
     7
 43
1.0
 76
     1
 77
     6
 78
     2
 67
     7
 79
     5
170
     0
171
     0
290
     0
174
     0
 93
        1
 44
0.0
173
     0
291
     1
 45
0.0
  0
VISUALSTYLE
  5
2B
102
{ACAD_REACTORS
330
2A
102
}
102
{ACAD_XDICTIONARY
360
90
102
}
330
2A
100
AcDbVisualStyle
  2
Flat
 70
     0
 71
     2
 72
     1
 73
     1
 90
        2
 40
-0.6
 41
30.0
 62
     5
 63
     7
421
 16777215
 74
     0
 91
        4
 64
     7
 65
   257
 75
     1
175
     1
 42
1.0
 92
        8
 66
     7
 43
1.0
 76
     1
 77
     6
 78
     2
 67
     7
 79
     5
170
     0
171
     0
290
     0
174
     0
 93
       13
 44
0.0
173
     0
291
     1
 45
0.0
  0
VISUALSTYLE
  5
2C
102
{ACAD_REACTORS
330
2A
102
}
102
{ACAD_XDICTIONARY
360
92
102
}
330
2A
100
AcDbVisualStyle
  2
FlatWithEdges
 70
     1
 71
     2
 72
     1
 73
     1
 90
        2
 40
-0.6
 41
30.0
 62
     5
 63
     7
421
 16777215
 74
     1
 91
        4
 64
     7
 65
   257
 75
     1
175
     1
 42
1.0
 92
        0
 66
   257
 43
1.0
 76
     1
 77
     6
 78
     2
 67
     7
 79
     5
170
     0
171
     0
290
     0
174
     0
 93
       13
 44
0.0
173
     0
291
     1
 45
0.0
  0
VISUALSTYLE
  5
2D
102
{ACAD_REACTORS
330
2A
102
}
102
{ACAD_XDICTIONARY
360
94
102
}
330
2A
100
AcDbVisualStyle
  2
Gouraud
 70
     2
 71
     2
 72
     2
 73
     1
 90
        2
 40
-0.6
 41
30.0
 62
     5
 63
     7
421
 16777215
 74
     0
 91
        4
 64
     7
 65
   257
 75
     1
175
     1
 42
1.0
 92
        0
 66
     7
 43
1.0
 76
     1
 77
     6
 78
     2
 67
     7
 79
     5
170
     0
171
     0
290
     0
174
     0
 93
       13
 44
0.0
173
     0
291
     1
 45
0.0
  0
VISUALSTYLE
  5
2E
102
{ACAD_REACTORS
330
2A
102
}
102
{ACAD_XDICTIONARY
360
96
102
}
330
2A
100
AcDbVisualStyle
  2
GouraudWithEdges
 70
     3
 71
     2
 72
     2
 73
     1
 90
        2
 40
-0.6
 41
30.0
 62
     5
 63
     7
421
 16777215
 74
     1
 91
        4
 64
     7
 65
   257
 75
     1
175
     1
 42
1.0
 92
        0
 66
   257
 43
1.0
 76
     1
 77
     6
 78
     2
 67
     7
 79
     5
170
     0
171
     0
290
     0
174
     0
 93
       13
 44
0.0
173
     0
291
     1
 45
0.0
  0
VISUALSTYLE
  5
38
102
{ACAD_REACTORS
330
2A
102
}
102
{ACAD_XDICTIONARY
360
AA
102
}
330
2A
100
AcDbVisualStyle
  2
Linepattern
 70
    14
 71
     2
 72
     2
 73
     0
 90
        0
 40
-0.6
 41
-30.0
 62
     5
 63
     7
421
 16777215
 74
     1
 91
        4
 64
     7
 65
   257
 75
     7
175
     7
 42
1.0
 92
        8
 66
     7
 43
1.0
 76
     1
 77
     6
 78
     2
 67
     7
 79
     5
170
     0
171
     0
290
     0
174
     0
 93
        1
 44
0.0
173
     0
291
     1
 45
0.0
  0
VISUALSTYLE
  5
33
102
{ACAD_REACTORS
330
2A
102
}
102
{ACAD_XDICTIONARY
360
A0
102
}
330
2A
100
AcDbVisualStyle
  2
Realistic
 70
     8
 71
     2
 72
     2
 73
     0
 90
        0
 40
-0.6
 41
-30.0
 62
     5
 63
     7
421
 16777215
 74
     1
 91
        0
 64
     7
 65
   257
 75
     1
175
     1
 42
1.0
 92
        8
 66
     8
424
  7895160
 43
1.0
 76
     1
 77
     6
 78
     2
 67
     7
 79
     5
170
     0
171
     0
290
     0
174
     0
 93
       13
 44
0.0
173
     0
291
     0
 45
0.0
  0
VISUALSTYLE
  5
37
102
{ACAD_REACTORS
330
2A
102
}
102
{ACAD_XDICTIONARY
360
A8
102
}
330
2A
100
AcDbVisualStyle
  2
Thicken
 70
    13
 71
     2
 72
     2
 73
     0
 90
        0
 40
-0.6
 41
-30.0
 62
     5
 63
     7
421
 16777215
 74
     1
 91
        4
 64
     7
 65
   257
 75
     1
175
     1
 42
1.0
 92
       12
 66
     7
 43
1.0
 76
     1
 77
     6
 78
     2
 67
     7
 79
     5
170
     0
171
     0
290
     0
174
     0
 93
        1
 44
0.0
173
     0
291
     1
 45
0.0
  0
DICTIONARY
  5
98
330
2F
100
AcDbDictionary
280
     1
281
     1
  3
ACAD_XREC_ROUNDTRIP
360
99
  0
DICTIONARY
  5
9C
330
31
100
AcDbDictionary
280
     1
281
     1
  3
ACAD_XREC_ROUNDTRIP
360
9D
  0
DICTIONARY
  5
9A
330
30
100
AcDbDictionary
280
     1
281
     1
  3
ACAD_XREC_ROUNDTRIP
360
9B
  0
DICTIONARY
  5
9E
330
32
100
AcDbDictionary
280
     1
281
     1
  3
ACAD_XREC_ROUNDTRIP
360
9F
  0
DICTIONARY
  5
A6
330
36
100
AcDbDictionary
280
     1
281
     1
  3
ACAD_XREC_ROUNDTRIP
360
A7
  0
DICTIONARY
  5
AE
330
3A
100
AcDbDictionary
280
     1
281
     1
  3
ACAD_XREC_ROUNDTRIP
360
AF
  0
DICTIONARY
  5
A2
330
34
100
AcDbDictionary
280
     1
281
     1
  3
ACAD_XREC_ROUNDTRIP
360
A3
  0
DICTIONARY
  5
A4
330
35
100
AcDbDictionary
280
     1
281
     1
  3
ACAD_XREC_ROUNDTRIP
360
A5
  0
DICTIONARY
  5
AC
330
39
100
AcDbDictionary
280
     1
281
     1
  3
ACAD_XREC_ROUNDTRIP
360
AD
  0
DICTIONARY
  5
90
330
2B
100
AcDbDictionary
280
     1
281
     1
  3
ACAD_XREC_ROUNDTRIP
360
91
  0
DICTIONARY
  5
92
330
2C
100
AcDbDictionary
280
     1
281
     1
  3
ACAD_XREC_ROUNDTRIP
360
93
  0
DICTIONARY
  5
94
330
2D
100
AcDbDictionary
280
     1
281
     1
  3
ACAD_XREC_ROUNDTRIP
360
95
  0
DICTIONARY
  5
96
330
2E
100
AcDbDictionary
280
     1
281
     1
  3
ACAD_XREC_ROUNDTRIP
360
97
  0
DICTIONARY
  5
AA
330
38
100
AcDbDictionary
280
     1
281
     1
  3
ACAD_XREC_ROUNDTRIP
360
AB
  0
DICTIONARY
  5
A0
330
33
100
AcDbDictionary
280
     1
281
     1
  3
ACAD_XREC_ROUNDTRIP
360
A1
  0
DICTIONARY
  5
A8
330
37
100
AcDbDictionary
280
     1
281
     1
  3
ACAD_XREC_ROUNDTRIP
360
A9
  0
XRECORD
  5
99
102
{ACAD_REACTORS
330
98
102
}
330
98
100
AcDbXrecord
280
     1
102
RTVSPropertyOp0
 70
     1
102
RTVSPropertyOp1
 70
     1
102
RTVSPropertyOp2
 70
     1
102
RTVSPropertyOp3
 70
     1
102
RTVSPropertyOp4
 70
     1
102
RTVSPropertyOp5
 70
     1
102
RTVSPropertyOp6
 70
     1
102
RTVSPropertyOp7
 70
     1
102
RTVSPropertyOp8
 70
     1
102
RTVSPropertyOp9
 70
     1
102
RTVSPropertyOp10
 70
     1
102
RTVSPropertyOp11
 70
     1
102
RTVSPropertyOp12
 70
     1
102
RTVSPropertyOp13
 70
     1
102
RTVSPropertyOp14
 70
     1
102
RTVSPropertyOp15
 70
     1
102
RTVSPropertyOp16
 70
     1
102
RTVSPropertyOp17
 70
     1
102
RTVSPropertyOp18
 70
     1
102
RTVSPropertyOp19
 70
     1
102
RTVSPropertyOp20
 70
     1
102
RTVSPropertyOp21
 70
     1
102
RTVSPropertyOp22
 70
     1
102
RTVSPropertyOp23
 70
     1
102
RTVSPropertyOp24
 70
     1
102
RTVSPropertyOp25
 70
     1
102
RTVSPropertyOp26
 70
     1
102
RTVSPropertyOp27
 70
     1
102
RTVSPropertyOp28
 70
     1
102
RTVSPropertyOp29
 70
     1
102
RTVSPropertyOp30
 70
     1
102
RTVSPropertyOp31
 70
     1
102
RTVSPropertyOp32
 70
     1
  0
XRECORD
  5
9D
102
{ACAD_REACTORS
330
9C
102
}
330
9C
100
AcDbXrecord
280
     1
102
RTVSPropertyOp0
 70
     1
102
RTVSPropertyOp1
 70
     1
102
RTVSPropertyOp2
 70
     1
102
RTVSPropertyOp3
 70
     1
102
RTVSPropertyOp4
 70
     1
102
RTVSPropertyOp5
 70
     1
102
RTVSPropertyOp6
 70
     1
102
RTVSPropertyOp7
 70
     1
102
RTVSPropertyOp8
 70
     1
102
RTVSPropertyOp9
 70
     1
102
RTVSPropertyOp10
 70
     1
102
RTVSPropertyOp11
 70
     1
102
RTVSPropertyOp12
 70
     1
102
RTVSPropertyOp13
 70
     1
102
RTVSPropertyOp14
 70
     1
102
RTVSPropertyOp15
 70
     1
102
RTVSPropertyOp16
 70
     1
102
RTVSPropertyOp17
 70
     1
102
RTVSPropertyOp18
 70
     1
102
RTVSPropertyOp19
 70
     1
102
RTVSPropertyOp20
 70
     1
102
RTVSPropertyOp21
 70
     1
102
RTVSPropertyOp22
 70
     1
102
RTVSPropertyOp23
 70
     1
102
RTVSPropertyOp24
 70
     1
102
RTVSPropertyOp25
 70
     1
102
RTVSPropertyOp26
 70
     1
102
RTVSPropertyOp27
 70
     1
102
RTVSPropertyOp28
 70
     1
102
RTVSPropertyOp29
 70
     1
102
RTVSPropertyOp30
 70
     1
102
RTVSPropertyOp31
 70
     1
102
RTVSPropertyOp32
 70
     1
  0
XRECORD
  5
9B
102
{ACAD_REACTORS
330
9A
102
}
330
9A
100
AcDbXrecord
280
     1
102
RTVSPropertyOp0
 70
     1
102
RTVSPropertyOp1
 70
     1
102
RTVSPropertyOp2
 70
     1
102
RTVSPropertyOp3
 70
     1
102
RTVSPropertyOp4
 70
     1
102
RTVSPropertyOp5
 70
     1
102
RTVSPropertyOp6
 70
     1
102
RTVSPropertyOp7
 70
     1
102
RTVSPropertyOp8
 70
     1
102
RTVSPropertyOp9
 70
     1
102
RTVSPropertyOp10
 70
     1
102
RTVSPropertyOp11
 70
     1
102
RTVSPropertyOp12
 70
     1
102
RTVSPropertyOp13
 70
     1
102
RTVSPropertyOp14
 70
     1
102
RTVSPropertyOp15
 70
     1
102
RTVSPropertyOp16
 70
     1
102
RTVSPropertyOp17
 70
     1
102
RTVSPropertyOp18
 70
     1
102
RTVSPropertyOp19
 70
     1
102
RTVSPropertyOp20
 70
     1
102
RTVSPropertyOp21
 70
     1
102
RTVSPropertyOp22
 70
     1
102
RTVSPropertyOp23
 70
     1
102
RTVSPropertyOp24
 70
     1
102
RTVSPropertyOp25
 70
     1
102
RTVSPropertyOp26
 70
     1
102
RTVSPropertyOp27
 70
     1
102
RTVSPropertyOp28
 70
     1
102
RTVSPropertyOp29
 70
     1
102
RTVSPropertyOp30
 70
     1
102
RTVSPropertyOp31
 70
     1
102
RTVSPropertyOp32
 70
     1
  0
XRECORD
  5
9F
102
{ACAD_REACTORS
330
9E
102
}
330
9E
100
AcDbXrecord
280
     1
102
RTVSPropertyOp0
 70
     1
102
RTVSPropertyOp1
 70
     1
102
RTVSPropertyOp2
 70
     1
102
RTVSPropertyOp3
 70
     1
102
RTVSPropertyOp4
 70
     1
102
RTVSPropertyOp5
 70
     1
102
RTVSPropertyOp6
 70
     1
102
RTVSPropertyOp7
 70
     1
102
RTVSPropertyOp8
 70
     1
102
RTVSPropertyOp9
 70
     1
102
RTVSPropertyOp10
 70
     1
102
RTVSPropertyOp11
 70
     1
102
RTVSPropertyOp12
 70
     1
102
RTVSPropertyOp13
 70
     1
102
RTVSPropertyOp14
 70
     1
102
RTVSPropertyOp15
 70
     1
102
RTVSPropertyOp16
 70
     1
102
RTVSPropertyOp17
 70
     1
102
RTVSPropertyOp18
 70
     1
102
RTVSPropertyOp19
 70
     1
102
RTVSPropertyOp20
 70
     1
102
RTVSPropertyOp21
 70
     1
102
RTVSPropertyOp22
 70
     1
102
RTVSPropertyOp23
 70
     1
102
RTVSPropertyOp24
 70
     1
102
RTVSPropertyOp25
 70
     1
102
RTVSPropertyOp26
 70
     1
102
RTVSPropertyOp27
 70
     1
102
RTVSPropertyOp28
 70
     1
102
RTVSPropertyOp29
 70
     1
102
RTVSPropertyOp30
 70
     1
102
RTVSPropertyOp31
 70
     1
102
RTVSPropertyOp32
 70
     1
  0
XRECORD
  5
A7
102
{ACAD_REACTORS
330
A6
102
}
330
A6
100
AcDbXrecord
280
     1
102
RTVSPropertyOp0
 70
     1
102
RTVSPropertyOp1
 70
     1
102
RTVSPropertyOp2
 70
     1
102
RTVSPropertyOp3
 70
     1
102
RTVSPropertyOp4
 70
     1
102
RTVSPropertyOp5
 70
     1
102
RTVSPropertyOp6
 70
     1
102
RTVSPropertyOp7
 70
     1
102
RTVSPropertyOp8
 70
     1
102
RTVSPropertyOp9
 70
     1
102
RTVSPropertyOp10
 70
     1
102
RTVSPropertyOp11
 70
     1
102
RTVSPropertyOp12
 70
     1
102
RTVSPropertyOp13
 70
     1
102
RTVSPropertyOp14
 70
     1
102
RTVSPropertyOp15
 70
     1
102
RTVSPropertyOp16
 70
     1
102
RTVSPropertyOp17
 70
     1
102
RTVSPropertyOp18
 70
     1
102
RTVSPropertyOp19
 70
     1
102
RTVSPropertyOp20
 70
     1
102
RTVSPropertyOp21
 70
     1
102
RTVSPropertyOp22
 70
     1
102
RTVSPropertyOp23
 70
     1
102
RTVSPropertyOp24
 70
     1
102
RTVSPropertyOp25
 70
     1
102
RTVSPropertyOp26
 70
     1
102
RTVSPropertyOp27
 70
     1
102
RTVSPropertyOp28
 70
     1
102
RTVSPropertyOp29
 70
     1
102
RTVSPropertyOp30
 70
     1
102
RTVSPropertyOp31
 70
     1
102
RTVSPropertyOp32
 70
     1
  0
XRECORD
  5
AF
102
{ACAD_REACTORS
330
AE
102
}
330
AE
100
AcDbXrecord
280
     1
102
RTVSPropertyOp0
 70
     1
102
RTVSPropertyOp1
 70
     1
102
RTVSPropertyOp2
 70
     1
102
RTVSPropertyOp3
 70
     1
102
RTVSPropertyOp4
 70
     1
102
RTVSPropertyOp5
 70
     1
102
RTVSPropertyOp6
 70
     1
102
RTVSPropertyOp7
 70
     1
102
RTVSPropertyOp8
 70
     1
102
RTVSPropertyOp9
 70
     1
102
RTVSPropertyOp10
 70
     1
102
RTVSPropertyOp11
 70
     1
102
RTVSPropertyOp12
 70
     1
102
RTVSPropertyOp13
 70
     1
102
RTVSPropertyOp14
 70
     1
102
RTVSPropertyOp15
 70
     1
102
RTVSPropertyOp16
 70
     1
102
RTVSPropertyOp17
 70
     1
102
RTVSPropertyOp18
 70
     1
102
RTVSPropertyOp19
 70
     1
102
RTVSPropertyOp20
 70
     1
102
RTVSPropertyOp21
 70
     1
102
RTVSPropertyOp22
 70
     1
102
RTVSPropertyOp23
 70
     1
102
RTVSPropertyOp24
 70
     1
102
RTVSPropertyOp25
 70
     1
102
RTVSPropertyOp26
 70
     1
102
RTVSPropertyOp27
 70
     1
102
RTVSPropertyOp28
 70
     1
102
RTVSPropertyOp29
 70
     1
102
RTVSPropertyOp30
 70
     1
102
RTVSPropertyOp31
 70
     1
102
RTVSPropertyOp32
 70
     1
  0
XRECORD
  5
A3
102
{ACAD_REACTORS
330
A2
102
}
330
A2
100
AcDbXrecord
280
     1
102
RTVSPropertyOp0
 70
     1
102
RTVSPropertyOp1
 70
     1
102
RTVSPropertyOp2
 70
     1
102
RTVSPropertyOp3
 70
     1
102
RTVSPropertyOp4
 70
     1
102
RTVSPropertyOp5
 70
     1
102
RTVSPropertyOp6
 70
     1
102
RTVSPropertyOp7
 70
     1
102
RTVSPropertyOp8
 70
     1
102
RTVSPropertyOp9
 70
     1
102
RTVSPropertyOp10
 70
     1
102
RTVSPropertyOp11
 70
     1
102
RTVSPropertyOp12
 70
     1
102
RTVSPropertyOp13
 70
     1
102
RTVSPropertyOp14
 70
     1
102
RTVSPropertyOp15
 70
     1
102
RTVSPropertyOp16
 70
     1
102
RTVSPropertyOp17
 70
     1
102
RTVSPropertyOp18
 70
     1
102
RTVSPropertyOp19
 70
     1
102
RTVSPropertyOp20
 70
     1
102
RTVSPropertyOp21
 70
     1
102
RTVSPropertyOp22
 70
     1
102
RTVSPropertyOp23
 70
     1
102
RTVSPropertyOp24
 70
     1
102
RTVSPropertyOp25
 70
     1
102
RTVSPropertyOp26
 70
     1
102
RTVSPropertyOp27
 70
     1
102
RTVSPropertyOp28
 70
     1
102
RTVSPropertyOp29
 70
     1
102
RTVSPropertyOp30
 70
     1
102
RTVSPropertyOp31
 70
     1
102
RTVSPropertyOp32
 70
     1
  0
XRECORD
  5
A5
102
{ACAD_REACTORS
330
A4
102
}
330
A4
100
AcDbXrecord
280
     1
102
RTVSPropertyOp0
 70
     1
102
RTVSPropertyOp1
 70
     1
102
RTVSPropertyOp2
 70
     1
102
RTVSPropertyOp3
 70
     1
102
RTVSPropertyOp4
 70
     1
102
RTVSPropertyOp5
 70
     1
102
RTVSPropertyOp6
 70
     1
102
RTVSPropertyOp7
 70
     1
102
RTVSPropertyOp8
 70
     1
102
RTVSPropertyOp9
 70
     1
102
RTVSPropertyOp10
 70
     1
102
RTVSPropertyOp11
 70
     1
102
RTVSPropertyOp12
 70
     1
102
RTVSPropertyOp13
 70
     1
102
RTVSPropertyOp14
 70
     1
102
RTVSPropertyOp15
 70
     1
102
RTVSPropertyOp16
 70
     1
102
RTVSPropertyOp17
 70
     1
102
RTVSPropertyOp18
 70
     1
102
RTVSPropertyOp19
 70
     1
102
RTVSPropertyOp20
 70
     1
102
RTVSPropertyOp21
 70
     1
102
RTVSPropertyOp22
 70
     1
102
RTVSPropertyOp23
 70
     1
102
RTVSPropertyOp24
 70
     1
102
RTVSPropertyOp25
 70
     1
102
RTVSPropertyOp26
 70
     1
102
RTVSPropertyOp27
 70
     1
102
RTVSPropertyOp28
 70
     1
102
RTVSPropertyOp29
 70
     1
102
RTVSPropertyOp30
 70
     1
102
RTVSPropertyOp31
 70
     1
102
RTVSPropertyOp32
 70
     1
  0
XRECORD
  5
AD
102
{ACAD_REACTORS
330
AC
102
}
330
AC
100
AcDbXrecord
280
     1
102
RTVSPropertyOp0
 70
     1
102
RTVSPropertyOp1
 70
     1
102
RTVSPropertyOp2
 70
     1
102
RTVSPropertyOp3
 70
     1
102
RTVSPropertyOp4
 70
     1
102
RTVSPropertyOp5
 70
     1
102
RTVSPropertyOp6
 70
     1
102
RTVSPropertyOp7
 70
     1
102
RTVSPropertyOp8
 70
     1
102
RTVSPropertyOp9
 70
     1
102
RTVSPropertyOp10
 70
     1
102
RTVSPropertyOp11
 70
     1
102
RTVSPropertyOp12
 70
     1
102
RTVSPropertyOp13
 70
     1
102
RTVSPropertyOp14
 70
     1
102
RTVSPropertyOp15
 70
     1
102
RTVSPropertyOp16
 70
     1
102
RTVSPropertyOp17
 70
     1
102
RTVSPropertyOp18
 70
     1
102
RTVSPropertyOp19
 70
     1
102
RTVSPropertyOp20
 70
     1
102
RTVSPropertyOp21
 70
     1
102
RTVSPropertyOp22
 70
     1
102
RTVSPropertyOp23
 70
     1
102
RTVSPropertyOp24
 70
     1
102
RTVSPropertyOp25
 70
     1
102
RTVSPropertyOp26
 70
     1
102
RTVSPropertyOp27
 70
     1
102
RTVSPropertyOp28
 70
     1
102
RTVSPropertyOp29
 70
     1
102
RTVSPropertyOp30
 70
     1
102
RTVSPropertyOp31
 70
     1
102
RTVSPropertyOp32
 70
     1
  0
XRECORD
  5
91
102
{ACAD_REACTORS
330
90
102
}
330
90
100
AcDbXrecord
280
     1
102
RTVSPropertyOp0
 70
     1
102
RTVSPropertyOp1
 70
     1
102
RTVSPropertyOp2
 70
     1
102
RTVSPropertyOp3
 70
     1
102
RTVSPropertyOp4
 70
     1
102
RTVSPropertyOp5
 70
     1
102
RTVSPropertyOp6
 70
     1
102
RTVSPropertyOp7
 70
     1
102
RTVSPropertyOp8
 70
     1
102
RTVSPropertyOp9
 70
     1
102
RTVSPropertyOp10
 70
     1
102
RTVSPropertyOp11
 70
     1
102
RTVSPropertyOp12
 70
     1
102
RTVSPropertyOp13
 70
     1
102
RTVSPropertyOp14
 70
     1
102
RTVSPropertyOp15
 70
     1
102
RTVSPropertyOp16
 70
     1
102
RTVSPropertyOp17
 70
     1
102
RTVSPropertyOp18
 70
     1
102
RTVSPropertyOp19
 70
     1
102
RTVSPropertyOp20
 70
     1
102
RTVSPropertyOp21
 70
     1
102
RTVSPropertyOp22
 70
     1
102
RTVSPropertyOp23
 70
     1
102
RTVSPropertyOp24
 70
     1
102
RTVSPropertyOp25
 70
     1
102
RTVSPropertyOp26
 70
     1
102
RTVSPropertyOp27
 70
     1
102
RTVSPropertyOp28
 70
     1
102
RTVSPropertyOp29
 70
     1
102
RTVSPropertyOp30
 70
     1
102
RTVSPropertyOp31
 70
     1
102
RTVSPropertyOp32
 70
     1
  0
XRECORD
  5
93
102
{ACAD_REACTORS
330
92
102
}
330
92
100
AcDbXrecord
280
     1
102
RTVSPropertyOp0
 70
     1
102
RTVSPropertyOp1
 70
     1
102
RTVSPropertyOp2
 70
     1
102
RTVSPropertyOp3
 70
     1
102
RTVSPropertyOp4
 70
     1
102
RTVSPropertyOp5
 70
     1
102
RTVSPropertyOp6
 70
     1
102
RTVSPropertyOp7
 70
     1
102
RTVSPropertyOp8
 70
     1
102
RTVSPropertyOp9
 70
     1
102
RTVSPropertyOp10
 70
     1
102
RTVSPropertyOp11
 70
     1
102
RTVSPropertyOp12
 70
     1
102
RTVSPropertyOp13
 70
     1
102
RTVSPropertyOp14
 70
     1
102
RTVSPropertyOp15
 70
     1
102
RTVSPropertyOp16
 70
     1
102
RTVSPropertyOp17
 70
     1
102
RTVSPropertyOp18
 70
     1
102
RTVSPropertyOp19
 70
     1
102
RTVSPropertyOp20
 70
     1
102
RTVSPropertyOp21
 70
     1
102
RTVSPropertyOp22
 70
     1
102
RTVSPropertyOp23
 70
     1
102
RTVSPropertyOp24
 70
     1
102
RTVSPropertyOp25
 70
     1
102
RTVSPropertyOp26
 70
     1
102
RTVSPropertyOp27
 70
     1
102
RTVSPropertyOp28
 70
     1
102
RTVSPropertyOp29
 70
     1
102
RTVSPropertyOp30
 70
     1
102
RTVSPropertyOp31
 70
     1
102
RTVSPropertyOp32
 70
     1
  0
XRECORD
  5
95
102
{ACAD_REACTORS
330
94
102
}
330
94
100
AcDbXrecord
280
     1
102
RTVSPropertyOp0
 70
     1
102
RTVSPropertyOp1
 70
     1
102
RTVSPropertyOp2
 70
     1
102
RTVSPropertyOp3
 70
     1
102
RTVSPropertyOp4
 70
     1
102
RTVSPropertyOp5
 70
     1
102
RTVSPropertyOp6
 70
     1
102
RTVSPropertyOp7
 70
     1
102
RTVSPropertyOp8
 70
     1
102
RTVSPropertyOp9
 70
     1
102
RTVSPropertyOp10
 70
     1
102
RTVSPropertyOp11
 70
     1
102
RTVSPropertyOp12
 70
     1
102
RTVSPropertyOp13
 70
     1
102
RTVSPropertyOp14
 70
     1
102
RTVSPropertyOp15
 70
     1
102
RTVSPropertyOp16
 70
     1
102
RTVSPropertyOp17
 70
     1
102
RTVSPropertyOp18
 70
     1
102
RTVSPropertyOp19
 70
     1
102
RTVSPropertyOp20
 70
     1
102
RTVSPropertyOp21
 70
     1
102
RTVSPropertyOp22
 70
     1
102
RTVSPropertyOp23
 70
     1
102
RTVSPropertyOp24
 70
     1
102
RTVSPropertyOp25
 70
     1
102
RTVSPropertyOp26
 70
     1
102
RTVSPropertyOp27
 70
     1
102
RTVSPropertyOp28
 70
     1
102
RTVSPropertyOp29
 70
     1
102
RTVSPropertyOp30
 70
     1
102
RTVSPropertyOp31
 70
     1
102
RTVSPropertyOp32
 70
     1
  0
XRECORD
  5
97
102
{ACAD_REACTORS
330
96
102
}
330
96
100
AcDbXrecord
280
     1
102
RTVSPropertyOp0
 70
     1
102
RTVSPropertyOp1
 70
     1
102
RTVSPropertyOp2
 70
     1
102
RTVSPropertyOp3
 70
     1
102
RTVSPropertyOp4
 70
     1
102
RTVSPropertyOp5
 70
     1
102
RTVSPropertyOp6
 70
     1
102
RTVSPropertyOp7
 70
     1
102
RTVSPropertyOp8
 70
     1
102
RTVSPropertyOp9
 70
     1
102
RTVSPropertyOp10
 70
     1
102
RTVSPropertyOp11
 70
     1
102
RTVSPropertyOp12
 70
     1
102
RTVSPropertyOp13
 70
     1
102
RTVSPropertyOp14
 70
     1
102
RTVSPropertyOp15
 70
     1
102
RTVSPropertyOp16
 70
     1
102
RTVSPropertyOp17
 70
     1
102
RTVSPropertyOp18
 70
     1
102
RTVSPropertyOp19
 70
     1
102
RTVSPropertyOp20
 70
     1
102
RTVSPropertyOp21
 70
     1
102
RTVSPropertyOp22
 70
     1
102
RTVSPropertyOp23
 70
     1
102
RTVSPropertyOp24
 70
     1
102
RTVSPropertyOp25
 70
     1
102
RTVSPropertyOp26
 70
     1
102
RTVSPropertyOp27
 70
     1
102
RTVSPropertyOp28
 70
     1
102
RTVSPropertyOp29
 70
     1
102
RTVSPropertyOp30
 70
     1
102
RTVSPropertyOp31
 70
     1
102
RTVSPropertyOp32
 70
     1
  0
XRECORD
  5
AB
102
{ACAD_REACTORS
330
AA
102
}
330
AA
100
AcDbXrecord
280
     1
102
RTVSPropertyOp0
 70
     1
102
RTVSPropertyOp1
 70
     1
102
RTVSPropertyOp2
 70
     1
102
RTVSPropertyOp3
 70
     1
102
RTVSPropertyOp4
 70
     1
102
RTVSPropertyOp5
 70
     1
102
RTVSPropertyOp6
 70
     1
102
RTVSPropertyOp7
 70
     1
102
RTVSPropertyOp8
 70
     1
102
RTVSPropertyOp9
 70
     1
102
RTVSPropertyOp10
 70
     1
102
RTVSPropertyOp11
 70
     1
102
RTVSPropertyOp12
 70
     1
102
RTVSPropertyOp13
 70
     1
102
RTVSPropertyOp14
 70
     1
102
RTVSPropertyOp15
 70
     1
102
RTVSPropertyOp16
 70
     1
102
RTVSPropertyOp17
 70
     1
102
RTVSPropertyOp18
 70
     1
102
RTVSPropertyOp19
 70
     1
102
RTVSPropertyOp20
 70
     1
102
RTVSPropertyOp21
 70
     1
102
RTVSPropertyOp22
 70
     1
102
RTVSPropertyOp23
 70
     1
102
RTVSPropertyOp24
 70
     1
102
RTVSPropertyOp25
 70
     1
102
RTVSPropertyOp26
 70
     1
102
RTVSPropertyOp27
 70
     1
102
RTVSPropertyOp28
 70
     1
102
RTVSPropertyOp29
 70
     1
102
RTVSPropertyOp30
 70
     1
102
RTVSPropertyOp31
 70
     1
102
RTVSPropertyOp32
 70
     1
  0
XRECORD
  5
A1
102
{ACAD_REACTORS
330
A0
102
}
330
A0
100
AcDbXrecord
280
     1
102
RTVSPropertyOp0
 70
     1
102
RTVSPropertyOp1
 70
     1
102
RTVSPropertyOp2
 70
     1
102
RTVSPropertyOp3
 70
     1
102
RTVSPropertyOp4
 70
     1
102
RTVSPropertyOp5
 70
     1
102
RTVSPropertyOp6
 70
     1
102
RTVSPropertyOp7
 70
     1
102
RTVSPropertyOp8
 70
     1
102
RTVSPropertyOp9
 70
     1
102
RTVSPropertyOp10
 70
     1
102
RTVSPropertyOp11
 70
     1
102
RTVSPropertyOp12
 70
     1
102
RTVSPropertyOp13
 70
     1
102
RTVSPropertyOp14
 70
     1
102
RTVSPropertyOp15
 70
     1
102
RTVSPropertyOp16
 70
     1
102
RTVSPropertyOp17
 70
     1
102
RTVSPropertyOp18
 70
     1
102
RTVSPropertyOp19
 70
     1
102
RTVSPropertyOp20
 70
     1
102
RTVSPropertyOp21
 70
     1
102
RTVSPropertyOp22
 70
     1
102
RTVSPropertyOp23
 70
     1
102
RTVSPropertyOp24
 70
     1
102
RTVSPropertyOp25
 70
     1
102
RTVSPropertyOp26
 70
     1
102
RTVSPropertyOp27
 70
     1
102
RTVSPropertyOp28
 70
     1
102
RTVSPropertyOp29
 70
     1
102
RTVSPropertyOp30
 70
     1
102
RTVSPropertyOp31
 70
     1
102
RTVSPropertyOp32
 70
     1
  0
XRECORD
  5
A9
102
{ACAD_REACTORS
330
A8
102
}
330
A8
100
AcDbXrecord
280
     1
102
RTVSPropertyOp0
 70
     1
102
RTVSPropertyOp1
 70
     1
102
RTVSPropertyOp2
 70
     1
102
RTVSPropertyOp3
 70
     1
102
RTVSPropertyOp4
 70
     1
102
RTVSPropertyOp5
 70
     1
102
RTVSPropertyOp6
 70
     1
102
RTVSPropertyOp7
 70
     1
102
RTVSPropertyOp8
 70
     1
102
RTVSPropertyOp9
 70
     1
102
RTVSPropertyOp10
 70
     1
102
RTVSPropertyOp11
 70
     1
102
RTVSPropertyOp12
 70
     1
102
RTVSPropertyOp13
 70
     1
102
RTVSPropertyOp14
 70
     1
102
RTVSPropertyOp15
 70
     1
102
RTVSPropertyOp16
 70
     1
102
RTVSPropertyOp17
 70
     1
102
RTVSPropertyOp18
 70
     1
102
RTVSPropertyOp19
 70
     1
102
RTVSPropertyOp20
 70
     1
102
RTVSPropertyOp21
 70
     1
102
RTVSPropertyOp22
 70
     1
102
RTVSPropertyOp23
 70
     1
102
RTVSPropertyOp24
 70
     1
102
RTVSPropertyOp25
 70
     1
102
RTVSPropertyOp26
 70
     1
102
RTVSPropertyOp27
 70
     1
102
RTVSPropertyOp28
 70
     1
102
RTVSPropertyOp29
 70
     1
102
RTVSPropertyOp30
 70
     1
102
RTVSPropertyOp31
 70
     1
102
RTVSPropertyOp32
 70
     1
  0
ENDSEC
  0
EOF
